<svg fill="none" xmlns="http://www.w3.org/2000/svg">
<path d="M2.93188 9.87608V19.0471H7.51788V9.87608C7.51921 8.66037 8.00266 7.49483 8.8622 6.6351C9.72174 5.77537 10.8872 5.29167 12.1029 5.29008L13.6319 2.99808L12.1029 0.705078C9.67057 0.705078 7.33789 1.67131 5.618 3.3912C3.8981 5.1111 2.93188 7.44378 2.93188 9.87608Z" fill="#989898"/>
<path d="M12.103 0.705078V5.29008C13.3187 5.29167 14.4842 5.77537 15.3437 6.6351C16.2033 7.49483 16.6867 8.66037 16.688 9.87608V19.0471H21.274V9.87608C21.274 7.44378 20.3078 5.1111 18.5879 3.3912C16.868 1.67131 14.5353 0.705078 12.103 0.705078Z" fill="#989898"/>
<path d="M0.638916 17.5176V35.8596H12.1049L13.6339 26.6886L12.1049 17.5226L0.638916 17.5176Z" fill="#B1B1B1"/>
<path d="M12.103 17.5176H23.567V35.8596H12.103V17.5176Z" fill="#B1B1B1"/>
<path d="M14.3958 25.5431C14.3958 25.1405 14.2899 24.7451 14.0886 24.3965C13.8873 24.0479 13.5979 23.7584 13.2493 23.5572C12.9006 23.3559 12.5052 23.25 12.1026 23.25C11.7001 23.25 11.3047 23.356 10.9561 23.5573C10.6075 23.7586 10.3181 24.0481 10.1169 24.3968C9.91564 24.7454 9.80974 25.1409 9.80981 25.5434C9.80989 25.9459 9.91592 26.3414 10.1173 26.6899C10.3186 27.0385 10.6082 27.3279 10.9568 27.5291V30.8931H13.2498V27.5291C13.5984 27.3278 13.8878 27.0383 14.089 26.6897C14.2902 26.341 14.396 25.9456 14.3958 25.5431Z" fill="#F5F5F5"/>
</svg>
