<svg width="84" height="79" viewBox="0 0 84 79" fill="none" xmlns="http://www.w3.org/2000/svg">
<path d="M36.0433 78.6135C16.2778 75.06 2.28729 61.4072 0.208769 43.6471C-0.607987 35.1236 1.59291 26.5836 6.42148 19.5402C11.1724 12.5742 19.565 6.38696 28.1824 3.49605C33.1028 1.6956 38.3159 0.848595 43.5479 0.999571C53.1388 0.759109 62.5627 3.56009 70.4919 9.00784C76.1043 12.8166 83.0014 21.0203 83.0014 23.8863C83.0014 26.4261 79.8448 28.2636 76.7183 27.5439C74.8627 27.1172 74.193 26.4979 71.676 22.8781C66.6574 15.6513 59.0998 10.5625 49.683 8.06141C46.7091 7.27164 45.3889 7.15184 39.8934 7.1758C34.3357 7.20068 33.0804 7.32878 29.8434 8.20425C16.2303 11.8858 6.60055 21.246 3.65774 33.6547C2.542 38.8908 2.74904 44.3259 4.25982 49.4602C8.12906 61.0238 17.1156 69.1021 30.0682 72.6612C32.7104 73.3864 34.1594 73.5099 40.0852 73.5099C46.1006 73.5099 47.4446 73.3938 50.285 72.6197C59.1181 70.22 67.4997 64.4068 71.7865 57.7136C75.3789 52.1097 75.1231 52.3686 77.0043 52.3686C80.2623 52.3686 82.9986 54.22 82.9986 56.4235C82.9986 59.178 76.0011 67.353 70.4818 71.0521C65.4305 74.4476 59.8001 76.8712 53.8747 78.2006C50.2138 79.03 39.7454 79.2742 36.0442 78.6088L36.0433 78.6135ZM33.9264 69.4155C27.6323 68.6723 21.6515 66.2382 16.6085 62.3674C9.39079 56.6031 5.13326 47.3886 5.77828 38.9149C6.29997 32.066 8.92301 26.5302 14.117 21.3133C30.9635 4.39088 61.5054 10.8076 68.6336 32.7663C69.9399 37.4992 70.0783 42.4825 69.0365 47.2817C65.1334 61.6846 50.1571 71.1259 33.9264 69.4155ZM44.0678 63.6373C53.152 61.0478 59.9275 54.5361 62.4528 45.9657C63.4422 41.8784 63.3929 37.6053 62.3094 33.5423C59.3309 23.8752 49.7341 16.4549 39.0611 15.5628C23.0332 14.2238 9.79187 24.2816 8.85083 38.5094C8.40041 45.3003 10.7448 51.3356 15.8237 56.4594C20.0235 60.7209 25.4671 63.5122 31.3555 64.4234C35.6046 64.8675 39.8972 64.6016 44.0605 63.6364L44.0678 63.6373ZM27.8791 59.5567C19.8108 57.5026 13.3861 50.8674 12.1975 43.3632C11.7032 40.2447 12.2057 35.9669 13.3258 33.7515C14.8561 30.726 17.7624 29.7953 20.3014 31.5176C21.8491 32.5682 22.7774 34.3661 23.1501 37.0368L23.4196 38.9776L24.728 35.4831C26.5616 30.5933 26.8723 30.0653 28.0043 29.9316C29.4834 29.7565 29.9229 30.6412 30.2034 34.3966L30.461 37.8127L31.9457 34.2021C33.4833 30.4652 34.6016 29.1981 35.9721 29.6367C37.7171 30.1961 37.9601 31.0052 38.3758 37.6423C38.5942 41.1368 38.8436 44.0673 38.924 44.153C39.5158 43.4281 39.9934 42.6156 40.3401 41.7441C41.6585 39.0485 42.4251 38.4643 43.727 39.1637C44.8699 39.7803 44.7201 40.558 42.6388 44.8359C40.0496 50.1578 38.6042 51.2803 36.5878 49.5303C35.6888 48.7497 35.4714 48.1737 35.2229 45.9251C35.0612 44.4507 34.9195 41.5939 34.9086 39.5794C34.8967 37.4598 34.746 36.0664 34.5523 36.2793C33.722 38.3654 33.0107 40.4976 32.4217 42.6656C30.5177 49.0483 29.943 50.1246 28.8192 49.4132C28.1431 48.9865 28.0518 48.4456 27.2871 40.3359L26.9755 37.0359L25.722 41.1128C23.5759 48.0917 23.1867 49.0538 22.4539 49.1957C20.9199 49.4943 20.6468 48.6428 20.6468 43.566C20.6468 38.2053 20.1698 35.5384 18.9721 34.2049C17.9004 33.0069 16.8104 33.2548 15.8548 34.9006C15.2552 36.5789 14.987 38.3593 15.0654 40.1415C14.9349 42.2377 15.2919 44.3356 16.1078 46.268C17.8541 49.5815 20.4727 52.3449 23.6755 54.2541C33.2019 59.3761 45.07 55.9065 49.5715 46.6836C50.7563 44.7222 51.3187 42.4425 51.1831 40.1498C51.2451 38.0288 50.7737 35.9265 49.8127 34.039C47.6254 29.7995 44.0122 26.4846 39.6211 24.6889C36.5791 23.5439 33.2982 23.1985 30.0873 23.6852C26.8764 24.1719 23.8411 25.4748 21.2671 27.4711C20.6885 28.0051 20.0115 28.419 19.2745 28.6894C18.8748 28.5891 18.5077 28.3863 18.2086 28.1006C17.9096 27.815 17.6889 27.4562 17.5678 27.0592C17.5678 26.2924 20.1443 24.1904 22.8075 22.7841C26.1789 20.8164 30.0342 19.8527 33.9264 20.0047C36.3608 19.8797 38.7937 20.2783 41.0637 21.1742C49.0315 23.9784 54.5444 30.045 55.7413 37.3289C57.2095 46.268 51.1503 55.6152 41.7097 58.9854C38.6079 60.0912 31.1901 60.399 27.8782 59.5549L27.8791 59.5567Z" fill="#4B4B4B" fill-opacity="0.6"/>
</svg>
