<?xml version="1.0" standalone="no"?>
<!DOCTYPE svg PUBLIC "-//W3C//DTD SVG 20010904//EN"
 "http://www.w3.org/TR/2001/REC-SVG-20010904/DTD/svg10.dtd">
<svg version="1.0" xmlns="http://www.w3.org/2000/svg"
 width="563.000000pt" height="362.000000pt" viewBox="0 0 563.000000 362.000000"
 preserveAspectRatio="xMidYMid meet">

<g transform="translate(0.000000,362.000000) scale(0.100000,-0.100000)"
fill="#000000" stroke="none">
<path d="M4210 3533 c-135 -111 -401 -378 -512 -514 -456 -557 -692 -1135
-690 -1689 1 -376 129 -690 386 -945 333 -331 803 -458 1254 -340 500 132 872
535 963 1045 20 110 18 365 -4 470 -86 408 -345 749 -705 929 -147 74 -372
131 -513 131 l-69 0 -2 500 -3 500 -105 -87z"/>
<path d="M1200 3523 c-303 -252 -614 -614 -818 -952 -348 -576 -463 -1239
-297 -1701 112 -309 354 -583 645 -730 82 -41 247 -97 348 -117 119 -23 365
-23 484 0 459 91 835 411 993 847 46 130 66 235 71 395 7 166 -6 275 -50 427
-148 510 -621 891 -1151 926 l-100 7 -3 493 c-1 270 -6 492 -10 492 -4 0 -54
-39 -112 -87z"/>
</g>
</svg>
