<svg id="setting"  xmlns="http://www.w3.org/2000/svg" width="24" height="24" viewBox="0 0 24 24">
  <g id="setting" data-name="setting">
    <g id="setting">
      <path id="Vector" d="M13.209,18.878a1.7,1.7,0,0,1-1.448-.829l-.111-.19A2.006,2.006,0,0,0,10,16.682,1.99,1.99,0,0,0,8.36,17.859l-.11.19a1.7,1.7,0,0,1-1.449.829,1.628,1.628,0,0,1-.831-.229l-1.73-.99a1.9,1.9,0,0,1-.7-2.59,2,2,0,0,0,.2-2.013,2,2,0,0,0-1.84-.836,1.9,1.9,0,0,1-1.9-1.9V8.559a1.9,1.9,0,0,1,1.9-1.9,2,2,0,0,0,1.841-.838,1.985,1.985,0,0,0-.2-2,1.907,1.907,0,0,1,.7-2.6L5.97.229A1.626,1.626,0,0,1,6.8,0,1.647,1.647,0,0,1,8.23.829l.111.19A2.006,2.006,0,0,0,9.989,2.2,1.99,1.99,0,0,0,11.63,1.019l.11-.19A1.7,1.7,0,0,1,13.189,0a1.628,1.628,0,0,1,.831.229l1.73.99a1.9,1.9,0,0,1,.7,2.59,2,2,0,0,0-.191,2.015,2,2,0,0,0,1.841.835,1.92,1.92,0,0,1,1.91,1.9v1.76a1.9,1.9,0,0,1-1.9,1.9,2,2,0,0,0-1.84.836,2,2,0,0,0,.2,2.013,1.9,1.9,0,0,1-.7,2.59l-1.73.99A1.627,1.627,0,0,1,13.209,18.878ZM10,6.189a3.25,3.25,0,1,0,3.25,3.25A3.254,3.254,0,0,0,10,6.189Z" transform="translate(2 2.563)" fill="#333333"/>
      <path id="Vector-2" d="M24,0V24H0V0Z" transform="translate(24 24) rotate(180)" fill="none" opacity="0"/>
    </g>
  </g>
</svg>
