<svg xmlns="http://www.w3.org/2000/svg" width="34.336" height="35.52" viewBox="0 0 34.336 35.52">
  <g id="g138705" transform="translate(380.903 -0.944)">
    <ellipse id="path138592" class="bg" cx="16.569" cy="17.295" rx="16.569" ry="17.295" transform="translate(-380.063 1.303)" fill="#d1d1d1"/>
    <ellipse id="path138633" cx="2.398" cy="2.471" rx="2.398" ry="2.471" transform="translate(-377.882 17.726)" fill="#d47373" opacity="0.327"/>
    <ellipse id="ellipse138635" cx="2.398" cy="2.471" rx="2.398" ry="2.471" transform="translate(-355.5 15.982)" fill="#d47373" opacity="0.327"/>
    <path id="path138564" d="M-367.194,36.332a16.4,16.4,0,0,1-9.445-5.117,16.054,16.054,0,0,1-2.288-3.553,21,21,0,0,1-1.873-6.093,34.236,34.236,0,0,1,.039-5.735,17.41,17.41,0,0,1,5.2-10.124,15.923,15.923,0,0,1,6.625-3.376c.661-.173,1.631-.464,2.155-.646a12.926,12.926,0,0,1,5.5-.685,19.2,19.2,0,0,1,8.34,2.946,12.808,12.808,0,0,1,5.609,7.3,22.877,22.877,0,0,1,.7,4.008,43.09,43.09,0,0,1-.126,6.312c-.613,4.539-2.135,7.809-4.907,10.547a14.215,14.215,0,0,1-6.1,3.667c-1.88.592-2.257.636-5.621.671a18.4,18.4,0,0,1-3.813-.121Zm6.235-1.093a14.508,14.508,0,0,0,6.5-2.31,15.376,15.376,0,0,0,6.373-10.894,31.019,31.019,0,0,0-.333-9.9,10.566,10.566,0,0,0-2.733-4.9,16.317,16.317,0,0,0-7.542-4.358,12.709,12.709,0,0,0-4.066-.5,9.9,9.9,0,0,0-2.442.191,14.39,14.39,0,0,0-3.008,1.051c-.642.308-.855.34-1.271.189-.231-.084-.354-.066-.918.133a13.667,13.667,0,0,0-5.512,3.724c-4.873,5.62-5.252,14.874-.879,21.455a14.213,14.213,0,0,0,3.455,3.541,17.977,17.977,0,0,0,5.933,2.418,26.3,26.3,0,0,0,6.442.153Zm-4.592-5.5a12.623,12.623,0,0,1-8.01-4.759c-.655-.932-.731-1.393-.255-1.544.275-.087.52.1,1.1.831a11.6,11.6,0,0,0,6.981,4.242,14.028,14.028,0,0,0,4.159,0,9.509,9.509,0,0,0,3.969-1.835,9.288,9.288,0,0,0,2.555-3.193c.838-1.534.939-1.67,1.225-1.642a.611.611,0,0,1,.407.237c.15.2.151.232.023.622-.074.225-.3.748-.5,1.161a10.451,10.451,0,0,1-8,5.884,15.394,15.394,0,0,1-3.662,0Zm-10.416-6.881c-.213-.271-.222-.36-.057-.594.088-.126.279-.2.677-.272a4.779,4.779,0,0,0,1.216-.437c.62-.319.675-.333.877-.22a.449.449,0,0,1,.24.375c.059.6-.981,1.255-2.116,1.333-.642.044-.661.04-.837-.184ZM-354.25,21c-.807-.287-1.028-.557-.847-1.033.106-.279.365-.291,1.05-.05a3.22,3.22,0,0,0,1.746.033c.264-.08.543.228.51.563-.039.4-.427.586-1.305.619A2.752,2.752,0,0,1-354.25,21Zm-17.822-2.913a1.676,1.676,0,0,1-.974-.962,3.586,3.586,0,0,1,.087-2.054,1.842,1.842,0,0,1,1.2-.838,1.572,1.572,0,0,1,1.634.85,5.279,5.279,0,0,1,.158,1.879,2.061,2.061,0,0,1-.888,1.09,2.086,2.086,0,0,1-1.22.037Zm14.452-1.2a1.919,1.919,0,0,1-1.029-1.088,5.123,5.123,0,0,1-.088-1.026,1.761,1.761,0,0,1,.625-1.626c.283-.216.376-.239.955-.239s.665.019.96.257c.514.416.63.689.673,1.6a4.847,4.847,0,0,1-.055,1.142,1.725,1.725,0,0,1-1.542,1.1,2.173,2.173,0,0,1-.5-.12Z"/>
  </g>
</svg>
