<svg xmlns="http://www.w3.org/2000/svg" width="600" height="400" viewBox="0 0 600 400">
  <g  transform="translate(-2431 -969)">
    <rect  width="600" height="400" transform="translate(2431 969)" fill="red"/>
    <rect  width="240" height="400" transform="translate(2431 969)" fill="#060"/>
    <g  transform="translate(2431 969)">
      <path  d="M318.24,262.04c-30.21-.91-168.74-87.38-169.69-101.15l7.65-12.757c13.741,19.966,155.36,104.06,169.27,101.08l-7.23,12.823" fill="#ff0" stroke="#000" stroke-linecap="round" stroke-linejoin="round" stroke-width="0.573" fill-rule="evenodd"/>
      <path  d="M154.59,146.4c-2.71,7.294,36.149,31.318,82.9,59.754s87.065,46.006,90.053,43.486a26.192,26.192,0,0,0,1.352-2.523c-.56.844-1.923,1.11-4.051.5-12.631-3.643-45.575-18.765-86.374-43.506s-76.294-47.544-81.811-57.232a5.871,5.871,0,0,1-.6-2.849l-.134,0-1.175,2.053-.161.322h0ZM318.95,262.44c-.512.93-1.467.96-3.282.761-11.3-1.251-45.589-17.925-86.162-42.213-47.21-28.26-86.2-54.01-81.97-60.74l1.151-2.035.227.071c-3.8,11.4,76.948,57.578,81.7,60.522,46.724,28.947,86.115,45.851,89.6,41.458l-1.268,2.181v0Z" fill="#ff0" stroke="#000" stroke-linecap="round" stroke-linejoin="round" stroke-width="0.573" fill-rule="evenodd"/>
      <path  d="M240.17,169.23c30.237-.239,67.55-4.132,89.023-12.69l-4.626-7.517c-12.692,7.025-50.21,11.644-84.652,12.335-40.736-.375-69.49-4.168-83.9-13.835l-4.367,8c26.484,11.207,53.623,13.587,88.52,13.7" fill="#ff0" stroke="#000" stroke-linecap="round" stroke-linejoin="round" stroke-width="0.573" fill-rule="evenodd"/>
      <path  d="M330.44,156.71c-.739,1.182-14.743,6.011-35.373,9.575a365.664,365.664,0,0,1-55,3.978,390.293,390.293,0,0,1-52.684-3.333c-21.656-3.4-32.833-8.12-36.965-9.79.4-.786.649-1.337,1.03-2.071a160.011,160.011,0,0,0,36.279,9.616A385.748,385.748,0,0,0,240,168.027a367.239,367.239,0,0,0,54.616-4.053c21.155-3.412,32.711-7.8,34.334-9.842l1.494,2.579h0Zm-4.06-7.623c-2.293,1.842-13.718,5.893-33.819,9.1a363.926,363.926,0,0,1-52.265,3.665,352.183,352.183,0,0,1-50.485-3.249c-20.414-2.666-31.279-7.475-35.2-8.878.39-.674.787-1.342,1.194-2.014,3.048,1.535,13.533,5.791,34.226,8.722a361.428,361.428,0,0,0,50.262,3.126,359.306,359.306,0,0,0,51.883-3.688c20.2-2.78,31.077-7.947,32.728-9.241l1.473,2.451v0Z" fill="#ff0" stroke="#000" stroke-linecap="round" stroke-linejoin="round" stroke-width="0.573" fill-rule="evenodd"/>
      <path  d="M140.88,205.66c18.6,10,59.9,15.044,98.994,15.391,35.591.056,81.958-5.5,99.3-14.69l-.477-10.012c-5.425,8.477-55.113,16.609-99.206,16.276s-85.038-7.143-98.687-15.959l.079,8.991" fill="#ff0" stroke="#000" stroke-linecap="round" stroke-linejoin="round" stroke-width="0.573" fill-rule="evenodd"/>
      <path  d="M340.12,204.22v2.387c-2.606,3.116-18.946,7.826-39.437,11.142a406.968,406.968,0,0,1-61.262,4.195,384.447,384.447,0,0,1-58.148-4c-23.529-3.426-38.579-9.426-41.6-11.217l.013-2.785c9.075,6.033,33.661,10.447,41.917,11.8a382.329,382.329,0,0,0,57.817,3.973,404.949,404.949,0,0,0,60.931-4.166c14.7-2.124,35.644-7.646,39.767-11.324h0Zm.01-8.492v2.387c-2.606,3.114-18.946,7.824-39.437,11.14a406.968,406.968,0,0,1-61.262,4.195,384.211,384.211,0,0,1-58.148-4c-23.529-3.425-38.579-9.424-41.6-11.216l.013-2.785c9.075,6.033,33.661,10.447,41.917,11.8a382.042,382.042,0,0,0,57.817,3.976,404.657,404.657,0,0,0,60.931-4.169c14.7-2.124,35.644-7.646,39.767-11.324v0Z" fill="#ff0" stroke="#000" stroke-linecap="round" stroke-linejoin="round" stroke-width="0.573" fill-rule="evenodd"/>
      <path  d="M239.79,260.32c-42.772-.255-79.421-11.659-87.16-13.544l5.643,8.834c13.67,5.75,49.424,14.32,81.927,13.371s60.91-3.466,80.928-13.211l5.786-9.156c-13.642,6.425-60.068,13.639-87.125,13.705" fill="#ff0" stroke="#000" stroke-linecap="round" stroke-linejoin="round" stroke-width="0.573" fill-rule="evenodd"/>
      <path  d="M323.3,253.72c-.85,1.3-1.717,2.582-2.6,3.829a227.64,227.64,0,0,1-30.6,7.844c-12.824,2.642-32.665,4.594-50.274,4.6-37.89-.555-68.9-7.972-83.5-14.3l-1.177-2.024.192-.3,2,.774c25.948,9.283,55.091,12.987,82.7,13.652a281.892,281.892,0,0,0,49.292-4.549c21.771-4.362,30.574-7.65,33.275-9.141l.687-.385h0Zm5.017-8.275c.022.026.044.05.065.078-.636,1.073-1.291,2.165-1.962,3.262-5.036,1.8-18.7,5.8-38.659,8.589-13.149,1.791-21.322,3.526-47.479,4.034-49.015-1.247-80.75-10.831-88.289-13.2l-1.117-2.143c28.406,7.415,57.422,12.592,89.408,13.121,23.931-.51,34.112-2.272,47.152-4.05,23.271-3.619,35-7.45,38.515-8.556-.044-.064-.1-.131-.154-.2l2.523-.943,0,0Z" fill="#ff0" stroke="#000" stroke-linecap="round" stroke-linejoin="round" stroke-width="0.55" fill-rule="evenodd"/>
      <path  d="M328.83,197.76c.139,28.137-14.26,53.386-25.858,64.525A93.073,93.073,0,0,1,239.4,288.648c-28.37.521-55.12-17.974-62.295-26.1-14.028-15.885-25.449-36.057-25.815-63.243,1.738-30.709,13.793-52.1,31.268-66.769s40.743-21.813,60.121-21.3c22.358.59,48.475,11.558,66.521,33.332,11.823,14.266,16.943,29.748,19.627,53.193Zm-89.186-96.342c54.485,0,99.3,44.338,99.3,98.7s-44.811,98.7-99.3,98.7-98.924-44.339-98.924-98.7,44.439-98.7,98.924-98.7" fill="#ff0" stroke="#000" stroke-linecap="round" stroke-linejoin="round" stroke-width="0.573" fill-rule="evenodd"/>
      <path  d="M239.91,101.08A99.021,99.021,0,1,1,140.9,200.1,99.208,99.208,0,0,1,239.91,101.08ZM143.078,200.1c0,53.26,43.736,96.842,96.832,96.842s96.833-43.582,96.833-96.842-43.737-96.844-96.833-96.844-96.832,43.584-96.832,96.844Z" fill="#ff0" stroke="#000" stroke-linecap="round" stroke-linejoin="round" stroke-width="0.573" fill-rule="evenodd"/>
      <path  d="M239.99,109.31c49.731,0,90.693,40.821,90.693,90.7s-40.963,90.7-90.693,90.7S149.3,249.9,149.3,200.014s40.964-90.7,90.693-90.7Zm-88.515,90.7c0,48.685,39.979,88.524,88.515,88.524s88.515-39.839,88.515-88.524-39.978-88.525-88.515-88.525-88.515,39.839-88.515,88.525Z" fill="#ff0" stroke="#000" stroke-linecap="round" stroke-linejoin="round" stroke-width="0.573" fill-rule="evenodd"/>
      <path  d="M243.98,100.68h-8.485l.01,198.96h8.515Z" fill="#ff0" stroke="#000" stroke-linecap="round" stroke-linejoin="round" stroke-width="0.573" fill-rule="evenodd"/>
      <path  d="M243.13,99.546h2.16l.018,201.25h-2.162l-.016-201.25Zm-8.421,0h2.177l0,201.25H234.71V99.548Z" fill="#ff0" stroke="#000" stroke-linecap="round" stroke-linejoin="round" stroke-width="0.573" fill-rule="evenodd"/>
      <path  d="M338.99,203.935V196.58L333,191l-34-9-49-5-59,3-42,10-8.48,6.28v7.357L162,194l51-8h49l36,4,25,6Z" fill="#ff0" stroke="#000" stroke-linecap="round" stroke-linejoin="round" stroke-width="0.573" fill-rule="evenodd"/>
      <path  d="M239.95,184.77a343.264,343.264,0,0,1,64.065,5.719c18.569,3.712,31.637,8.356,36.105,13.571l-.005,2.582c-5.388-6.49-22.973-11.248-36.518-13.968A341.309,341.309,0,0,0,239.95,187c-24.538.046-47.387,2.37-64.984,5.8-14.12,2.8-32.951,8.368-35.3,13.858v-2.689c1.291-3.8,15.313-9.479,34.984-13.417,17.729-3.457,40.62-5.742,65.3-5.786Zm.01-8.492A343.493,343.493,0,0,1,304.025,182c18.569,3.714,31.637,8.356,36.105,13.571l-.005,2.582c-5.388-6.488-22.973-11.247-36.518-13.966a341.02,341.02,0,0,0-63.647-5.674c-24.538.044-47.276,2.37-64.875,5.8-13.626,2.583-33.226,8.37-35.412,13.86v-2.691c1.291-3.759,15.6-9.641,34.985-13.417,17.729-3.457,40.62-5.74,65.3-5.786Z" fill="#ff0" stroke="#000" stroke-linecap="round" stroke-linejoin="round" stroke-width="0.573" fill-rule="evenodd"/>
      <path  d="M239.48,132.96c36.849-.184,68.99,5.152,83.695,12.685l5.364,9.279c-12.781-6.888-47.456-14.05-89.005-12.979-33.854.208-70.027,3.727-88.176,13.41l6.4-10.709c14.9-7.724,50.022-11.643,81.72-11.684" fill="#ff0" stroke="#000" stroke-linecap="round" stroke-linejoin="round" stroke-width="0.573" fill-rule="evenodd"/>
      <path  d="M239.97,140.62c21.017-.056,41.325,1.13,57.476,4.044,15.041,2.8,29.385,7,31.436,9.26l1.59,2.81c-4.988-3.257-17.4-6.884-33.339-9.906-16.006-3.008-36.3-4-57.2-3.95-23.722-.081-42.152,1.171-57.969,3.929-16.728,3.13-28.334,7.6-31.2,9.726l1.558-2.97c5.563-2.838,14.39-6.259,29.223-8.93,16.357-2.988,34.983-3.884,58.423-4.013h0Zm-.009-8.484c20.113-.053,39.972,1.068,55.452,3.851,12.209,2.377,24.283,6.087,28.7,9.389l2.326,3.7c-3.954-4.395-18.836-8.559-31.974-10.892-15.361-2.649-34.395-3.7-54.508-3.866-21.108.059-40.615,1.352-55.752,4.108-14.441,2.748-23.76,6-27.7,8.542l2.045-3.087c5.441-2.865,14.232-5.5,25.3-7.646,15.249-2.776,34.876-4.036,56.108-4.095Z" fill="#ff0" stroke="#000" stroke-linecap="round" stroke-linejoin="round" stroke-width="0.573" fill-rule="evenodd"/>
      <path  d="M289.15,241.26c-18.218-3.4-36.469-3.895-49.217-3.745-61.407.72-81.244,12.609-83.665,16.209l-4.589-7.482c15.634-11.332,49.073-17.687,88.587-17.037,20.518.336,38.224,1.7,53.119,4.583l-4.236,7.473" fill="#ff0" stroke="#000" stroke-linecap="round" stroke-linejoin="round" stroke-width="0.573" fill-rule="evenodd"/>
      <path  d="M239.58,236.46c17.082.255,33.849.96,50.033,3.978l-1.172,2.069c-15.031-2.775-31.055-3.837-48.8-3.75-22.663-.177-45.585,1.939-65.541,7.667-6.3,1.752-16.721,5.8-17.784,9.146l-1.166-1.923c.336-1.977,6.636-6.081,18.414-9.39,22.858-6.546,44.239-7.649,66.019-7.8v0Zm.775-8.6c17.7.331,35.975,1.149,53.74,4.668l-1.221,2.154c-16.042-3.185-31.369-4.247-52.415-4.57-22.735.041-46.851,1.663-68.778,8.037-7.079,2.062-19.3,6.52-19.7,10.05l-1.166-2.066c.265-3.206,10.842-7.388,20.358-10.156,22.1-6.424,46.275-8.076,69.186-8.117Z" fill="#ff0" stroke="#000" stroke-linecap="round" stroke-linejoin="round" stroke-width="0.55" fill-rule="evenodd"/>
      <path  d="M327.58,247.38,320.2,258.829,299,240l-55-37-62-34-32.19-11.01,6.86-12.72L159,144l20,5,66,34,38,24,32,23,13,15Z" fill="#ff0" stroke="#000" stroke-linecap="round" stroke-linejoin="round" stroke-width="0.573" fill-rule="evenodd"/>
      <path  d="M148.65,158.29c5.646-3.829,47.139,14.655,90.555,40.834,43.3,26.254,84.677,55.921,80.942,61.473l-1.228,1.932-.564.444c.121-.086.743-.848-.061-2.906-1.845-6.07-31.2-29.491-79.894-58.9-47.475-28.309-87.041-45.371-91-40.494l1.247-2.389h0Zm180.44,88.927c3.57-7.052-34.916-36.044-82.632-64.272-48.813-27.666-83.994-43.951-90.42-39.1l-1.428,2.6c-.012.143.052-.177.354-.41,1.169-1.02,3.105-.951,3.979-.967,11.065.166,42.667,14.709,87.006,40.128,19.428,11.315,82.071,51.491,81.832,62.789.017.971.08,1.171-.285,1.652l1.594-2.424v0Z" fill="#ff0" stroke="#000" stroke-linecap="round" stroke-linejoin="round" stroke-width="0.573" fill-rule="evenodd"/>
    </g>
    <g  transform="translate(2431 969)">
      <path  d="M180.6,211.01a59.818,59.818,0,0,0,59.266,59.321,59.468,59.468,0,0,0,59.462-59.269h0V131.873l-118.74-.141.012,79.278h0Z" fill="#fff" stroke="#000" stroke-width="0.67"/>
      <path  d="M182.82,211.12v.045A56.39,56.39,0,0,0,199.6,251.174a56.852,56.852,0,0,0,80.436.086,56.388,56.388,0,0,0,16.7-40.044h0V134.39l-113.84-.018-.07,76.748m91.022-53.747,0,48.891-.041,5.172h0a37.31,37.31,0,0,1-.241,4.233,33.2,33.2,0,0,1-9.745,19.708,34,34,0,0,1-24.047,9.941,34.373,34.373,0,0,1-33.859-34.047l-.013-54.023,67.94.123,0,0Z" fill="red" stroke="#000" stroke-width="0.507"/>
      <g >
        <g >
          <path  d="M190.19,154.43c.135-5.521,4.052-6.828,4.081-6.847s4.231,1.408,4.217,6.9l-8.3-.051" fill="#ff0"/>
          <path  d="M186.81,147.69l-.682,6.345,4.141.009c.04-5.249,3.974-6.122,4.069-6.1.089-.005,3.989,1.161,4.093,6.1h4.151l-.75-6.393-15.022.038v0Z" fill="#ff0" stroke="#000" stroke-width="0.5"/>
          <path  d="M185.85,154.06H202.8a.8.8,0,0,1,0,1.565H185.85a.8.8,0,0,1,0-1.565Z" fill="#ff0" stroke="#000" stroke-width="0.5"/>
          <path  d="M192.01,154.03c.018-3.313,2.262-4.25,2.274-4.248a4.434,4.434,0,0,1,2.361,4.248H192.01" fill="#ff0" stroke="#000" stroke-width="0.5"/>
          <path  d="M186.21,145.05h16.245a.71.71,0,0,1,0,1.409H186.21a.71.71,0,0,1,0-1.409Z" fill="#ff0" stroke="#000" stroke-width="0.5"/>
          <path  d="M186.55,146.47h15.538a.714.714,0,0,1,0,1.408H186.55a.714.714,0,0,1,0-1.408Z" fill="#ff0" stroke="#000" stroke-width="0.5"/>
          <path  d="M191.57,135.88l1.227,0v.871h.9v-.891l1.257,0v.887h.9v-.891H197.1l0,2.012a.522.522,0,0,1-.549.52h-4.411a.564.564,0,0,1-.571-.527l0-1.988h0Z" fill="#ff0" stroke="#000" stroke-width="0.5"/>
          <path  d="M196.19,138.57l.277,6.451-4.3-.016.285-6.452,3.741.017" fill="#ff0" stroke="#000" stroke-width="0.5"/>
          <path  d="M190.94,141.56l.131,3.477-4.126,0,.116-3.479h3.878Z" fill="#ff0" stroke="#000" stroke-width="0.5"/>
          <path  d="M190.94,141.56l.131,3.477-4.126,0,.116-3.479h3.878Z" transform="translate(10.609)" fill="#ff0" stroke="#000" stroke-width="0.5"/>
          <path  d="M186.3,139.04l1.2,0v.872h.878v-.893l1.229,0v.889h.879v-.893l1.23,0,0,2.012a.516.516,0,0,1-.536.519h-4.317a.557.557,0,0,1-.559-.526l0-1.989h0Z" fill="#ff0" stroke="#000" stroke-width="0.5"/>
          <path  d="M186.3,139.04l1.2,0v.872h.878v-.893l1.229,0v.889h.879v-.893l1.23,0,0,2.012a.516.516,0,0,1-.536.519h-4.317a.557.557,0,0,1-.559-.526l0-1.989h0Z" transform="translate(10.609)" fill="#ff0" stroke="#000" stroke-width="0.5"/>
          <path  d="M193.9,140.61a.435.435,0,1,1,.866,0v1.536H193.9V140.61"/>
          <path  d="M188.57,142.84a.415.415,0,1,1,.826,0v1.187h-.826V142.84"/>
          <path  d="M188.57,142.84a.415.415,0,1,1,.826,0v1.187h-.826V142.84" transform="translate(10.641)" stroke="#000" stroke-width="0.5"/>
        </g>
        <g  transform="translate(0 46.32)">
          <path  d="M190.19,154.43c.135-5.521,4.052-6.828,4.081-6.847s4.231,1.408,4.217,6.9l-8.3-.051" fill="#ff0"/>
          <path  d="M186.81,147.69l-.682,6.345,4.141.009c.04-5.249,3.974-6.122,4.069-6.1.089-.005,3.989,1.161,4.093,6.1h4.151l-.75-6.393-15.022.038v0Z" fill="#ff0" stroke="#000" stroke-width="0.5"/>
          <path  d="M185.85,154.06H202.8a.8.8,0,0,1,0,1.565H185.85a.8.8,0,0,1,0-1.565Z" fill="#ff0" stroke="#000" stroke-width="0.5"/>
          <path  d="M192.01,154.03c.018-3.313,2.262-4.25,2.274-4.248a4.434,4.434,0,0,1,2.361,4.248H192.01" fill="#ff0" stroke="#000" stroke-width="0.5"/>
          <path  d="M186.21,145.05h16.245a.71.71,0,0,1,0,1.409H186.21a.71.71,0,0,1,0-1.409Z" fill="#ff0" stroke="#000" stroke-width="0.5"/>
          <path  d="M186.55,146.47h15.538a.714.714,0,0,1,0,1.408H186.55a.714.714,0,0,1,0-1.408Z" fill="#ff0" stroke="#000" stroke-width="0.5"/>
          <path  d="M191.57,135.88l1.227,0v.871h.9v-.891l1.257,0v.887h.9v-.891H197.1l0,2.012a.522.522,0,0,1-.549.52h-4.411a.564.564,0,0,1-.571-.527l0-1.988h0Z" fill="#ff0" stroke="#000" stroke-width="0.5"/>
          <path  d="M196.19,138.57l.277,6.451-4.3-.016.285-6.452,3.741.017" fill="#ff0" stroke="#000" stroke-width="0.5"/>
          <path  d="M190.94,141.56l.131,3.477-4.126,0,.116-3.479h3.878Z" fill="#ff0" stroke="#000" stroke-width="0.5"/>
          <path  d="M190.94,141.56l.131,3.477-4.126,0,.116-3.479h3.878Z" transform="translate(10.609)" fill="#ff0" stroke="#000" stroke-width="0.5"/>
          <path  d="M186.3,139.04l1.2,0v.872h.878v-.893l1.229,0v.889h.879v-.893l1.23,0,0,2.012a.516.516,0,0,1-.536.519h-4.317a.557.557,0,0,1-.559-.526l0-1.989h0Z" fill="#ff0" stroke="#000" stroke-width="0.5"/>
          <path  d="M186.3,139.04l1.2,0v.872h.878v-.893l1.229,0v.889h.879v-.893l1.23,0,0,2.012a.516.516,0,0,1-.536.519h-4.317a.557.557,0,0,1-.559-.526l0-1.989h0Z" transform="translate(10.609)" fill="#ff0" stroke="#000" stroke-width="0.5"/>
          <path  d="M193.9,140.61a.435.435,0,1,1,.866,0v1.536H193.9V140.61"/>
          <path  d="M188.57,142.84a.415.415,0,1,1,.826,0v1.187h-.826V142.84"/>
          <path  d="M188.57,142.84a.415.415,0,1,1,.826,0v1.187h-.826V142.84" transform="translate(10.641)" stroke="#000" stroke-width="0.5"/>
        </g>
        <g  transform="translate(-35.341 275.109) rotate(-45.202)">
          <path  d="M190.19,154.43c.135-5.521,4.052-6.828,4.081-6.847s4.231,1.408,4.217,6.9l-8.3-.051" fill="#ff0"/>
          <path  d="M186.81,147.69l-.682,6.345,4.141.009c.04-5.249,3.974-6.122,4.069-6.1.089-.005,3.989,1.161,4.093,6.1h4.151l-.75-6.393-15.022.038v0Z" fill="#ff0" stroke="#000" stroke-width="0.5"/>
          <path  d="M185.85,154.06H202.8a.8.8,0,0,1,0,1.565H185.85a.8.8,0,0,1,0-1.565Z" fill="#ff0" stroke="#000" stroke-width="0.5"/>
          <path  d="M192.01,154.03c.018-3.313,2.262-4.25,2.274-4.248a4.434,4.434,0,0,1,2.361,4.248H192.01" fill="#ff0" stroke="#000" stroke-width="0.5"/>
          <path  d="M186.21,145.05h16.245a.71.71,0,0,1,0,1.409H186.21a.71.71,0,0,1,0-1.409Z" fill="#ff0" stroke="#000" stroke-width="0.5"/>
          <path  d="M186.55,146.47h15.538a.714.714,0,0,1,0,1.408H186.55a.714.714,0,0,1,0-1.408Z" fill="#ff0" stroke="#000" stroke-width="0.5"/>
          <path  d="M191.57,135.88l1.227,0v.871h.9v-.891l1.257,0v.887h.9v-.891H197.1l0,2.012a.522.522,0,0,1-.549.52h-4.411a.564.564,0,0,1-.571-.527l0-1.988h0Z" fill="#ff0" stroke="#000" stroke-width="0.5"/>
          <path  d="M196.19,138.57l.277,6.451-4.3-.016.285-6.452,3.741.017" fill="#ff0" stroke="#000" stroke-width="0.5"/>
          <path  d="M190.94,141.56l.131,3.477-4.126,0,.116-3.479h3.878Z" fill="#ff0" stroke="#000" stroke-width="0.5"/>
          <path  d="M190.94,141.56l.131,3.477-4.126,0,.116-3.479h3.878Z" transform="translate(10.609)" fill="#ff0" stroke="#000" stroke-width="0.5"/>
          <path  d="M186.3,139.04l1.2,0v.872h.878v-.893l1.229,0v.889h.879v-.893l1.23,0,0,2.012a.516.516,0,0,1-.536.519h-4.317a.557.557,0,0,1-.559-.526l0-1.989h0Z" fill="#ff0" stroke="#000" stroke-width="0.5"/>
          <path  d="M186.3,139.04l1.2,0v.872h.878v-.893l1.229,0v.889h.879v-.893l1.23,0,0,2.012a.516.516,0,0,1-.536.519h-4.317a.557.557,0,0,1-.559-.526l0-1.989h0Z" transform="translate(10.609)" fill="#ff0" stroke="#000" stroke-width="0.5"/>
          <path  d="M193.9,140.61a.435.435,0,1,1,.866,0v1.536H193.9V140.61"/>
          <path  d="M188.57,142.84a.415.415,0,1,1,.826,0v1.187h-.826V142.84"/>
          <path  d="M188.57,142.84a.415.415,0,1,1,.826,0v1.187h-.826V142.84" transform="translate(10.641)" stroke="#000" stroke-width="0.5"/>
        </g>
      </g>
      <g  transform="translate(45.714)">
        <path  d="M190.19,154.43c.135-5.521,4.052-6.828,4.081-6.847s4.231,1.408,4.217,6.9l-8.3-.051" fill="#ff0"/>
        <path  d="M186.81,147.69l-.682,6.345,4.141.009c.04-5.249,3.974-6.122,4.069-6.1.089-.005,3.989,1.161,4.093,6.1h4.151l-.75-6.393-15.022.038v0Z" fill="#ff0" stroke="#000" stroke-width="0.5"/>
        <path  d="M185.85,154.06H202.8a.8.8,0,0,1,0,1.565H185.85a.8.8,0,0,1,0-1.565Z" fill="#ff0" stroke="#000" stroke-width="0.5"/>
        <path  d="M192.01,154.03c.018-3.313,2.262-4.25,2.274-4.248a4.434,4.434,0,0,1,2.361,4.248H192.01" fill="#ff0" stroke="#000" stroke-width="0.5"/>
        <path  d="M186.21,145.05h16.245a.71.71,0,0,1,0,1.409H186.21a.71.71,0,0,1,0-1.409Z" fill="#ff0" stroke="#000" stroke-width="0.5"/>
        <path  d="M186.55,146.47h15.538a.714.714,0,0,1,0,1.408H186.55a.714.714,0,0,1,0-1.408Z" fill="#ff0" stroke="#000" stroke-width="0.5"/>
        <path  d="M191.57,135.88l1.227,0v.871h.9v-.891l1.257,0v.887h.9v-.891H197.1l0,2.012a.522.522,0,0,1-.549.52h-4.411a.564.564,0,0,1-.571-.527l0-1.988h0Z" fill="#ff0" stroke="#000" stroke-width="0.5"/>
        <path  d="M196.19,138.57l.277,6.451-4.3-.016.285-6.452,3.741.017" fill="#ff0" stroke="#000" stroke-width="0.5"/>
        <path  d="M190.94,141.56l.131,3.477-4.126,0,.116-3.479h3.878Z" fill="#ff0" stroke="#000" stroke-width="0.5"/>
        <path  d="M190.94,141.56l.131,3.477-4.126,0,.116-3.479h3.878Z" transform="translate(10.609)" fill="#ff0" stroke="#000" stroke-width="0.5"/>
        <path  d="M186.3,139.04l1.2,0v.872h.878v-.893l1.229,0v.889h.879v-.893l1.23,0,0,2.012a.516.516,0,0,1-.536.519h-4.317a.557.557,0,0,1-.559-.526l0-1.989h0Z" fill="#ff0" stroke="#000" stroke-width="0.5"/>
        <path  d="M186.3,139.04l1.2,0v.872h.878v-.893l1.229,0v.889h.879v-.893l1.23,0,0,2.012a.516.516,0,0,1-.536.519h-4.317a.557.557,0,0,1-.559-.526l0-1.989h0Z" transform="translate(10.609)" fill="#ff0" stroke="#000" stroke-width="0.5"/>
        <path  d="M193.9,140.61a.435.435,0,1,1,.866,0v1.536H193.9V140.61"/>
        <path  d="M188.57,142.84a.415.415,0,1,1,.826,0v1.187h-.826V142.84"/>
        <path  d="M188.57,142.84a.415.415,0,1,1,.826,0v1.187h-.826V142.84" transform="translate(10.641)" stroke="#000" stroke-width="0.5"/>
      </g>
      <g  transform="translate(479.792) rotate(180)">
        <g >
          <path  d="M190.19-154.43c.135,5.521,4.052,6.828,4.081,6.847s4.231-1.408,4.217-6.9l-8.3.051" fill="#ff0"/>
          <path  d="M186.81-147.69l-.682-6.345,4.141-.009c.04,5.249,3.974,6.122,4.069,6.1.089.005,3.989-1.161,4.093-6.1h4.151l-.75,6.393-15.022-.038v0Z" fill="#ff0" stroke="#000" stroke-width="0.5"/>
          <path  d="M185.85-154.06H202.8a.728.728,0,0,0,.649-.784.726.726,0,0,0-.649-.781H185.85a.726.726,0,0,0-.649.781A.728.728,0,0,0,185.85-154.06Z" fill="#ff0" stroke="#000" stroke-width="0.5"/>
          <path  d="M192.01-154.03c.018,3.313,2.262,4.25,2.274,4.248a4.434,4.434,0,0,0,2.361-4.248H192.01" fill="#ff0" stroke="#000" stroke-width="0.5"/>
          <path  d="M186.21-145.05h16.245a.67.67,0,0,0,.623-.7.67.67,0,0,0-.623-.7H186.21a.669.669,0,0,0-.623.7A.67.67,0,0,0,186.21-145.05Z" fill="#ff0" stroke="#000" stroke-width="0.5"/>
          <path  d="M186.55-146.47h15.538a.658.658,0,0,0,.6-.7.659.659,0,0,0-.6-.7H186.55a.659.659,0,0,0-.6.7A.658.658,0,0,0,186.55-146.47Z" fill="#ff0" stroke="#000" stroke-width="0.5"/>
          <path  d="M191.57-135.88l1.227,0v-.871h.9v.891l1.257,0v-.887h.9v.891H197.1l0-2.012a.522.522,0,0,0-.549-.52h-4.411a.564.564,0,0,0-.571.527l0,1.988h0Z" fill="#ff0" stroke="#000" stroke-width="0.5"/>
          <path  d="M196.19-138.57l.277-6.451-4.3.016.285,6.452,3.741-.017" fill="#ff0" stroke="#000" stroke-width="0.5"/>
          <path  d="M190.94-141.56l.131-3.477-4.126,0,.116,3.479h3.878Z" fill="#ff0" stroke="#000" stroke-width="0.5"/>
          <path  d="M190.94-141.56l.131-3.477-4.126,0,.116,3.479h3.878Z" transform="translate(10.609)" fill="#ff0" stroke="#000" stroke-width="0.5"/>
          <path  d="M186.3-139.04l1.2,0v-.872h.878v.893l1.229,0v-.889h.879v.893l1.23,0,0-2.012a.516.516,0,0,0-.536-.519h-4.317a.557.557,0,0,0-.559.526l0,1.989h0Z" fill="#ff0" stroke="#000" stroke-width="0.5"/>
          <path  d="M186.3-139.04l1.2,0v-.872h.878v.893l1.229,0v-.889h.879v.893l1.23,0,0-2.012a.516.516,0,0,0-.536-.519h-4.317a.557.557,0,0,0-.559.526l0,1.989h0Z" transform="translate(10.609)" fill="#ff0" stroke="#000" stroke-width="0.5"/>
          <path  d="M193.9-140.61a.435.435,0,1,0,.866,0v-1.536H193.9v1.536"/>
          <path  d="M188.57-142.84a.415.415,0,1,0,.826,0v-1.187h-.826v1.187"/>
          <path  d="M188.57-142.84a.415.415,0,1,0,.826,0v-1.187h-.826v1.187" transform="translate(10.641)" stroke="#000" stroke-width="0.5"/>
        </g>
        <g  transform="translate(0 -46.32)">
          <path  d="M190.19-154.43c.135,5.521,4.052,6.828,4.081,6.847s4.231-1.408,4.217-6.9l-8.3.051" fill="#ff0"/>
          <path  d="M186.81-147.69l-.682-6.345,4.141-.009c.04,5.249,3.974,6.122,4.069,6.1.089.005,3.989-1.161,4.093-6.1h4.151l-.75,6.393-15.022-.038v0Z" fill="#ff0" stroke="#000" stroke-width="0.5"/>
          <path  d="M185.85-154.06H202.8a.728.728,0,0,0,.649-.784.726.726,0,0,0-.649-.781H185.85a.726.726,0,0,0-.649.781A.728.728,0,0,0,185.85-154.06Z" fill="#ff0" stroke="#000" stroke-width="0.5"/>
          <path  d="M192.01-154.03c.018,3.313,2.262,4.25,2.274,4.248a4.434,4.434,0,0,0,2.361-4.248H192.01" fill="#ff0" stroke="#000" stroke-width="0.5"/>
          <path  d="M186.21-145.05h16.245a.67.67,0,0,0,.623-.7.67.67,0,0,0-.623-.7H186.21a.669.669,0,0,0-.623.7A.67.67,0,0,0,186.21-145.05Z" fill="#ff0" stroke="#000" stroke-width="0.5"/>
          <path  d="M186.55-146.47h15.538a.658.658,0,0,0,.6-.7.659.659,0,0,0-.6-.7H186.55a.659.659,0,0,0-.6.7A.658.658,0,0,0,186.55-146.47Z" fill="#ff0" stroke="#000" stroke-width="0.5"/>
          <path  d="M191.57-135.88l1.227,0v-.871h.9v.891l1.257,0v-.887h.9v.891H197.1l0-2.012a.522.522,0,0,0-.549-.52h-4.411a.564.564,0,0,0-.571.527l0,1.988h0Z" fill="#ff0" stroke="#000" stroke-width="0.5"/>
          <path  d="M196.19-138.57l.277-6.451-4.3.016.285,6.452,3.741-.017" fill="#ff0" stroke="#000" stroke-width="0.5"/>
          <path  d="M190.94-141.56l.131-3.477-4.126,0,.116,3.479h3.878Z" fill="#ff0" stroke="#000" stroke-width="0.5"/>
          <path  d="M190.94-141.56l.131-3.477-4.126,0,.116,3.479h3.878Z" transform="translate(10.609)" fill="#ff0" stroke="#000" stroke-width="0.5"/>
          <path  d="M186.3-139.04l1.2,0v-.872h.878v.893l1.229,0v-.889h.879v.893l1.23,0,0-2.012a.516.516,0,0,0-.536-.519h-4.317a.557.557,0,0,0-.559.526l0,1.989h0Z" fill="#ff0" stroke="#000" stroke-width="0.5"/>
          <path  d="M186.3-139.04l1.2,0v-.872h.878v.893l1.229,0v-.889h.879v.893l1.23,0,0-2.012a.516.516,0,0,0-.536-.519h-4.317a.557.557,0,0,0-.559.526l0,1.989h0Z" transform="translate(10.609)" fill="#ff0" stroke="#000" stroke-width="0.5"/>
          <path  d="M193.9-140.61a.435.435,0,1,0,.866,0v-1.536H193.9v1.536"/>
          <path  d="M188.57-142.84a.415.415,0,1,0,.826,0v-1.187h-.826v1.187"/>
          <path  d="M188.57-142.84a.415.415,0,1,0,.826,0v-1.187h-.826v1.187" transform="translate(10.641)" stroke="#000" stroke-width="0.5"/>
        </g>
        <g  transform="translate(-35.341 -275.109) rotate(45.202)">
          <path  d="M190.191-154.431c.135,5.521,4.052,6.828,4.081,6.847s4.231-1.408,4.217-6.9l-8.3.051" fill="#ff0"/>
          <path  d="M186.811-147.691l-.682-6.345,4.141-.009c.04,5.249,3.974,6.123,4.069,6.1.089.005,3.989-1.161,4.093-6.1h4.151l-.75,6.393-15.022-.038v0Z" fill="#ff0" stroke="#000" stroke-width="0.5"/>
          <path  d="M185.851-154.061H202.8a.728.728,0,0,0,.649-.784.726.726,0,0,0-.649-.781H185.851a.726.726,0,0,0-.649.781A.728.728,0,0,0,185.851-154.061Z" fill="#ff0" stroke="#000" stroke-width="0.5"/>
          <path  d="M192.011-154.031c.018,3.313,2.262,4.25,2.274,4.248a4.434,4.434,0,0,0,2.361-4.248h-4.634" fill="#ff0" stroke="#000" stroke-width="0.5"/>
          <path  d="M186.211-145.051h16.245a.67.67,0,0,0,.623-.7.67.67,0,0,0-.623-.7H186.211a.669.669,0,0,0-.623.7A.67.67,0,0,0,186.211-145.051Z" fill="#ff0" stroke="#000" stroke-width="0.5"/>
          <path  d="M186.551-146.471h15.538a.658.658,0,0,0,.6-.7.659.659,0,0,0-.6-.7H186.551a.659.659,0,0,0-.6.7A.658.658,0,0,0,186.551-146.471Z" fill="#ff0" stroke="#000" stroke-width="0.5"/>
          <path  d="M191.571-135.881l1.227,0v-.871h.9v.891l1.257,0v-.887h.9v.891H197.1l0-2.012a.522.522,0,0,0-.549-.52h-4.411a.564.564,0,0,0-.571.527l0,1.988h0Z" fill="#ff0" stroke="#000" stroke-width="0.5"/>
          <path  d="M196.191-138.571l.277-6.451-4.3.016.285,6.452,3.741-.017" fill="#ff0" stroke="#000" stroke-width="0.5"/>
          <path  d="M190.941-141.561l.131-3.478-4.126,0,.116,3.479h3.878Z" fill="#ff0" stroke="#000" stroke-width="0.5"/>
          <path  d="M190.941-141.561l.131-3.478-4.126,0,.116,3.479h3.878Z" transform="translate(10.609)" fill="#ff0" stroke="#000" stroke-width="0.5"/>
          <path  d="M186.3-139.041l1.2,0v-.872h.878v.893l1.229,0v-.889h.879v.893l1.23,0,0-2.012a.516.516,0,0,0-.536-.519h-4.317a.557.557,0,0,0-.559.526l0,1.989h0Z" fill="#ff0" stroke="#000" stroke-width="0.5"/>
          <path  d="M186.3-139.041l1.2,0v-.872h.878v.893l1.229,0v-.889h.879v.893l1.23,0,0-2.012a.516.516,0,0,0-.536-.519h-4.317a.557.557,0,0,0-.559.526l0,1.989h0Z" transform="translate(10.609)" fill="#ff0" stroke="#000" stroke-width="0.5"/>
          <path  d="M193.9-140.611a.435.435,0,1,0,.866,0v-1.536H193.9v1.536"/>
          <path  d="M188.571-142.841a.415.415,0,1,0,.826,0v-1.187h-.826v1.187"/>
          <path  d="M188.571-142.841a.415.415,0,1,0,.826,0v-1.187h-.826v1.187" transform="translate(10.641)" stroke="#000" stroke-width="0.5"/>
        </g>
      </g>
      <g >
        <path  d="M232.636,202.406v.005a8.341,8.341,0,0,0,2.212,5.689,7.114,7.114,0,0,0,10.6.012,8.34,8.34,0,0,0,2.2-5.693V191.652l-14.992-.012-.027,10.766" fill="#039"/>
        <circle  cx="1.486" cy="1.486" r="1.486" transform="translate(234.588 194.249)" fill="#fff"/>
        <circle  cx="1.486" cy="1.486" r="1.486" transform="translate(242.906 194.256)" fill="#fff"/>
        <circle  cx="1.486" cy="1.486" r="1.486" transform="translate(238.739 198.249)" fill="#fff"/>
        <circle  cx="1.486" cy="1.486" r="1.486" transform="translate(234.588 202.43)" fill="#fff"/>
        <circle  cx="1.486" cy="1.486" r="1.486" transform="translate(242.897 202.419)" fill="#fff"/>
      </g>
      <g  transform="translate(0 -26.016)">
        <path  d="M232.636,202.406v.005a8.341,8.341,0,0,0,2.212,5.689,7.114,7.114,0,0,0,10.6.012,8.34,8.34,0,0,0,2.2-5.693V191.652l-14.992-.012-.027,10.766" fill="#039"/>
        <circle  cx="1.486" cy="1.486" r="1.486" transform="translate(234.588 194.249)" fill="#fff"/>
        <circle  cx="1.486" cy="1.486" r="1.486" transform="translate(242.906 194.256)" fill="#fff"/>
        <circle  cx="1.486" cy="1.486" r="1.486" transform="translate(238.739 198.249)" fill="#fff"/>
        <circle  cx="1.486" cy="1.486" r="1.486" transform="translate(234.588 202.43)" fill="#fff"/>
        <circle  cx="1.486" cy="1.486" r="1.486" transform="translate(242.897 202.419)" fill="#fff"/>
      </g>
      <g  transform="translate(-20.799)">
        <path  d="M232.636,202.406v.005a8.341,8.341,0,0,0,2.212,5.689,7.114,7.114,0,0,0,10.6.012,8.34,8.34,0,0,0,2.2-5.693V191.652l-14.992-.012-.027,10.766" fill="#039"/>
        <circle  cx="1.486" cy="1.486" r="1.486" transform="translate(234.588 194.249)" fill="#fff"/>
        <circle  cx="1.486" cy="1.486" r="1.486" transform="translate(242.906 194.256)" fill="#fff"/>
        <circle  cx="1.486" cy="1.486" r="1.486" transform="translate(238.739 198.249)" fill="#fff"/>
        <circle  cx="1.486" cy="1.486" r="1.486" transform="translate(234.588 202.43)" fill="#fff"/>
        <circle  cx="1.486" cy="1.486" r="1.486" transform="translate(242.897 202.419)" fill="#fff"/>
      </g>
      <g  transform="translate(20.745)">
        <path  d="M232.636,202.406v.005a8.341,8.341,0,0,0,2.212,5.689,7.114,7.114,0,0,0,10.6.012,8.34,8.34,0,0,0,2.2-5.693V191.652l-14.992-.012-.027,10.766" fill="#039"/>
        <circle  cx="1.486" cy="1.486" r="1.486" transform="translate(234.588 194.249)" fill="#fff"/>
        <circle  cx="1.486" cy="1.486" r="1.486" transform="translate(242.906 194.256)" fill="#fff"/>
        <circle  cx="1.486" cy="1.486" r="1.486" transform="translate(238.739 198.249)" fill="#fff"/>
        <circle  cx="1.486" cy="1.486" r="1.486" transform="translate(234.588 202.43)" fill="#fff"/>
        <circle  cx="1.486" cy="1.486" r="1.486" transform="translate(242.897 202.419)" fill="#fff"/>
      </g>
      <g  transform="translate(0 25.784)">
        <path  d="M232.636,202.406v.005a8.341,8.341,0,0,0,2.212,5.689,7.114,7.114,0,0,0,10.6.012,8.34,8.34,0,0,0,2.2-5.693V191.652l-14.992-.012-.027,10.766" fill="#039"/>
        <circle  cx="1.486" cy="1.486" r="1.486" transform="translate(234.588 194.249)" fill="#fff"/>
        <circle  cx="1.486" cy="1.486" r="1.486" transform="translate(242.906 194.256)" fill="#fff"/>
        <circle  cx="1.486" cy="1.486" r="1.486" transform="translate(238.739 198.249)" fill="#fff"/>
        <circle  cx="1.486" cy="1.486" r="1.486" transform="translate(234.588 202.43)" fill="#fff"/>
        <circle  cx="1.486" cy="1.486" r="1.486" transform="translate(242.897 202.419)" fill="#fff"/>
      </g>
    </g>
  </g>
</svg>
