<svg xmlns="http://www.w3.org/2000/svg" width="12" height="6" viewBox="0 0 12 6">
  <g  transform="translate(-2530 -75)">
    <path  d="M0,0H12V6H0Z" transform="translate(2530 75)" fill="red"/>
    <path  d="M0,0H12V4H0Z" transform="translate(2530 75)" fill="#005ce5"/>
    <path  d="M0,0H12V2H0Z" transform="translate(2530 75)" fill="#fff"/>
    <path  d="M3,1.052H2.96a1.75,1.75,0,0,0-.677.156h0l-.055.024.06.935A.984.984,0,0,0,3,3.052a.984.984,0,0,0,.713-.885l.059-.932-.055-.027h0A1.751,1.751,0,0,0,3,1.052H3Z" transform="translate(2530 75)" fill="#005ce5" fill-rule="evenodd"/>
    <path  d="M3.107-1.779l-.175.341-.113-.147-.295.39c.005.024.012.048.018.07a.222.222,0,0,0,.177.119c.064,0,.129-.052.193-.052s.129.052.193.052.129-.052.193-.052.129.052.193.052a.221.221,0,0,0,.177-.118q.011-.035.019-.072l-.295-.389-.113.147Zm-.193.774c-.064,0-.129.052-.193.052A.212.212,0,0,1,2.591-1c.012.025.025.05.039.074A.17.17,0,0,0,2.72-.9c.064,0,.129-.052.193-.052s.129.052.193.052.129-.052.193-.052.129.052.193.052a.169.169,0,0,0,.089-.027C3.6-.947,3.609-.971,3.621-1a.212.212,0,0,1-.128.043c-.064,0-.129-.052-.193-.052s-.129.052-.193.052-.129-.052-.193-.052Zm0,.109c-.064,0-.129.052-.193.052a.211.211,0,0,1-.04,0,.9.9,0,0,0,.427.306.9.9,0,0,0,.426-.306.212.212,0,0,1-.039,0C3.429-.845,3.364-.9,3.3-.9s-.129.052-.193.052S2.978-.9,2.913-.9Z" transform="translate(2529.894 78.478)" fill="#fff" fill-rule="evenodd"/>
    <g  transform="translate(2529.894 78.478)">
      <path  d="M2.816-2.3h.146l-.073.127" fill="#ffe500" fill-rule="evenodd"/>
      <path  d="M2.816,2.3h.146l-.073-.127" transform="translate(0 -4.517)" fill="#ffe500" fill-rule="evenodd"/>
    </g>
    <g  transform="translate(2529.894 78.478)">
      <g  transform="translate(0.435 0)">
        <path  d="M2.816-2.3h.146l-.073.127" fill="#ffe500" fill-rule="evenodd"/>
        <path  d="M2.816,2.3h.146l-.073-.127" transform="translate(0 -4.517)" fill="#ffe500" fill-rule="evenodd"/>
      </g>
      <g  transform="translate(0.218 0.291)">
        <path  d="M2.816-2.3h.146l-.073.127" fill="#ffe500" fill-rule="evenodd"/>
        <path  d="M2.816,2.3h.146l-.073-.127" transform="translate(0 -4.517)" fill="#ffe500" fill-rule="evenodd"/>
      </g>
    </g>
    <path  d="M2.5-2.212h0Zm-.717.157-.055.024.06.935A.984.984,0,0,0,2.5-.212.984.984,0,0,0,3.21-1.1l.059-.932-.055-.027-.055.928a.947.947,0,0,1-.662.86.947.947,0,0,1-.662-.86Z" transform="translate(2530.504 78.264)" fill="red" fill-rule="evenodd"/>
  </g>
</svg>
