<svg xmlns="http://www.w3.org/2000/svg" viewBox="0 0 7410 3900">
  <g  transform="translate(2745 -4115)">
    <rect  width="7410" height="3900" transform="translate(-2745 4115)" fill="#b22234"/>
    <path  d="M0,450H7410m0,600H0m0,600H7410m0,600H0m0,600H7410m0,600H0" transform="translate(-2745 4115)" stroke="#fff" stroke-width="300"/>
    <rect  width="2964" height="2100" transform="translate(-2745 4115)" fill="#3c3b6e"/>
    <g  transform="translate(-2745 4115)">
      <g >
        <g >
          <path  d="M247,90l70.534,217.082L132.873,172.918H361.127L176.466,307.082Z" fill="#fff"/>
          <path  d="M247,90l70.534,217.082L132.873,172.918H361.127L176.466,307.082Z" transform="translate(0 420)" fill="#fff"/>
          <path  d="M247,90l70.534,217.082L132.873,172.918H361.127L176.466,307.082Z" transform="translate(0 840)" fill="#fff"/>
          <path  d="M247,90l70.534,217.082L132.873,172.918H361.127L176.466,307.082Z" transform="translate(0 1260)" fill="#fff"/>
        </g>
        <path  d="M247,90l70.534,217.082L132.873,172.918H361.127L176.466,307.082Z" transform="translate(0 1680)" fill="#fff"/>
      </g>
      <g  transform="translate(247 210)">
        <path  d="M247,90l70.534,217.082L132.873,172.918H361.127L176.466,307.082Z" fill="#fff"/>
        <path  d="M247,90l70.534,217.082L132.873,172.918H361.127L176.466,307.082Z" transform="translate(0 420)" fill="#fff"/>
        <path  d="M247,90l70.534,217.082L132.873,172.918H361.127L176.466,307.082Z" transform="translate(0 840)" fill="#fff"/>
        <path  d="M247,90l70.534,217.082L132.873,172.918H361.127L176.466,307.082Z" transform="translate(0 1260)" fill="#fff"/>
      </g>
    </g>
    <g  transform="translate(-2251 4115)">
      <g >
        <g >
          <path  d="M247,90l70.534,217.082L132.873,172.918H361.127L176.466,307.082Z" fill="#fff"/>
          <path  d="M247,90l70.534,217.082L132.873,172.918H361.127L176.466,307.082Z" transform="translate(0 420)" fill="#fff"/>
          <path  d="M247,90l70.534,217.082L132.873,172.918H361.127L176.466,307.082Z" transform="translate(0 840)" fill="#fff"/>
          <path  d="M247,90l70.534,217.082L132.873,172.918H361.127L176.466,307.082Z" transform="translate(0 1260)" fill="#fff"/>
        </g>
        <path  d="M247,90l70.534,217.082L132.873,172.918H361.127L176.466,307.082Z" transform="translate(0 1680)" fill="#fff"/>
      </g>
      <g  transform="translate(247 210)">
        <path  d="M247,90l70.534,217.082L132.873,172.918H361.127L176.466,307.082Z" fill="#fff"/>
        <path  d="M247,90l70.534,217.082L132.873,172.918H361.127L176.466,307.082Z" transform="translate(0 420)" fill="#fff"/>
        <path  d="M247,90l70.534,217.082L132.873,172.918H361.127L176.466,307.082Z" transform="translate(0 840)" fill="#fff"/>
        <path  d="M247,90l70.534,217.082L132.873,172.918H361.127L176.466,307.082Z" transform="translate(0 1260)" fill="#fff"/>
      </g>
    </g>
    <g  transform="translate(-1757 4115)">
      <g >
        <g >
          <path  d="M247,90l70.534,217.082L132.873,172.918H361.127L176.466,307.082Z" fill="#fff"/>
          <path  d="M247,90l70.534,217.082L132.873,172.918H361.127L176.466,307.082Z" transform="translate(0 420)" fill="#fff"/>
          <path  d="M247,90l70.534,217.082L132.873,172.918H361.127L176.466,307.082Z" transform="translate(0 840)" fill="#fff"/>
          <path  d="M247,90l70.534,217.082L132.873,172.918H361.127L176.466,307.082Z" transform="translate(0 1260)" fill="#fff"/>
        </g>
        <path  d="M247,90l70.534,217.082L132.873,172.918H361.127L176.466,307.082Z" transform="translate(0 1680)" fill="#fff"/>
      </g>
      <g  transform="translate(247 210)">
        <path  d="M247,90l70.534,217.082L132.873,172.918H361.127L176.466,307.082Z" fill="#fff"/>
        <path  d="M247,90l70.534,217.082L132.873,172.918H361.127L176.466,307.082Z" transform="translate(0 420)" fill="#fff"/>
        <path  d="M247,90l70.534,217.082L132.873,172.918H361.127L176.466,307.082Z" transform="translate(0 840)" fill="#fff"/>
        <path  d="M247,90l70.534,217.082L132.873,172.918H361.127L176.466,307.082Z" transform="translate(0 1260)" fill="#fff"/>
      </g>
    </g>
    <g  transform="translate(-1263 4115)">
      <g >
        <g >
          <path  d="M247,90l70.534,217.082L132.873,172.918H361.127L176.466,307.082Z" fill="#fff"/>
          <path  d="M247,90l70.534,217.082L132.873,172.918H361.127L176.466,307.082Z" transform="translate(0 420)" fill="#fff"/>
          <path  d="M247,90l70.534,217.082L132.873,172.918H361.127L176.466,307.082Z" transform="translate(0 840)" fill="#fff"/>
          <path  d="M247,90l70.534,217.082L132.873,172.918H361.127L176.466,307.082Z" transform="translate(0 1260)" fill="#fff"/>
        </g>
        <path  d="M247,90l70.534,217.082L132.873,172.918H361.127L176.466,307.082Z" transform="translate(0 1680)" fill="#fff"/>
      </g>
      <g  transform="translate(247 210)">
        <path  d="M247,90l70.534,217.082L132.873,172.918H361.127L176.466,307.082Z" fill="#fff"/>
        <path  d="M247,90l70.534,217.082L132.873,172.918H361.127L176.466,307.082Z" transform="translate(0 420)" fill="#fff"/>
        <path  d="M247,90l70.534,217.082L132.873,172.918H361.127L176.466,307.082Z" transform="translate(0 840)" fill="#fff"/>
        <path  d="M247,90l70.534,217.082L132.873,172.918H361.127L176.466,307.082Z" transform="translate(0 1260)" fill="#fff"/>
      </g>
    </g>
    <g  transform="translate(-769 4115)">
      <g >
        <path  d="M247,90l70.534,217.082L132.873,172.918H361.127L176.466,307.082Z" fill="#fff"/>
        <path  d="M247,90l70.534,217.082L132.873,172.918H361.127L176.466,307.082Z" transform="translate(0 420)" fill="#fff"/>
        <path  d="M247,90l70.534,217.082L132.873,172.918H361.127L176.466,307.082Z" transform="translate(0 840)" fill="#fff"/>
        <path  d="M247,90l70.534,217.082L132.873,172.918H361.127L176.466,307.082Z" transform="translate(0 1260)" fill="#fff"/>
      </g>
      <path  d="M247,90l70.534,217.082L132.873,172.918H361.127L176.466,307.082Z" transform="translate(0 1680)" fill="#fff"/>
    </g>
    <g  transform="translate(-522 4325)">
      <path  d="M247,90l70.534,217.082L132.873,172.918H361.127L176.466,307.082Z" fill="#fff"/>
      <path  d="M247,90l70.534,217.082L132.873,172.918H361.127L176.466,307.082Z" transform="translate(0 420)" fill="#fff"/>
      <path  d="M247,90l70.534,217.082L132.873,172.918H361.127L176.466,307.082Z" transform="translate(0 840)" fill="#fff"/>
      <path  d="M247,90l70.534,217.082L132.873,172.918H361.127L176.466,307.082Z" transform="translate(0 1260)" fill="#fff"/>
    </g>
    <g  transform="translate(-275 4115)">
      <path  d="M247,90l70.534,217.082L132.873,172.918H361.127L176.466,307.082Z" fill="#fff"/>
      <path  d="M247,90l70.534,217.082L132.873,172.918H361.127L176.466,307.082Z" transform="translate(0 420)" fill="#fff"/>
      <path  d="M247,90l70.534,217.082L132.873,172.918H361.127L176.466,307.082Z" transform="translate(0 840)" fill="#fff"/>
      <path  d="M247,90l70.534,217.082L132.873,172.918H361.127L176.466,307.082Z" transform="translate(0 1260)" fill="#fff"/>
    </g>
    <path  d="M247,90l70.534,217.082L132.873,172.918H361.127L176.466,307.082Z" transform="translate(-275 5795)" fill="#fff"/>
  </g>
</svg>
