<svg xmlns="http://www.w3.org/2000/svg" id="Layer_1" width="24" height="24" stroke-width="1.5" color="#000" data-name="Layer 1" viewBox="0 0 24 24">
    <!-- Attribution: Modified from "electric-lightbulb" from https://github.com/Vectopus/Atlas-icons-font (MIT License) -->
    <defs id="defs1">
        <style id="style1">
            .cls-637a2287b95f902aafde8fbf-1{fill:none;stroke:currentColor;stroke-miterlimit:10}
        </style>
    </defs>
    <path id="path8" d="M8.18 18.68h7.64v1.91a1.91 1.91 0 0 1-1.91 1.91h-3.82a1.91 1.91 0 0 1-1.91-1.91v-1.91Z" class="cls-637a2287b95f902aafde8fbf-1" style="fill:#cecabf;fill-opacity:1"/>
    <path id="path7" d="M19.64 9.14a7.64 7.64 0 1 0-13.15 5.27 6.2 6.2 0 0 1 1.69 4.27h7.64a6.07 6.07 0 0 1 1.67-4.24 7.6 7.6 0 0 0 2.15-5.3Z" class="cls-637a2287b95f902aafde8fbf-1" style="fill:#e5da02;fill-opacity:1"/>
    <path id="path1" d="M19.64 9.14a7.64 7.64 0 1 0-13.15 5.27 6.2 6.2 0 0 1 1.69 4.27h7.64a6.07 6.07 0 0 1 1.67-4.24 7.6 7.6 0 0 0 2.15-5.3Z" class="cls-637a2287b95f902aafde8fbf-1"/>
    <path id="polygon1" d="m12 8.18-1.91 2.86H12z" class="cls-637a2287b95f902aafde8fbf-1"/>
    <path id="polygon2" d="m12 12.96 1.91-2.87H12z" class="cls-637a2287b95f902aafde8fbf-1"/>
    <path id="path2" d="M8.18 18.68h7.64v1.91a1.91 1.91 0 0 1-1.91 1.91h-3.82a1.91 1.91 0 0 1-1.91-1.91v-1.91Z" class="cls-637a2287b95f902aafde8fbf-1"/>
    <path id="line2" d="M.55 9.14h1.9" class="cls-637a2287b95f902aafde8fbf-1"/>
    <path id="line3" d="M3.41 1.5h1.91" class="cls-637a2287b95f902aafde8fbf-1"/>
    <path id="line4" d="M3.41 16.77h1.91" class="cls-637a2287b95f902aafde8fbf-1"/>
    <path id="line5" d="M23.45 9.14h-1.9" class="cls-637a2287b95f902aafde8fbf-1"/>
    <path id="line6" d="M20.59 16.77h-1.91" class="cls-637a2287b95f902aafde8fbf-1"/>
    <path id="line7" d="M20.59 1.5h-1.91" class="cls-637a2287b95f902aafde8fbf-1"/>
</svg>
