<svg xmlns="http://www.w3.org/2000/svg" width="35.417" height="35.478" viewBox="0 0 35.417 35.478">
  <g id="g138734" transform="translate(300.276 -44.497)">
    <ellipse id="ellipse138613" class="bg" cx="17.15" cy="17.295" rx="17.15" ry="17.295" transform="translate(-299.836 45.34)" fill="#d1d1d1"/>
    <path id="path138628" d="M-276.581,60.6l-1.018,3.488,3.2,1.018.727-3.343.146-.581-2.326-.291-.727-.29Zm-9.592,4.36-3.343,2.18,2.035,3.488,2.471-1.163-1.163-3.488V64.961Z" fill="#f6f0f0" fill-rule="evenodd"/>
    <path id="path138574" d="M-285.086,79.919a17.16,17.16,0,0,1-11.3-6.08A17.311,17.311,0,0,1-300,66.232a22.851,22.851,0,0,1-.091-6.448,17.186,17.186,0,0,1,7.427-11.9,20.854,20.854,0,0,1,7.632-3.057,42.2,42.2,0,0,1,4.63-.333,13.194,13.194,0,0,1,6.932,2.374,19.6,19.6,0,0,1,7.993,11.752,20.705,20.705,0,0,1,.463,7.426A15.973,15.973,0,0,1-277.5,79.432a21.306,21.306,0,0,1-4.932.538c-1.094.017-2.288-.006-2.653-.05Zm5.057-1.277a16.125,16.125,0,0,0,8.332-3.317,18.184,18.184,0,0,0,2.952-3.2,15.767,15.767,0,0,0,2.267-5.447,19.491,19.491,0,0,0-.131-6.809,18.867,18.867,0,0,0-4.716-9.281,15.2,15.2,0,0,0-7.574-4.5,17.2,17.2,0,0,0-4.242-.163,3.279,3.279,0,0,1-1.169,0,5.9,5.9,0,0,0-2.848.546c-5.3,1.741-9.132,5.223-10.862,9.866a19.334,19.334,0,0,0-1.125,7.834,15.845,15.845,0,0,0,12.614,14.294c.573.116,1.412.246,1.865.289a27.4,27.4,0,0,0,4.637-.119Zm-8.282-7.688a4.682,4.682,0,0,1-.624-1.1,11,11,0,0,0-1.006-2.114,14.213,14.213,0,0,0-2.184,1.865c-1.184,1.188-1.409,1.312-1.666.92-.116-.177-.117-.232-.01-.487a5.465,5.465,0,0,1,.7-.951,16.812,16.812,0,0,1,8.317-4.791,18.52,18.52,0,0,1,4.825-.6l2.062-.055.515-1.513a11.1,11.1,0,0,1,.673-1.689c.153-.17.206-.175,1.567-.131,1.479.048,2.161.168,2.312.409a9.073,9.073,0,0,1-.559,2.908l-.289,1.063.381.222a14.278,14.278,0,0,1,2.445,1.758c.529.508.578.583.524.8-.142.565-.433.583-1.1.07a10.622,10.622,0,0,0-3.717-2.1A11.4,11.4,0,0,0-279.7,64.8a17.752,17.752,0,0,0-2.928.146,20.443,20.443,0,0,0-2.952.7c-.111.062-.055.287.412,1.644.642,1.864.727,2.2.624,2.468-.077.2-.618.472-2.358,1.171-.911.366-1.073.369-1.412.026Zm1.635-1.233a6.663,6.663,0,0,0,.952-.442c.088-.082.052-.268-.194-1.005-.493-1.477-.788-2.19-.908-2.19a11.85,11.85,0,0,0-2.023,1.026c-.078.094.006.362.41,1.305.615,1.438.721,1.648.832,1.648a8.849,8.849,0,0,0,.93-.342Zm12.027-5.647a13.224,13.224,0,0,0,.681-2.608,5.841,5.841,0,0,0-1.081-.092l-1.023-.034-.391,1.173a6.284,6.284,0,0,0-.344,1.295c.027.07.161.124.319.128a3.867,3.867,0,0,1,.769.156c.7.21.925.206,1.07-.018Zm-12.916-6.155a.942.942,0,0,1-.71-.736,1.193,1.193,0,0,1,.38-1.294.844.844,0,0,1,1.107-.209.992.992,0,0,1,.582.987c0,1-.578,1.526-1.358,1.253Zm6.261-.984a.954.954,0,0,1-.673-.89.917.917,0,0,1,.989-1.016.9.9,0,0,1,.839.471.943.943,0,0,1-.417,1.382c-.372.19-.361.189-.738.053Z"/>
  </g>
</svg>
