<svg xmlns="http://www.w3.org/2000/svg" width="38.192" height="35.519" viewBox="0 0 38.192 35.519">
  <g id="g138756" transform="translate(260.006 -85.103)">
    <ellipse id="ellipse138600" class="bg" cx="18.313" cy="17.15" rx="18.313" ry="17.15" transform="translate(-259.286 86.035)" fill="#d1d1d1"/>
    <path id="path138622" d="M-248.967,107.255l5.087-.291.291,3.779-.872,2.616-1.163.727-1.308.581-1.6-2.471-.436-1.889.145-1.889Z" fill="#d67874" fill-rule="evenodd"/>
    <path id="path138588" d="M-244.09,120.534a20.614,20.614,0,0,1-7.737-2.576,15.271,15.271,0,0,1-6.567-6.514,16.484,16.484,0,0,1-1.531-5.075,36.534,36.534,0,0,1,0-4.9,18.332,18.332,0,0,1,2.338-6.939,22.67,22.67,0,0,1,6.9-6.812,17.59,17.59,0,0,1,4.725-1.991c.365-.087,1.335-.262,2.155-.388a15.379,15.379,0,0,1,5.181-.032,26.593,26.593,0,0,1,9.708,4.279,21.2,21.2,0,0,1,3.106,3.211,20.381,20.381,0,0,1,3.98,10.938,15.272,15.272,0,0,1-2.332,8.416,15.489,15.489,0,0,1-6.256,5.478,26.124,26.124,0,0,1-13.674,2.906Zm4.6-1.681a26.805,26.805,0,0,0,9.053-3.027,13.4,13.4,0,0,0,6.6-8.621,8.188,8.188,0,0,0,.259-2.906,11.372,11.372,0,0,0-.235-2.984,16.969,16.969,0,0,0-7.471-11.275,29.677,29.677,0,0,0-7.816-3.109,4.423,4.423,0,0,0-1.6-.045c-.518.049-1.669.089-2.558.09a9.406,9.406,0,0,0-5.264,1.276,18.6,18.6,0,0,0-7.9,7.251,16.526,16.526,0,0,0-2.12,8.341,14.855,14.855,0,0,0,.459,4.132c.988,4.048,3.382,6.813,7.865,9.084a17.741,17.741,0,0,0,5.72,1.822c.433.05.9.107,1.036.126a30.064,30.064,0,0,0,3.979-.154Zm-7.651-4.28a4.513,4.513,0,0,1-2.067-3.12,6.5,6.5,0,0,1-.224-2.155l-.005-1.342-1.634-.025c-1.867-.029-1.955-.058-1.853-.6.075-.4.214-.445,1.788-.589,10.666-.972,11.613-1.071,13.8-1.448,1.632-.281,2.46-.462,5.305-1.16,2.486-.61,2.8-.657,3.022-.458a.679.679,0,0,1,.135.832c-.154.236-.568.375-2.826.952a54.885,54.885,0,0,1-9.886,1.731c-.832.083-1.534.171-1.559.2a1.757,1.757,0,0,0,.058.573,16.737,16.737,0,0,1,.006,3.635,4.859,4.859,0,0,1-1.15,2.352,2.42,2.42,0,0,1-2.911.627Zm1.467-1.193a3.248,3.248,0,0,0,1.325-2.526,11.5,11.5,0,0,0-.175-3.032l-.111-.332-.448.019a1.415,1.415,0,0,0-.51.083,10.324,10.324,0,0,0,.022,1.583c.077,1.4.073,1.532-.06,1.679a.573.573,0,0,1-.946-.293,10.381,10.381,0,0,1-.128-1.376,8.2,8.2,0,0,0-.136-1.344c-.082-.156-.3-.178-.929-.092l-.385.053v1.129c0,2.993,1.186,5.117,2.478,4.449Zm1.223-11.33a.9.9,0,0,1-.271-.371.561.561,0,0,1,0-.566.957.957,0,0,1,.8-.544c.21,0,.742.5.742.7a1.211,1.211,0,0,1-.432.745.9.9,0,0,1-.839.035Zm4.041-.685a.727.727,0,0,1-.282-.574,1.059,1.059,0,0,1,.655-.881.849.849,0,0,1,1.009.5c.147.288.151.347.047.6a.838.838,0,0,1-1.429.354Z"/>
  </g>
</svg>
