<svg xmlns="http://www.w3.org/2000/svg" width="35.587" height="35.515" viewBox="0 0 35.587 35.515">
  <g id="g138728" transform="translate(341.283 -44.461)">
    <ellipse id="ellipse138596" class="bg" cx="17.15" cy="17.077" rx="17.15" ry="17.077" transform="translate(-340.676 45.34)" fill="#d1d1d1"/>
    <path id="path138620" d="M-331.81,69.9c.581,0,16.569-1.744,16.569-1.744l-1.017,1.889-3.052,2.907-4.651,1.308-3.488-1.017-2.907-1.163-1.453-1.308Z" fill="#d67874" fill-rule="evenodd"/>
    <path id="path138624" d="M-334.281,67.141l1.889,2.907,17.586-2.18,1.163-3.2-10.028,1.6Z" fill="#f6f0f0" fill-rule="evenodd"/>
    <path id="path138568" d="M-327.114,79.931a15.679,15.679,0,0,1-9.947-5.147,19.764,19.764,0,0,1-4.035-8.2,11.443,11.443,0,0,1-.187-2.943,13.322,13.322,0,0,1,.587-4.725,23.8,23.8,0,0,1,2.876-6.192,17.7,17.7,0,0,1,12.033-8.067,31.042,31.042,0,0,1,7.907.128,16.34,16.34,0,0,1,10.237,8.5,18.348,18.348,0,0,1,1.719,5.3,23.646,23.646,0,0,1,.123,5.513c-.575,4.7-2.649,8.911-5.625,11.408a16.22,16.22,0,0,1-3.468,2.224,20.381,20.381,0,0,1-4.426,1.606,15.333,15.333,0,0,1-5.015.639c-1.208.014-2.458,0-2.777-.041Zm4.228-1.334a19.1,19.1,0,0,0,11.28-4.928,17.048,17.048,0,0,0,4.178-9.325,34.218,34.218,0,0,0,0-4.883,16.718,16.718,0,0,0-3.43-8.09,14.813,14.813,0,0,0-8.459-5.173c-.456-.092-1.612-.246-2.57-.342a10.031,10.031,0,0,0-2.57-.08,16.628,16.628,0,0,0-12.283,7.653,21,21,0,0,0-3.064,7.642,18.5,18.5,0,0,0,.04,5.181,17.872,17.872,0,0,0,3.052,6.823,13.181,13.181,0,0,0,7.368,5,17.787,17.787,0,0,0,6.462.525Zm-2.736-3.946a11.03,11.03,0,0,1-2.029-.46,10.268,10.268,0,0,1-6.584-5.515l-.382-.766-.637.02c-.609.019-.642.01-.761-.2a.419.419,0,0,1-.02-.466.725.725,0,0,1,.3-.34c.523-.238,2.455-.48,6.754-.845,4.217-.358,5.523-.516,9.2-1.117a49.979,49.979,0,0,1,6.949-.9c.922-.009,1.033.005,1.14.151a.577.577,0,0,1-.133.823,1.685,1.685,0,0,1-.984.327c-.064.008-.187.239-.275.513a18.951,18.951,0,0,1-1.607,3.257,11.552,11.552,0,0,1-8.589,5.483,12.593,12.593,0,0,1-2.345.034Zm2.986-1.4a10.1,10.1,0,0,0,4.992-2.6,10.54,10.54,0,0,0,1.5-1.789,5.849,5.849,0,0,0-.861.123c-1.1.2-3.534.508-6.88.866-2.309.247-5.643.648-6.984.84-.194.028-.35.073-.348.1a7.131,7.131,0,0,0,1.585,1.189,10.182,10.182,0,0,0,6.992,1.264Zm-6.724-4.016c1.39-.181,4.086-.5,5.992-.707,5.182-.565,7.732-1,8.139-1.376a4.507,4.507,0,0,0,.718-1.326c.088-.248.089-.318.005-.35-.116-.045-1.959.216-4.235.6a100.913,100.913,0,0,1-10.772,1.294c-2,.165-3.673.317-3.708.34a4.644,4.644,0,0,0,.754,1.5c.151.207.324.352.419.352s1.3-.148,2.689-.329Zm-3.864-7.707a.741.741,0,0,1-.271-.759c.066-.209.454-.4,1.594-.775a2.382,2.382,0,0,0,.883-.39,10.519,10.519,0,0,0-1-.7,6.177,6.177,0,0,1-1.028-.777.589.589,0,0,1,.444-.912,10.484,10.484,0,0,1,3.338,2.035.426.426,0,0,1,.039.464c-.25.718-.849,1.109-2.5,1.628C-332.893,61.713-332.977,61.723-333.224,61.529Zm13.749-2.5c-.707-.119-.894-.491-.541-1.074a8.06,8.06,0,0,1,2.009-2.155.988.988,0,0,1,.588.489c.066.209-.05.482-.4.937-.161.211-.271.406-.244.432a5.781,5.781,0,0,0,1.009.054c1.656.008,2,.128,2,.7,0,.445-.159.565-.84.633a25.522,25.522,0,0,1-3.582-.016Z"/>
  </g>
</svg>
