<svg width="80" height="80" viewBox="0 0 80 80" fill="none" xmlns="http://www.w3.org/2000/svg">
<path d="M40 80C32.0888 80 24.3552 77.654 17.7772 73.2587C11.1992 68.8635 6.07233 62.6164 3.04482 55.3073C0.0173189 47.9983 -0.774798 39.9556 0.768611 32.1964C2.31202 24.4372 6.12165 17.3098 11.7157 11.7157C17.3098 6.12157 24.4372 2.31202 32.1964 0.768615C39.9556 -0.774793 47.9983 0.0172788 55.3074 3.04478C62.6164 6.07229 68.8635 11.1991 73.2588 17.7771C77.654 24.355 80 32.0886 80 39.9999C80 50.6085 75.7857 60.7828 68.2843 68.2843C60.7828 75.7857 50.6087 80 40 80V80ZM40 4.31007C32.9635 4.31007 26.0849 6.39666 20.2343 10.306C14.3837 14.2154 9.82368 19.772 7.13104 26.273C4.4384 32.774 3.73404 39.9274 5.10701 46.8287C6.47999 53.73 9.86862 60.0691 14.8444 65.0444C19.8202 70.0198 26.1597 73.4081 33.0611 74.7805C39.9625 76.1529 47.1159 75.4479 53.6167 72.7547C60.1174 70.0615 65.6736 65.5011 69.5825 59.6502C73.4913 53.7992 75.5774 46.9205 75.5768 39.884C75.5699 30.4508 71.8193 21.4061 65.1488 14.7361C58.4783 8.06612 49.4332 4.31621 40 4.31007V4.31007Z" fill="#065853" fill-opacity="0.1"/>
<path d="M40.0027 70.4316C33.9832 70.4316 28.099 68.6468 23.094 65.3026C18.0891 61.9583 14.1881 57.205 11.8846 51.6438C9.58108 46.0826 8.97834 39.9632 10.1527 34.0595C11.327 28.1557 14.2256 22.7326 18.482 18.4762C22.7384 14.2199 28.1614 11.3213 34.0651 10.147C39.9689 8.97264 46.0883 9.57542 51.6495 11.879C57.2108 14.1825 61.9641 18.0834 65.3083 23.0884C68.6525 28.0933 70.4374 33.9774 70.4374 39.9969C70.4397 43.9943 69.6541 47.9529 68.1254 51.6464C66.5967 55.34 64.355 58.696 61.5284 61.5226C58.7018 64.3492 55.3458 66.5911 51.6522 68.1197C47.9587 69.6484 44.0001 70.4339 40.0027 70.4316V70.4316ZM40.0027 13.8781C34.8592 13.8781 29.8313 15.4034 25.5546 18.2609C21.278 21.1185 17.9448 25.18 15.9764 29.9319C14.0081 34.6838 13.4931 39.9127 14.4966 44.9573C15.5 50.002 17.9768 54.6358 21.6138 58.2727C25.2508 61.9097 29.8846 64.3865 34.9292 65.39C39.9738 66.3934 45.2027 65.8784 49.9547 63.9101C54.7066 61.9418 58.7681 58.6086 61.6257 54.332C64.4832 50.0554 66.0085 45.0273 66.0085 39.8838C66.0046 32.9878 63.2635 26.3755 58.3873 21.4993C53.5111 16.6231 46.8986 13.8819 40.0027 13.8781V13.8781Z" fill="#065853" fill-opacity="0.1"/>
<path d="M39.9938 59.1455C36.1843 59.1455 32.4605 58.0157 29.293 55.8993C26.1256 53.7829 23.6569 50.7748 22.1991 47.2553C20.7413 43.7359 20.3598 39.8632 21.103 36.1269C21.8462 32.3907 23.6806 28.9588 26.3743 26.2651C29.068 23.5714 32.4999 21.737 36.2362 20.9938C39.9724 20.2506 43.8451 20.6321 47.3646 22.0899C50.8841 23.5477 53.8922 26.0164 56.0086 29.1838C58.125 32.3512 59.2546 36.0751 59.2546 39.8846C59.2462 44.9903 57.2142 49.8844 53.6039 53.4947C49.9937 57.105 45.0995 59.1371 39.9938 59.1455ZM39.9938 25.1657C37.058 25.1657 34.1882 26.0363 31.7472 27.6673C29.3062 29.2983 27.4037 31.6165 26.2802 34.3288C25.1567 37.0411 24.8628 40.0257 25.4355 42.905C26.0083 45.7844 27.422 48.4292 29.4979 50.5051C31.5738 52.581 34.2186 53.9948 37.098 54.5675C39.9773 55.1403 42.9619 54.8462 45.6742 53.7228C48.3864 52.5993 50.7047 50.6968 52.3357 48.2558C53.9667 45.8148 54.8373 42.9449 54.8373 40.0091C54.8235 36.0766 53.2552 32.3091 50.4745 29.5284C47.6938 26.7477 43.9263 25.1795 39.9938 25.1657Z" fill="#065853" fill-opacity="0.1"/>
</svg>
