<svg width="273" height="327" viewBox="0 0 273 327" fill="none" xmlns="http://www.w3.org/2000/svg" className="card">
<path d="M83.9102 287.873L84.8251 318.714L83.9102 287.873Z" fill="#E1E4E7"/>
<path d="M33.956 318.616L64.8349 317.711L63.9199 286.87L62.1215 226.122L31.2802 227.037L30.3652 196.195L33.0411 287.775L33.956 318.616V318.616Z" fill="#E1E4E7"/>
<path d="M62.1183 227.119L153.708 224.406L122.867 225.321L121.952 194.479L61.2034 196.278L30.3621 197.193L31.277 228.034L62.1183 227.119Z" fill="#E1E4E7"/>
<path d="M153.694 224.405L152.817 193.573L151.018 132.825L120.14 133.73L119.225 102.889L121.938 194.478L122.853 225.32L153.694 224.405Z" fill="#E1E4E7"/>
<path d="M151.031 132.824L211.779 131.026L210.864 100.185L119.237 102.888L120.152 133.729L151.031 132.824Z" fill="#E1E4E7"/>
<path d="M211.771 131.033L242.612 130.118L238.994 7.64904L208.153 8.56398L210.856 100.191L211.771 131.033V131.033Z" fill="#E1E4E7"/>
</svg>
