<svg width="10" height="6" viewBox="0 0 10 6" fill="none" xmlns="http://www.w3.org/2000/svg">
<path d="M5.61908 5.72725L9.73174 1.54567C9.81651 1.46358 9.884 1.36484 9.93011 1.25543C9.97622 1.14603 10 1.02824 10 0.909214C10 0.790185 9.97622 0.672398 9.93011 0.562993C9.884 0.453588 9.81651 0.354846 9.73174 0.272755C9.651 0.186564 9.55389 0.117946 9.44628 0.0710607C9.33868 0.0241752 9.22284 -8.85733e-07 9.10577 -8.75498e-07C8.9887 -8.65264e-07 8.87286 0.0241753 8.76525 0.0710608C8.65765 0.117946 8.56054 0.186565 8.4798 0.272755L4.99551 3.81543L1.51123 0.272755C1.34521 0.103956 1.12004 0.00912506 0.885256 0.00912508C0.650471 0.0091251 0.425304 0.103956 0.259286 0.272756C0.0932679 0.441555 4.87754e-07 0.670496 5.08624e-07 0.909214C5.29493e-07 1.14793 0.093268 1.37687 0.259286 1.54567L4.36714 5.72725C4.44788 5.81344 4.54499 5.88205 4.6526 5.92894C4.7602 5.97582 4.87604 6 4.99311 6C5.11018 6 5.22602 5.97582 5.33363 5.92894C5.44123 5.88205 5.53834 5.81344 5.61908 5.72725Z" fill="#4F526A" fill-opacity="0.8"/>
</svg>
