<?xml version="1.0" encoding="UTF-8" standalone="no"?>
<svg
   width="49.659718"
   height="45.533184"
   viewBox="0 0 49.659716 45.533185"
   version="1.1"
   id="svg1"
   sodipodi:docname="moocfiLogoNoText.svg"
   inkscape:version="1.3.2 (091e20ef0f, 2023-11-25, custom)"
   xmlns:inkscape="http://www.inkscape.org/namespaces/inkscape"
   xmlns:sodipodi="http://sodipodi.sourceforge.net/DTD/sodipodi-0.dtd"
   xmlns="http://www.w3.org/2000/svg"
   xmlns:svg="http://www.w3.org/2000/svg">
  <defs
     id="defs1" />
  <sodipodi:namedview
     id="namedview1"
     pagecolor="#ffffff"
     bordercolor="#111111"
     borderopacity="1"
     inkscape:showpageshadow="0"
     inkscape:pageopacity="0"
     inkscape:pagecheckerboard="1"
     inkscape:deskcolor="#d1d1d1"
     inkscape:zoom="2.970394"
     inkscape:cx="45.785171"
     inkscape:cy="22.892586"
     inkscape:window-width="1434"
     inkscape:window-height="1206"
     inkscape:window-x="6"
     inkscape:window-y="658"
     inkscape:window-maximized="0"
     inkscape:current-layer="svg1" />
  <g
     id="g1"
     transform="translate(-0.02528284,0.01015587)">
    <path
       id="Path_7345"
       d="M 36.9,62.184 C 25.072,60.11 16.7,52.142 15.454,41.777 a 20.894,20.894 0 0 1 3.72,-14.07 26.742,26.742 0 0 1 13.026,-9.364 25.262,25.262 0 0 1 9.2,-1.457 27.769,27.769 0 0 1 16.125,4.674 c 3.359,2.223 7.488,7.011 7.488,8.684 0,1.482 -1.889,2.555 -3.761,2.134 -1.111,-0.249 -1.511,-0.611 -3.018,-2.723 a 22.735,22.735 0 0 0 -13.166,-8.647 18.5,18.5 0 0 0 -5.86,-0.517 18.884,18.884 0 0 0 -6.018,0.6 C 25.044,23.24 19.28,28.7 17.518,35.945 a 18.351,18.351 0 0 0 0.36,9.225 c 2.316,6.749 7.7,11.464 15.448,13.541 1.581,0.424 2.449,0.5 6,0.5 3.6,0 4.405,-0.068 6.106,-0.52 5.287,-1.4 10.3,-4.793 12.872,-8.7 2.151,-3.271 2,-3.117 3.123,-3.117 1.95,0 3.588,1.081 3.588,2.367 0,1.607 -4.189,6.379 -7.495,8.538 a 29.722,29.722 0 0 1 -9.941,4.172 43.56,43.56 0 0 1 -10.673,0.238 z M 35.633,56.816 A 21.384,21.384 0 0 1 25.27,52.7 C 20.948,49.336 18.401,43.958 18.788,39.013 a 15.378,15.378 0 0 1 4.991,-10.274 c 10.084,-9.877 28.365,-6.132 32.633,6.684 a 17.291,17.291 0 0 1 0.241,8.472 C 54.316,52.3 45.352,57.814 35.637,56.816 Z m 6.068,-3.372 a 15.468,15.468 0 0 0 11,-10.314 14.358,14.358 0 0 0 -0.084,-7.251 C 50.844,30.237 45.1,25.907 38.71,25.386 29.116,24.6 21.19,30.475 20.627,38.78 a 12.979,12.979 0 0 0 4.173,10.476 16.774,16.774 0 0 0 9.3,4.644 23.633,23.633 0 0 0 7.6,-0.46 z m -9.688,-2.382 c -4.83,-1.2 -8.675,-5.071 -9.387,-9.451 A 10.569,10.569 0 0 1 23.306,36 c 0.916,-1.766 2.656,-2.309 4.175,-1.3 a 4.319,4.319 0 0 1 1.7,3.221 l 0.161,1.133 0.783,-2.039 c 1.1,-2.854 1.283,-3.162 1.961,-3.24 0.885,-0.1 1.146,0.414 1.316,2.606 l 0.154,1.994 0.889,-2.107 c 0.92,-2.181 1.59,-2.921 2.41,-2.665 1.045,0.326 1.19,0.8 1.439,4.672 0.131,2.039 0.28,3.75 0.331,3.8 a 5.328,5.328 0 0 0 0.844,-1.408 c 0.789,-1.573 1.248,-1.914 2.028,-1.5 0.684,0.36 0.595,0.814 -0.651,3.31 -1.55,3.106 -2.415,3.761 -3.622,2.74 -0.538,-0.455 -0.668,-0.792 -0.817,-2.1 -0.1,-0.859 -0.182,-2.526 -0.188,-3.7 -0.007,-1.235 -0.1,-2.05 -0.213,-1.926 a 34.046,34.046 0 0 0 -1.27,3.709 c -1.14,3.725 -1.484,4.353 -2.156,3.938 -0.4,-0.249 -0.459,-0.565 -0.917,-5.3 l -0.187,-1.926 -0.75,2.379 c -1.285,4.073 -1.518,4.635 -1.956,4.718 -0.918,0.174 -1.081,-0.322 -1.081,-3.286 0,-3.129 -0.286,-4.685 -1,-5.464 -0.641,-0.7 -1.294,-0.555 -1.866,0.406 a 7.863,7.863 0 0 0 -0.472,3.059 7.754,7.754 0 0 0 0.624,3.576 11.994,11.994 0 0 0 4.53,4.661 c 5.7,2.989 12.806,0.964 15.5,-4.419 a 6.494,6.494 0 0 0 0.965,-3.814 7.237,7.237 0 0 0 -0.821,-3.567 11.859,11.859 0 0 0 -6.1,-5.457 11.611,11.611 0 0 0 -10.986,1.624 3.594,3.594 0 0 1 -1.193,0.711 1.42,1.42 0 0 1 -1.022,-0.952 c 0,-0.447 1.542,-1.674 3.137,-2.495 a 12.5,12.5 0 0 1 6.655,-1.622 10.445,10.445 0 0 1 4.272,0.682 c 4.769,1.636 8.069,5.177 8.786,9.428 0.879,5.215 -2.748,10.672 -8.4,12.641 a 20.235,20.235 0 0 1 -8.279,0.333 z"
       transform="translate(-15.33,-16.886)"
       fill="#1a2333" />
  </g>
</svg>
