<svg xmlns="http://www.w3.org/2000/svg" width="142.742" height="45.523" viewBox="0 0 142.742 45.523">
  <g id="Group_1764" transform="translate(-1063 -261)">
    <g transform="translate(1063 261)">
      <path id="Path_7345" d="M36.9,62.184C25.072,60.11,16.7,52.142,15.454,41.777a20.894,20.894,0,0,1,3.72-14.07A26.742,26.742,0,0,1,32.2,18.343a25.262,25.262,0,0,1,9.2-1.457A27.769,27.769,0,0,1,57.525,21.56c3.359,2.223,7.488,7.011,7.488,8.684,0,1.482-1.889,2.555-3.761,2.134-1.111-.249-1.511-.611-3.018-2.723a22.735,22.735,0,0,0-13.166-8.647,18.5,18.5,0,0,0-5.86-.517,18.884,18.884,0,0,0-6.018.6C25.044,23.24,19.28,28.7,17.518,35.945a18.351,18.351,0,0,0,.36,9.225c2.316,6.749,7.7,11.464,15.448,13.541,1.581.424,2.449.5,6,.5,3.6,0,4.405-.068,6.106-.52,5.287-1.4,10.3-4.793,12.872-8.7,2.151-3.271,2-3.117,3.123-3.117,1.95,0,3.588,1.081,3.588,2.367,0,1.607-4.189,6.379-7.495,8.538a29.722,29.722,0,0,1-9.941,4.172,43.56,43.56,0,0,1-10.673.238Zm-1.267-5.368A21.384,21.384,0,0,1,25.27,52.7c-4.322-3.364-6.869-8.742-6.482-13.687a15.378,15.378,0,0,1,4.991-10.274c10.084-9.877,28.365-6.132,32.633,6.684a17.291,17.291,0,0,1,.241,8.472C54.316,52.3,45.352,57.814,35.637,56.816Zm6.068-3.372a15.468,15.468,0,0,0,11-10.314,14.358,14.358,0,0,0-.084-7.251C50.844,30.237,45.1,25.907,38.71,25.386,29.116,24.6,21.19,30.475,20.627,38.78A12.979,12.979,0,0,0,24.8,49.256,16.774,16.774,0,0,0,34.1,53.9a23.633,23.633,0,0,0,7.6-.46Zm-9.688-2.382c-4.83-1.2-8.675-5.071-9.387-9.451A10.569,10.569,0,0,1,23.306,36c.916-1.766,2.656-2.309,4.175-1.3a4.319,4.319,0,0,1,1.7,3.221l.161,1.133.783-2.039c1.1-2.854,1.283-3.162,1.961-3.24.885-.1,1.146.414,1.316,2.606l.154,1.994.889-2.107c.92-2.181,1.59-2.921,2.41-2.665,1.045.326,1.19.8,1.439,4.672.131,2.039.28,3.75.331,3.8a5.328,5.328,0,0,0,.844-1.408c.789-1.573,1.248-1.914,2.028-1.5.684.36.595.814-.651,3.31-1.55,3.106-2.415,3.761-3.622,2.74-.538-.455-.668-.792-.817-2.1-.1-.859-.182-2.526-.188-3.7-.007-1.235-.1-2.05-.213-1.926A34.046,34.046,0,0,0,34.736,41.2c-1.14,3.725-1.484,4.353-2.156,3.938-.4-.249-.459-.565-.917-5.3l-.187-1.926-.75,2.379c-1.285,4.073-1.518,4.635-1.956,4.718-.918.174-1.081-.322-1.081-3.286,0-3.129-.286-4.685-1-5.464-.641-.7-1.294-.555-1.866.406a7.863,7.863,0,0,0-.472,3.059,7.754,7.754,0,0,0,.624,3.576,11.994,11.994,0,0,0,4.53,4.661c5.7,2.989,12.806.964,15.5-4.419a6.494,6.494,0,0,0,.965-3.814,7.237,7.237,0,0,0-.821-3.567,11.859,11.859,0,0,0-6.1-5.457,11.611,11.611,0,0,0-10.986,1.624,3.594,3.594,0,0,1-1.193.711,1.42,1.42,0,0,1-1.022-.952c0-.447,1.542-1.674,3.137-2.495a12.5,12.5,0,0,1,6.655-1.622,10.445,10.445,0,0,1,4.272.682c4.769,1.636,8.069,5.177,8.786,9.428.879,5.215-2.748,10.672-8.4,12.641a20.235,20.235,0,0,1-8.279.333Z" transform="translate(-15.33 -16.886)" fill="#1a2333" />
    </g>
    <text transform="translate(1119.742 288.212)" fill="#1a2333" font-size="21" font-family="JosefinSans-Regular, Josefin Sans">
      <tspan x="0" y="0">MOOC.fi</tspan>
    </text>
  </g>
</svg>
