<svg width="10" height="6" viewBox="0 0 10 6" fill="none" xmlns="http://www.w3.org/2000/svg">
<path d="M4.38092 0.272756L0.268259 4.45433C0.18349 4.53642 0.116002 4.63516 0.0698894 4.74457C0.0237765 4.85397 -8.6929e-07 4.97176 -8.90101e-07 5.09079C-9.10913e-07 5.20981 0.0237765 5.3276 0.0698893 5.43701C0.116002 5.54641 0.18349 5.64515 0.268259 5.72725C0.348997 5.81344 0.446112 5.88205 0.553714 5.92894C0.661316 5.97582 0.777163 6 0.894229 6C1.0113 6 1.12714 5.97583 1.23474 5.92894C1.34235 5.88205 1.43946 5.81344 1.5202 5.72725L5.00449 2.18458L8.48877 5.72725C8.65479 5.89605 8.87996 5.99088 9.11474 5.99088C9.34953 5.99088 9.57469 5.89605 9.74071 5.72725C9.90673 5.55845 10 5.32951 10 5.09079C10 4.85207 9.90673 4.62313 9.74071 4.45433L5.63286 0.272756C5.55212 0.186566 5.45501 0.117948 5.3474 0.0710623C5.2398 0.0241767 5.12396 8.95901e-07 5.00689 8.75432e-07C4.88982 8.54964e-07 4.77398 0.0241766 4.66637 0.0710622C4.55877 0.117948 4.46166 0.186566 4.38092 0.272756Z" fill="#4F526A" fill-opacity="0.8"/>
</svg>
