<svg width="6" height="10" viewBox="0 0 6 10" fill="none" xmlns="http://www.w3.org/2000/svg">
<path d="M0.272755 5.61908L4.45433 9.73174C4.53642 9.81651 4.63516 9.884 4.74457 9.93011C4.85397 9.97622 4.97176 10 5.09079 10C5.20981 10 5.3276 9.97622 5.43701 9.93011C5.54641 9.884 5.64515 9.81651 5.72725 9.73174C5.81344 9.651 5.88205 9.55389 5.92894 9.44629C5.97582 9.33868 6 9.22284 6 9.10577C6 8.9887 5.97582 8.87286 5.92894 8.76525C5.88205 8.65765 5.81344 8.56054 5.72725 8.4798L2.18458 4.99551L5.72725 1.51123C5.89604 1.34521 5.99088 1.12004 5.99088 0.885256C5.99088 0.650472 5.89604 0.425304 5.72725 0.259287C5.55845 0.0932689 5.32951 1.45114e-06 5.09079 1.44366e-06C4.85207 1.43619e-06 4.62313 0.0932689 4.45433 0.259286L0.272755 4.36714C0.186565 4.44788 0.117947 4.54499 0.0710614 4.6526C0.0241759 4.7602 6.11026e-08 4.87604 5.97066e-08 4.99311C5.83106e-08 5.11018 0.0241759 5.22602 0.0710614 5.33363C0.117947 5.44123 0.186565 5.53834 0.272755 5.61908V5.61908Z" fill="#4F526A" fill-opacity="0.8"/>
</svg>
