<svg width="6" height="10" viewBox="0 0 6 10" fill="none" xmlns="http://www.w3.org/2000/svg">
<path d="M5.72724 4.38092L1.54567 0.26826C1.46358 0.18349 1.36484 0.116003 1.25543 0.06989C1.14603 0.0237772 1.02824 -2.17322e-07 0.909213 -2.22525e-07C0.790185 -2.27728e-07 0.672398 0.0237772 0.562993 0.06989C0.453588 0.116003 0.354846 0.18349 0.272755 0.26826C0.186565 0.348998 0.117946 0.446113 0.0710607 0.553715C0.0241751 0.661317 -7.81214e-07 0.777163 -7.86331e-07 0.89423C-7.91448e-07 1.0113 0.0241751 1.12714 0.0710607 1.23474C0.117946 1.34235 0.186565 1.43946 0.272754 1.5202L3.81542 5.00449L0.272754 8.48877C0.103955 8.65479 0.00912387 8.87996 0.00912386 9.11474C0.00912386 9.34953 0.103955 9.5747 0.272754 9.74071C0.441554 9.90673 0.670495 10 0.909213 10C1.14793 10 1.37687 9.90673 1.54567 9.74071L5.72724 5.63286C5.81343 5.55212 5.88205 5.45501 5.92894 5.3474C5.97582 5.2398 6 5.12396 6 5.00689C6 4.88982 5.97582 4.77398 5.92894 4.66637C5.88205 4.55877 5.81343 4.46166 5.72724 4.38092V4.38092Z" fill="#4F526A" fill-opacity="0.8"/>
</svg>
