<svg width="272" height="136" viewBox="0 0 272 136" fill="none" xmlns="http://www.w3.org/2000/svg">
<path fill-rule="evenodd" clip-rule="evenodd" d="M10.9222 81.5503C10.9222 81.5503 9.95934 79.4055 8.23959 77.4507C7.01699 76.0605 5.41452 74.7903 3.54366 74.3147C2.78222 74.1211 1.94914 74.5993 1.68424 75.3819C1.41933 76.1645 1.82255 76.9569 2.58399 77.1506C3.94812 77.4975 5.0781 78.4771 5.96971 79.4908C7.42139 81.1412 8.23886 82.9484 8.23886 82.9484C8.55788 83.6562 9.41797 83.9178 10.1585 83.5321C10.899 83.146 11.241 82.2583 10.9222 81.5503Z" fill="#EFD149"/>
<path fill-rule="evenodd" clip-rule="evenodd" d="M228.878 74.4954C228.878 74.4954 228.7 72.7015 229.092 70.7429C229.334 69.5398 229.778 68.2553 230.694 67.3623C231.205 66.8639 231.162 66.057 230.598 65.5614C230.034 65.0658 229.161 65.0679 228.65 65.5664C227.393 66.7908 226.709 68.5188 226.379 70.1686C225.914 72.4887 226.13 74.6144 226.13 74.6144C226.201 75.3165 226.874 75.8598 227.632 75.8272C228.39 75.7942 228.948 75.1975 228.878 74.4954Z" fill="#54568C"/>
<path fill-rule="evenodd" clip-rule="evenodd" d="M264.075 92.9478C264.075 92.9478 264.892 91.1406 266.344 89.4902C267.236 88.4765 268.366 87.4969 269.73 87.1499C270.491 86.9563 270.894 86.1639 270.629 85.3813C270.365 84.5987 269.531 84.1205 268.77 84.3141C266.899 84.7897 265.297 86.0599 264.074 87.45C262.354 89.4049 261.391 91.5497 261.391 91.5497C261.073 92.2577 261.415 93.1454 262.155 93.5315C262.896 93.9172 263.756 93.6556 264.075 92.9478Z" fill="#EFD149"/>
<path fill-rule="evenodd" clip-rule="evenodd" d="M105.218 20.1912C105.379 20.1372 105.54 20.0796 105.701 20.0189C106.699 19.6406 107.704 19.1661 108.133 18.4181C108.994 16.9193 108.383 15.8776 107.868 15.5788C107.353 15.2799 106.151 15.2689 105.29 16.7679C104.86 17.516 104.953 18.6291 105.126 19.6888C105.153 19.8576 105.184 20.0252 105.218 20.1912ZM102.043 20.9356C101.389 21.0203 100.926 21.6229 101.01 22.2808C101.094 22.939 101.694 23.4044 102.348 23.32C102.348 23.32 102.823 23.2585 103.537 23.1133C103.769 23.8127 103.955 24.26 103.955 24.26C104.208 24.8724 104.909 25.1624 105.518 24.9075C106.127 24.6525 106.416 23.9482 106.162 23.3358C106.162 23.3358 106.031 23.019 105.856 22.5099C106.085 22.4354 106.316 22.3548 106.544 22.2681C108.093 21.6813 109.538 20.7803 110.204 19.62C112.085 16.3458 110.189 14.1499 109.064 13.4972C107.939 12.8442 105.099 12.2915 103.219 15.566C102.553 16.7257 102.498 18.435 102.766 20.0773C102.805 20.3181 102.85 20.557 102.9 20.7912C102.379 20.8923 102.043 20.9356 102.043 20.9356V20.9356Z" fill="#E5838C"/>
<path fill-rule="evenodd" clip-rule="evenodd" d="M162.218 131.191C162.379 131.137 162.54 131.08 162.701 131.019C163.699 130.641 164.704 130.166 165.133 129.418C165.994 127.919 165.383 126.878 164.868 126.579C164.353 126.28 163.151 126.269 162.29 127.768C161.86 128.516 161.953 129.629 162.126 130.689C162.153 130.858 162.184 131.025 162.218 131.191ZM159.043 131.936C158.389 132.02 157.926 132.623 158.01 133.281C158.094 133.939 158.694 134.404 159.348 134.32C159.348 134.32 159.823 134.258 160.537 134.113C160.769 134.813 160.955 135.26 160.955 135.26C161.208 135.872 161.909 136.162 162.518 135.908C163.127 135.652 163.416 134.948 163.162 134.336C163.162 134.336 163.031 134.019 162.856 133.51C163.085 133.435 163.316 133.355 163.544 133.268C165.093 132.681 166.538 131.78 167.204 130.62C169.085 127.346 167.189 125.15 166.064 124.497C164.939 123.844 162.099 123.292 160.219 126.566C159.553 127.726 159.498 129.435 159.766 131.077C159.805 131.318 159.85 131.557 159.9 131.791C159.379 131.892 159.043 131.936 159.043 131.936V131.936Z" fill="#EFD149"/>
<path fill-rule="evenodd" clip-rule="evenodd" d="M6.92589 57.25C6.80783 57.2187 6.6878 57.1893 6.56712 57.1623C5.81699 56.9951 5.02361 56.8841 4.46115 57.1701C3.33391 57.7428 3.27156 58.6239 3.45625 59.0123C3.64095 59.4007 4.35359 59.8877 5.48078 59.3146C6.04356 59.0289 6.44395 58.311 6.77502 57.5939C6.82778 57.4797 6.87801 57.3649 6.92589 57.25ZM9.12358 58.0623C9.54851 58.2718 10.0714 58.0881 10.2907 57.6522C10.5101 57.2161 10.343 56.692 9.9182 56.4823C9.9182 56.4823 9.61018 56.3305 9.12495 56.1341C9.27273 55.6135 9.34545 55.2659 9.34545 55.2659C9.44508 54.7902 9.14609 54.3331 8.67853 54.2457C8.21086 54.1585 7.75024 54.4739 7.65077 54.9497C7.65077 54.9497 7.59921 55.1959 7.49471 55.5769C7.32772 55.5311 7.15735 55.4883 6.98534 55.45C5.82173 55.1905 4.59108 55.1645 3.71854 55.608C1.2563 56.8595 1.48748 58.9596 1.89077 59.8079C2.29396 60.6563 3.76105 62.1283 6.22339 60.8767C7.09557 60.4334 7.82822 59.4099 8.34117 58.2986C8.41644 58.1358 8.4874 57.9716 8.55366 57.8085C8.90587 57.9548 9.12358 58.0623 9.12358 58.0623V58.0623Z" fill="#54568C"/>
<path d="M78.5 15C77.2144 15 75.9577 15.3812 74.8888 16.0955C73.8199 16.8097 72.9868 17.8248 72.4948 19.0126C72.0028 20.2003 71.8741 21.5072 72.1249 22.7681C72.3757 24.029 72.9948 25.1872 73.9038 26.0962C74.8129 27.0052 75.971 27.6243 77.2319 27.8751C78.4928 28.1259 79.7997 27.9972 80.9874 27.5052C82.1752 27.0133 83.1903 26.1801 83.9045 25.1112C84.6188 24.0423 85 22.7856 85 21.5C85 19.7761 84.3152 18.1228 83.0962 16.9038C81.8772 15.6848 80.2239 15 78.5 15ZM78.5 27.2996C77.3566 27.2996 76.2388 26.9605 75.2881 26.3253C74.3373 25.69 73.5963 24.787 73.1588 23.7306C72.7212 22.6742 72.6068 21.5118 72.8299 20.3903C73.053 19.2689 73.6037 18.2388 74.4122 17.4303C75.2208 16.6218 76.2509 16.0712 77.3724 15.8482C78.4939 15.6251 79.6563 15.7397 80.7127 16.1774C81.7691 16.615 82.672 17.3561 83.3071 18.3068C83.9423 19.2576 84.2813 20.3754 84.2812 21.5189C84.2801 23.0517 83.6706 24.5215 82.5867 25.6054C81.5027 26.6893 80.0329 27.2986 78.5 27.2996Z" fill="#205D7A"/>
<path d="M78.5003 16.5527C77.5222 16.5527 76.566 16.8428 75.7527 17.3862C74.9394 17.9296 74.3055 18.7021 73.9312 19.6058C73.5568 20.5095 73.4589 21.5038 73.6497 22.4632C73.8405 23.4226 74.3116 24.3038 75.0032 24.9955C75.6949 25.6872 76.5761 26.1582 77.5355 26.349C78.4949 26.5398 79.4893 26.4419 80.393 26.0675C81.2967 25.6932 82.0691 25.0593 82.6125 24.246C83.1559 23.4327 83.446 22.4765 83.446 21.4984C83.4464 20.8488 83.3187 20.2055 83.0703 19.6053C82.8219 19.0051 82.4576 18.4598 81.9983 18.0004C81.539 17.5411 80.9936 17.1768 80.3934 16.9284C79.7932 16.68 79.1499 16.5524 78.5003 16.5527ZM78.5003 25.7427C77.6645 25.7427 76.8475 25.4948 76.1525 25.0305C75.4576 24.5661 74.9159 23.9061 74.5961 23.1339C74.2762 22.3618 74.1925 21.5121 74.3556 20.6923C74.5187 19.8726 74.9211 19.1196 75.5121 18.5286C76.1032 17.9375 76.8561 17.5351 77.6759 17.372C78.4957 17.2089 79.3454 17.2926 80.1175 17.6125C80.8897 17.9323 81.5497 18.474 82.0141 19.1689C82.4784 19.8639 82.7263 20.6809 82.7263 21.5168C82.7257 22.6374 82.2802 23.7119 81.4878 24.5042C80.6955 25.2966 79.6209 25.7421 78.5003 25.7427Z" fill="#205D7A"/>
<path d="M78.4995 18.3887C77.8805 18.3887 77.2754 18.5723 76.7606 18.9162C76.2459 19.2601 75.8448 19.7489 75.6079 20.3208C75.371 20.8927 75.309 21.522 75.4298 22.1292C75.5505 22.7363 75.8486 23.294 76.2864 23.7317C76.7241 24.1695 77.2818 24.4676 77.8889 24.5883C78.496 24.7091 79.1254 24.6471 79.6973 24.4102C80.2692 24.1733 80.758 23.7722 81.1019 23.2574C81.4458 22.7427 81.6294 22.1376 81.6294 21.5186C81.628 20.6889 81.2978 19.8936 80.7112 19.3069C80.1245 18.7203 79.3292 18.39 78.4995 18.3887ZM78.4995 23.9104C78.0225 23.9104 77.5561 23.7689 77.1594 23.5039C76.7628 23.2388 76.4536 22.8621 76.2711 22.4214C76.0885 21.9806 76.0407 21.4956 76.1338 21.0277C76.2269 20.5599 76.4566 20.1301 76.7939 19.7927C77.1313 19.4554 77.5611 19.2257 78.029 19.1326C78.4968 19.0395 78.9818 19.0873 79.4226 19.2699C79.8633 19.4524 80.24 19.7616 80.5051 20.1583C80.7701 20.5549 80.9116 21.0213 80.9116 21.4983C80.9094 22.1374 80.6545 22.7496 80.2026 23.2014C79.7508 23.6533 79.1386 23.9081 78.4995 23.9104Z" fill="#205D7A"/>
<path d="M224 89C223.407 89 222.827 89.176 222.333 89.5056C221.84 89.8352 221.455 90.3038 221.228 90.852C221.001 91.4001 220.942 92.0033 221.058 92.5853C221.173 93.1672 221.459 93.7018 221.879 94.1213C222.298 94.5409 222.833 94.8266 223.415 94.9424C223.997 95.0581 224.6 94.9987 225.148 94.7716C225.696 94.5446 226.165 94.1601 226.494 93.6667C226.824 93.1734 227 92.5934 227 92C227 91.2044 226.684 90.4413 226.121 89.8787C225.559 89.3161 224.796 89 224 89V89ZM224 94.6767C223.472 94.6767 222.956 94.5203 222.518 94.227C222.079 93.9338 221.737 93.5171 221.535 93.0295C221.333 92.542 221.28 92.0054 221.383 91.4878C221.486 90.9702 221.74 90.4948 222.113 90.1217C222.487 89.7485 222.962 89.4944 223.48 89.3915C223.997 89.2885 224.534 89.3414 225.021 89.5434C225.509 89.7454 225.926 90.0874 226.219 90.5262C226.512 90.9651 226.668 91.481 226.668 92.0087C226.668 92.7162 226.386 93.3945 225.886 93.8948C225.386 94.395 224.707 94.6763 224 94.6767V94.6767Z" fill="#54568C"/>
<path d="M224 89.7168C223.549 89.7168 223.108 89.8507 222.732 90.1015C222.357 90.3523 222.064 90.7088 221.892 91.1259C221.719 91.543 221.674 92.0019 221.762 92.4447C221.85 92.8875 222.067 93.2942 222.386 93.6135C222.706 93.9327 223.112 94.1501 223.555 94.2381C223.998 94.3262 224.457 94.281 224.874 94.1082C225.291 93.9355 225.647 93.6429 225.898 93.2675C226.149 92.8922 226.283 92.4509 226.283 91.9994C226.283 91.6996 226.224 91.4027 226.11 91.1257C225.995 90.8487 225.827 90.597 225.615 90.385C225.403 90.173 225.151 90.0048 224.874 89.8902C224.597 89.7755 224.3 89.7166 224 89.7168V89.7168ZM224 93.9583C223.615 93.9583 223.238 93.8439 222.917 93.6296C222.596 93.4153 222.346 93.1107 222.198 92.7543C222.051 92.3979 222.012 92.0057 222.087 91.6274C222.163 91.249 222.348 90.9015 222.621 90.6287C222.894 90.3559 223.242 90.1702 223.62 90.0949C223.998 90.0197 224.39 90.0583 224.747 90.2059C225.103 90.3535 225.408 90.6035 225.622 90.9243C225.836 91.245 225.951 91.6221 225.951 92.0079C225.951 92.5251 225.745 93.021 225.379 93.3867C225.014 93.7524 224.518 93.958 224 93.9583V93.9583Z" fill="#54568C"/>
<path d="M224 90.5645C223.714 90.5645 223.435 90.6492 223.197 90.8079C222.96 90.9666 222.774 91.1923 222.665 91.4562C222.556 91.7202 222.527 92.0106 222.583 92.2908C222.639 92.5711 222.776 92.8285 222.978 93.0305C223.18 93.2325 223.438 93.3701 223.718 93.4258C223.998 93.4816 224.289 93.453 224.553 93.3436C224.817 93.2343 225.042 93.0491 225.201 92.8116C225.36 92.574 225.444 92.2947 225.444 92.009C225.444 91.6261 225.291 91.259 225.021 90.9883C224.75 90.7175 224.383 90.5651 224 90.5645V90.5645ZM224 93.1129C223.78 93.1129 223.564 93.0476 223.381 92.9253C223.198 92.803 223.055 92.6291 222.971 92.4257C222.887 92.2223 222.865 91.9984 222.908 91.7825C222.951 91.5665 223.057 91.3682 223.213 91.2125C223.368 91.0568 223.567 90.9508 223.783 90.9078C223.999 90.8648 224.222 90.8869 224.426 90.9712C224.629 91.0554 224.803 91.1981 224.925 91.3812C225.048 91.5643 225.113 91.7795 225.113 91.9997C225.112 92.2946 224.994 92.5772 224.786 92.7857C224.577 92.9943 224.295 93.1119 224 93.1129V93.1129Z" fill="#54568C"/>
<path d="M24.5 93C23.2144 93 21.9577 93.3812 20.8888 94.0955C19.8199 94.8097 18.9868 95.8248 18.4948 97.0126C18.0028 98.2003 17.8741 99.5072 18.1249 100.768C18.3757 102.029 18.9948 103.187 19.9038 104.096C20.8129 105.005 21.971 105.624 23.2319 105.875C24.4928 106.126 25.7997 105.997 26.9874 105.505C28.1752 105.013 29.1903 104.18 29.9045 103.111C30.6188 102.042 31 100.786 31 99.5C31 97.7761 30.3152 96.1228 29.0962 94.9038C27.8772 93.6848 26.2239 93 24.5 93ZM24.5 105.3C23.3566 105.3 22.2388 104.961 21.2881 104.325C20.3373 103.69 19.5963 102.787 19.1588 101.731C18.7212 100.674 18.6068 99.5118 18.8299 98.3903C19.053 97.2689 19.6037 96.2388 20.4122 95.4303C21.2208 94.6218 22.2509 94.0712 23.3724 93.8482C24.4939 93.6251 25.6563 93.7397 26.7127 94.1774C27.7691 94.615 28.672 95.3561 29.3071 96.3068C29.9423 97.2576 30.2813 98.3754 30.2812 99.5189C30.2801 101.052 29.6706 102.522 28.5867 103.605C27.5027 104.689 26.0329 105.299 24.5 105.3Z" fill="#78CC8C"/>
<path d="M24.5003 94.5527C23.5222 94.5527 22.566 94.8428 21.7527 95.3862C20.9394 95.9296 20.3055 96.7021 19.9312 97.6058C19.5568 98.5095 19.4589 99.5038 19.6497 100.463C19.8405 101.423 20.3116 102.304 21.0032 102.995C21.6949 103.687 22.5761 104.158 23.5355 104.349C24.4949 104.54 25.4893 104.442 26.393 104.068C27.2967 103.693 28.0691 103.059 28.6125 102.246C29.1559 101.433 29.446 100.477 29.446 99.4984C29.4464 98.8488 29.3187 98.2055 29.0703 97.6053C28.8219 97.0051 28.4576 96.4598 27.9983 96.0004C27.539 95.5411 26.9936 95.1768 26.3934 94.9284C25.7932 94.68 25.1499 94.5524 24.5003 94.5527ZM24.5003 103.743C23.6645 103.743 22.8475 103.495 22.1525 103.03C21.4576 102.566 20.9159 101.906 20.5961 101.134C20.2762 100.362 20.1925 99.5121 20.3556 98.6923C20.5187 97.8726 20.9211 97.1196 21.5121 96.5286C22.1032 95.9375 22.8561 95.5351 23.6759 95.372C24.4957 95.2089 25.3454 95.2926 26.1175 95.6125C26.8897 95.9323 27.5497 96.474 28.0141 97.1689C28.4784 97.8639 28.7263 98.6809 28.7263 99.5168C28.7257 100.637 28.2802 101.712 27.4878 102.504C26.6955 103.297 25.6209 103.742 24.5003 103.743Z" fill="#78CC8C"/>
<path d="M24.4995 96.3887C23.8805 96.3887 23.2754 96.5723 22.7606 96.9162C22.2459 97.2601 21.8448 97.7489 21.6079 98.3208C21.371 98.8927 21.309 99.522 21.4298 100.129C21.5505 100.736 21.8486 101.294 22.2864 101.732C22.7241 102.169 23.2818 102.468 23.8889 102.588C24.496 102.709 25.1254 102.647 25.6973 102.41C26.2692 102.173 26.758 101.772 27.1019 101.257C27.4458 100.743 27.6294 100.138 27.6294 99.5186C27.628 98.6889 27.2978 97.8936 26.7112 97.3069C26.1245 96.7203 25.3292 96.39 24.4995 96.3887ZM24.4995 101.91C24.0225 101.91 23.5561 101.769 23.1594 101.504C22.7628 101.239 22.4536 100.862 22.2711 100.421C22.0885 99.9806 22.0407 99.4956 22.1338 99.0277C22.2269 98.5599 22.4566 98.1301 22.7939 97.7927C23.1313 97.4554 23.5611 97.2257 24.029 97.1326C24.4968 97.0395 24.9818 97.0873 25.4226 97.2699C25.8633 97.4524 26.24 97.7616 26.5051 98.1583C26.7701 98.5549 26.9116 99.0213 26.9116 99.4983C26.9094 100.137 26.6545 100.75 26.2026 101.201C25.7508 101.653 25.1386 101.908 24.4995 101.91Z" fill="#78CC8C"/>
<path d="M219 39C218.011 39 217.044 39.2933 216.222 39.8427C215.4 40.3921 214.759 41.173 214.381 42.0866C214.002 43.0002 213.903 44.0055 214.096 44.9755C214.289 45.9454 214.765 46.8363 215.464 47.5355C216.164 48.2348 217.055 48.711 218.025 48.9039C218.994 49.0968 220 48.9978 220.913 48.6194C221.827 48.241 222.608 47.6001 223.157 46.7779C223.707 45.9556 224 44.9889 224 44C224 42.6739 223.473 41.4021 222.536 40.4645C221.598 39.5268 220.326 39 219 39ZM219 48.4612C218.12 48.4612 217.261 48.2004 216.529 47.7117C215.798 47.2231 215.228 46.5285 214.891 45.7159C214.555 44.9033 214.467 44.0091 214.638 43.1464C214.81 42.2837 215.234 41.4914 215.856 40.8694C216.478 40.2475 217.27 39.824 218.133 39.6524C218.995 39.4809 219.889 39.569 220.702 39.9057C221.515 40.2423 222.209 40.8124 222.698 41.5437C223.186 42.2751 223.447 43.1349 223.447 44.0145C223.446 45.1936 222.977 46.3242 222.144 47.158C221.31 47.9917 220.179 48.4605 219 48.4612Z" fill="#78CC8C" fill-opacity="0.8"/>
<path d="M219 40.1953C218.248 40.1953 217.512 40.4184 216.887 40.8364C216.261 41.2545 215.773 41.8486 215.485 42.5438C215.197 43.2389 215.122 44.0039 215.269 44.7418C215.416 45.4798 215.778 46.1577 216.31 46.6897C216.842 47.2218 217.52 47.5841 218.258 47.7309C218.996 47.8777 219.761 47.8023 220.456 47.5144C221.151 47.2265 221.745 46.7388 222.163 46.1132C222.581 45.4876 222.804 44.7521 222.804 43.9997C222.805 43.5 222.707 43.0052 222.515 42.5435C222.324 42.0818 222.044 41.6623 221.691 41.3089C221.338 40.9556 220.918 40.6754 220.456 40.4843C219.995 40.2932 219.5 40.195 219 40.1953ZM219 47.2645C218.357 47.2645 217.729 47.0738 217.194 46.7167C216.66 46.3595 216.243 45.8518 215.997 45.2578C215.751 44.6638 215.686 44.0102 215.812 43.3796C215.937 42.749 216.247 42.1698 216.702 41.7152C217.156 41.2606 217.735 40.951 218.366 40.8255C218.997 40.7001 219.65 40.7645 220.244 41.0105C220.838 41.2565 221.346 41.6732 221.703 42.2078C222.06 42.7423 222.251 43.3709 222.251 44.0138C222.25 44.8758 221.908 45.7023 221.298 46.3119C220.689 46.9214 219.862 47.264 219 47.2645Z" fill="#78CC8C" fill-opacity="0.8"/>
<path d="M218.999 41.6074C218.523 41.6074 218.058 41.7486 217.662 42.0132C217.266 42.2777 216.957 42.6538 216.775 43.0937C216.593 43.5336 216.545 44.0177 216.638 44.4847C216.731 44.9518 216.96 45.3808 217.297 45.7175C217.634 46.0542 218.063 46.2835 218.53 46.3764C218.997 46.4693 219.481 46.4216 219.921 46.2394C220.361 46.0571 220.737 45.7486 221.001 45.3526C221.266 44.9567 221.407 44.4912 221.407 44.015C221.406 43.3768 221.152 42.7651 220.701 42.3138C220.249 41.8625 219.638 41.6085 218.999 41.6074ZM218.999 45.8549C218.632 45.8549 218.274 45.7461 217.969 45.5422C217.663 45.3383 217.426 45.0485 217.285 44.7095C217.145 44.3705 217.108 43.9974 217.18 43.6375C217.251 43.2776 217.428 42.947 217.687 42.6875C217.947 42.428 218.278 42.2513 218.637 42.1797C218.997 42.1081 219.37 42.1448 219.709 42.2853C220.048 42.4257 220.338 42.6635 220.542 42.9686C220.746 43.2738 220.855 43.6325 220.855 43.9995C220.853 44.491 220.657 44.962 220.309 45.3096C219.962 45.6571 219.491 45.8532 218.999 45.8549Z" fill="#78CC8C" fill-opacity="0.8"/>
<path d="M106.395 108.419L114.23 115.939L103.441 118.779L106.395 108.419Z" fill="#78CC8C" fill-opacity="0.5"/>
<path d="M109.772 120.582L101.937 113.061L112.727 110.222L109.772 120.582Z" fill="#78CC8C" fill-opacity="0.5"/>
<path d="M131.395 17.4195L139.23 24.9386L128.441 27.7793L131.395 17.4195Z" fill="#EFD149" fill-opacity="0.5"/>
<path d="M134.772 29.5816L126.937 22.0614L137.727 19.2223L134.772 29.5816Z" fill="#EFD149" fill-opacity="0.5"/>
<path d="M212.395 12.4195L220.23 19.9386L209.441 22.7793L212.395 12.4195Z" fill="#E0C341" fill-opacity="0.5"/>
<path d="M215.772 24.5816L207.937 17.0614L218.727 14.2223L215.772 24.5816Z" fill="#E0C341" fill-opacity="0.5"/>
<path d="M261.754 52.5143L270.112 60.5346L258.603 63.5647L261.754 52.5143Z" fill="#51309F" fill-opacity="0.4"/>
<path d="M265.357 65.4868L257 57.4652L268.509 54.4369L265.357 65.4868Z" fill="#51309F" fill-opacity="0.4"/>
<path fill-rule="evenodd" clip-rule="evenodd" d="M242.816 32.5296L249.117 43.4559L246.611 44.903L240.309 33.9786L242.816 32.5296Z" fill="#78CC8C" fill-opacity="0.5"/>
<path fill-rule="evenodd" clip-rule="evenodd" d="M249.451 34.3072L250.897 36.8156L239.977 43.1254L238.53 40.6189L249.451 34.3072Z" fill="#78CC8C" fill-opacity="0.5"/>
<path fill-rule="evenodd" clip-rule="evenodd" d="M60.2302 33.3557L64.4568 40.6844L62.7757 41.655L58.5487 34.3276L60.2302 33.3557Z" fill="#E68E34" fill-opacity="0.5"/>
<path fill-rule="evenodd" clip-rule="evenodd" d="M64.6805 34.548L65.6508 36.2305L58.3264 40.4627L57.3558 38.7815L64.6805 34.548Z" fill="#E68E34" fill-opacity="0.5"/>
<path fill-rule="evenodd" clip-rule="evenodd" d="M163.97 4.43585L169.165 13.4435L167.099 14.6365L161.904 5.6304L163.97 4.43585Z" fill="#1A2333" fill-opacity="0.5"/>
<path fill-rule="evenodd" clip-rule="evenodd" d="M169.44 5.90134L170.633 7.96921L161.63 13.171L160.437 11.1047L169.44 5.90134Z" fill="#1A2333" fill-opacity="0.5"/>
<path fill-rule="evenodd" clip-rule="evenodd" d="M75.734 120.522L81.9289 131.264L79.4649 132.686L73.2694 121.947L75.734 120.522Z" fill="#E68E34" fill-opacity="0.6"/>
<path fill-rule="evenodd" clip-rule="evenodd" d="M82.2565 122.27L83.6786 124.736L72.9433 130.939L71.5207 128.475L82.2565 122.27Z" fill="#E68E34" fill-opacity="0.6"/>
<path fill-rule="evenodd" clip-rule="evenodd" d="M183.324 113.315L187.511 120.575L185.845 121.537L181.658 114.278L183.324 113.315Z" fill="#08457A" fill-opacity="0.5"/>
<path fill-rule="evenodd" clip-rule="evenodd" d="M187.732 114.496L188.694 116.163L181.438 120.356L180.476 118.69L187.732 114.496Z" fill="#08457A" fill-opacity="0.5"/>
<path fill-rule="evenodd" clip-rule="evenodd" d="M26.573 55.393L31.2483 63.4995L29.3887 64.5732L24.7131 56.468L26.573 55.393Z" fill="#1F6964" fill-opacity="0.6"/>
<path fill-rule="evenodd" clip-rule="evenodd" d="M31.4957 56.7119L32.5689 58.5729L24.4671 63.2543L23.3935 61.3947L31.4957 56.7119Z" fill="#1F6964" fill-opacity="0.6"/>
<rect x="45.8135" y="16" width="3.97332" height="7.15197" transform="rotate(42.3036 45.8135 16)" fill="#EFD149"/>
<rect x="49.3813" y="104.258" width="3.47993" height="6.26388" transform="rotate(105 49.3813 104.258)" fill="#E68E34"/>
<rect x="147.83" y="113.795" width="5" height="9" transform="rotate(150 147.83 113.795)" fill="#E68E34"/>
<rect x="198.241" y="6.91797" width="4.06759" height="7.32167" transform="rotate(160.886 198.241 6.91797)" fill="#E68E34"/>
<rect x="48.062" y="75.7227" width="5" height="9" transform="rotate(165.745 48.062 75.7227)" fill="#E5838C"/>
<rect x="239.33" y="21.2949" width="3.69586" height="6.65255" transform="rotate(-150 239.33 21.2949)" fill="#205D7A"/>
<rect x="31.6919" y="30.7695" width="5" height="9" transform="rotate(138.777 31.6919 30.7695)" fill="#78CC8C"/>
<rect x="201.89" y="102.953" width="5" height="9" transform="rotate(174.162 201.89 102.953)" fill="#78CC8C"/>
<rect x="32.4429" y="123.514" width="3.45483" height="5.75805" transform="rotate(-135 32.4429 123.514)" fill="#E5838C"/>
<rect x="228.899" y="122.363" width="5" height="9" transform="rotate(135 228.899 122.363)" fill="#E5838C"/>
<rect x="61.8296" y="43.9883" width="5" height="9" transform="rotate(-165 61.8296 43.9883)" fill="#8C91F7"/>
<circle cx="182.333" cy="17.3333" r="2.33325" fill="#78CC8C" fill-opacity="0.6"/>
<circle cx="32.3333" cy="40.3333" r="2.33325" fill="#78CC8C" fill-opacity="0.6"/>
<circle cx="32.3333" cy="77.3333" r="2.33325" fill="#78CC8C" fill-opacity="0.6"/>
<circle cx="248.333" cy="75.3333" r="2.33325" fill="#E68E34"/>
<circle cx="205.333" cy="123.333" r="2.33325" fill="#E68E34"/>
<path d="M244 103C243.011 103 242.044 103.293 241.222 103.843C240.4 104.392 239.759 105.173 239.381 106.087C239.002 107 238.903 108.006 239.096 108.975C239.289 109.945 239.765 110.836 240.464 111.536C241.164 112.235 242.055 112.711 243.025 112.904C243.994 113.097 245 112.998 245.913 112.619C246.827 112.241 247.608 111.6 248.157 110.778C248.707 109.956 249 108.989 249 108C249 106.674 248.473 105.402 247.536 104.464C246.598 103.527 245.326 103 244 103ZM244 112.461C243.12 112.461 242.261 112.2 241.529 111.712C240.798 111.223 240.228 110.528 239.891 109.716C239.555 108.903 239.467 108.009 239.638 107.146C239.81 106.284 240.234 105.491 240.856 104.869C241.478 104.248 242.27 103.824 243.133 103.652C243.995 103.481 244.889 103.569 245.702 103.906C246.515 104.242 247.209 104.812 247.698 105.544C248.186 106.275 248.447 107.135 248.447 108.015C248.446 109.194 247.977 110.324 247.144 111.158C246.31 111.992 245.179 112.46 244 112.461Z" fill="#E5838C"/>
<path d="M244 104.195C243.248 104.195 242.512 104.418 241.887 104.836C241.261 105.254 240.773 105.849 240.485 106.544C240.197 107.239 240.122 108.004 240.269 108.742C240.416 109.48 240.778 110.158 241.31 110.69C241.842 111.222 242.52 111.584 243.258 111.731C243.996 111.878 244.761 111.802 245.456 111.514C246.151 111.226 246.745 110.739 247.163 110.113C247.581 109.488 247.804 108.752 247.804 108C247.805 107.5 247.707 107.005 247.515 106.543C247.324 106.082 247.044 105.662 246.691 105.309C246.338 104.956 245.918 104.675 245.456 104.484C244.995 104.293 244.5 104.195 244 104.195ZM244 111.265C243.357 111.265 242.729 111.074 242.194 110.717C241.66 110.359 241.243 109.852 240.997 109.258C240.751 108.664 240.686 108.01 240.812 107.38C240.937 106.749 241.247 106.17 241.702 105.715C242.156 105.261 242.735 104.951 243.366 104.826C243.997 104.7 244.65 104.764 245.244 105.011C245.838 105.257 246.346 105.673 246.703 106.208C247.06 106.742 247.251 107.371 247.251 108.014C247.25 108.876 246.908 109.702 246.298 110.312C245.689 110.921 244.862 111.264 244 111.265Z" fill="#E5838C"/>
<path d="M243.999 105.607C243.523 105.607 243.058 105.749 242.662 106.013C242.266 106.278 241.957 106.654 241.775 107.094C241.593 107.534 241.545 108.018 241.638 108.485C241.731 108.952 241.96 109.381 242.297 109.717C242.634 110.054 243.063 110.283 243.53 110.376C243.997 110.469 244.481 110.422 244.921 110.239C245.361 110.057 245.737 109.749 246.001 109.353C246.266 108.957 246.407 108.491 246.407 108.015C246.406 107.377 246.152 106.765 245.701 106.314C245.249 105.862 244.638 105.608 243.999 105.607ZM243.999 109.855C243.632 109.855 243.274 109.746 242.969 109.542C242.663 109.338 242.426 109.049 242.285 108.71C242.145 108.37 242.108 107.997 242.18 107.637C242.251 107.278 242.428 106.947 242.687 106.687C242.947 106.428 243.278 106.251 243.637 106.18C243.997 106.108 244.37 106.145 244.709 106.285C245.048 106.426 245.338 106.664 245.542 106.969C245.746 107.274 245.855 107.632 245.855 107.999C245.853 108.491 245.657 108.962 245.309 109.31C244.962 109.657 244.491 109.853 243.999 109.855Z" fill="#E5838C"/>
</svg>
