<svg width="1536" height="1486" viewBox="0 0 1536 1486" fill="none" xmlns="http://www.w3.org/2000/svg">
<path opacity="0.2" d="M1045 747C1045 893.203 922.038 1014 767.5 1014C612.962 1014 490 893.203 490 747C490 600.797 612.962 480 767.5 480C922.038 480 1045 600.797 1045 747Z" stroke="#497C54" stroke-width="80"/>
<path opacity="0.2" d="M1265.15 746.5C1265.15 1010.08 1043.87 1226 768.075 1226C492.283 1226 271 1010.08 271 746.5C271 482.923 492.283 267 768.075 267C1043.87 267 1265.15 482.923 1265.15 746.5Z" stroke="#497C54" stroke-width="80"/>
<path opacity="0.2" d="M1496 743C1496 1130.02 1171.32 1446 768 1446C364.679 1446 40 1130.02 40 743C40 355.981 364.679 40 768 40C1171.32 40 1496 355.981 1496 743Z" stroke="#497C54" stroke-width="80"/>
</svg>
