<svg width="20" height="20" viewBox="0 0 20 20" fill="none" xmlns="http://www.w3.org/2000/svg">
<path d="M10 20C8.02219 20 6.08879 19.4135 4.4443 18.3147C2.79981 17.2159 1.51809 15.6541 0.761209 13.8268C0.00433284 11.9996 -0.193701 9.98891 0.192152 8.0491C0.578004 6.10929 1.53041 4.32746 2.92894 2.92894C4.32746 1.53041 6.10929 0.578004 8.0491 0.192152C9.98891 -0.193701 11.9996 0.00433284 13.8268 0.761209C15.6541 1.51809 17.2159 2.79981 18.3147 4.4443C19.4135 6.08879 20 8.02219 20 10C19.9971 12.6513 18.9426 15.1931 17.0679 17.0679C15.1931 18.9426 12.6513 19.9971 10 20ZM10 11.06L12.3 13.36C12.4406 13.5006 12.6312 13.5795 12.83 13.5795C13.0288 13.5795 13.2194 13.5006 13.36 13.36C13.5006 13.2194 13.5795 13.0288 13.5795 12.83C13.5795 12.6312 13.5006 12.4406 13.36 12.3L11.06 10L13.36 7.7C13.5006 7.55944 13.5795 7.36879 13.5795 7.17C13.5795 6.97122 13.5006 6.78057 13.36 6.64C13.2194 6.49944 13.0288 6.42047 12.83 6.42047C12.6312 6.42047 12.4406 6.49944 12.3 6.64L10 8.94L7.7 6.64C7.55783 6.50752 7.36978 6.4354 7.17548 6.43883C6.98118 6.44226 6.7958 6.52097 6.65838 6.65838C6.52097 6.7958 6.44226 6.98118 6.43883 7.17548C6.4354 7.36978 6.50752 7.55783 6.64 7.7L8.94 10L6.64 12.3C6.5704 12.3696 6.51519 12.4522 6.47753 12.5432C6.43986 12.6341 6.42047 12.7316 6.42047 12.83C6.42047 12.9284 6.43986 13.0259 6.47753 13.1168C6.51519 13.2078 6.5704 13.2904 6.64 13.36C6.7096 13.4296 6.79223 13.4848 6.88317 13.5225C6.97411 13.5602 7.07157 13.5795 7.17 13.5795C7.26843 13.5795 7.3659 13.5602 7.45684 13.5225C7.54778 13.4848 7.6304 13.4296 7.7 13.36L10 11.06Z" fill="#B66757"/>
</svg>
