<svg width="1901" height="537" viewBox="0 0 1901 537" fill="none" xmlns="http://www.w3.org/2000/svg">
<circle cx="1896.5" cy="147.5" r="4.5" fill="#989CA3"/>
<circle cx="1896.5" cy="165.5" r="4.5" fill="#989CA3"/>
<circle cx="1896.5" cy="183.5" r="4.5" fill="#989CA3"/>
<circle cx="1896.5" cy="201.5" r="4.5" fill="#989CA3"/>
<path d="M1422.14 54.4063L1435.41 67.1445L1417.13 71.9569L1422.14 54.4063Z" fill="#08457A" fill-opacity="0.2"/>
<path d="M1427.86 75.0084L1414.59 62.2681L1432.87 57.4584L1427.86 75.0084Z" fill="#08457A" fill-opacity="0.2"/>
<path d="M35.4736 60.7038L44.876 69.7267L31.9289 73.1355L35.4736 60.7038Z" fill="#9E341F" fill-opacity="0.2"/>
<path d="M39.5262 75.2972L30.1251 66.2729L43.0728 62.866L39.5262 75.2972Z" fill="#9E341F" fill-opacity="0.2"/>
<path d="M1042.47 216.704L1051.88 225.727L1038.93 229.136L1042.47 216.704Z" fill="#9E341F" fill-opacity="0.2"/>
<path d="M1046.53 231.297L1037.13 222.273L1050.07 218.866L1046.53 231.297Z" fill="#9E341F" fill-opacity="0.2"/>
<path d="M443.495 323.566L457.322 336.835L438.282 341.848L443.495 323.566Z" fill="#E3C954" fill-opacity="0.6"/>
<path d="M675.52 2.50718L689.347 15.7761L670.307 20.7891L675.52 2.50718Z" fill="#B1A2D4" fill-opacity="0.6"/>
<path d="M186.352 143.844L169.999 153.837L169.999 134.149L186.352 143.844Z" fill="#9E341F" fill-opacity="0.2"/>
<path d="M1649.52 106.507L1663.35 119.776L1644.31 124.789L1649.52 106.507Z" fill="#1A2333" fill-opacity="0.4"/>
<path d="M1746.83 323.28L1733 310.009L1752.04 304.999L1746.83 323.28Z" fill="#065853" fill-opacity="0.5"/>
<path d="M1003.85 460.805L1013.81 470.358L1000.1 473.968L1003.85 460.805Z" fill="#51309F" fill-opacity="0.2"/>
<path d="M1008.15 476.253L998.191 466.698L1011.9 463.09L1008.15 476.253Z" fill="#51309F" fill-opacity="0.2"/>
<path d="M557.351 476.462L570.932 489.495L552.231 494.419L557.351 476.462Z" fill="#08457A" fill-opacity="0.2"/>
<path d="M563.204 497.541L549.624 484.505L568.327 479.584L563.204 497.541Z" fill="#08457A" fill-opacity="0.2"/>
<path d="M1080.83 41.5345L1089.29 49.6546L1077.64 52.7224L1080.83 41.5345Z" fill="#08457A" fill-opacity="0.2"/>
<path d="M1309.13 358.757L1301 350.948L1312.2 348L1309.13 358.757Z" fill="#08457A" fill-opacity="0.2"/>
<path d="M1557.95 433.41L1576.75 451.455L1550.86 458.273L1557.95 433.41Z" fill="#B1A2D4" fill-opacity="0.3"/>
<path d="M1566.05 462.598L1547.25 444.55L1573.15 437.736L1566.05 462.598Z" fill="#B1A2D4" fill-opacity="0.3"/>
<circle cx="82.5" cy="306.5" r="4.5" fill="#1A2333" fill-opacity="0.3"/>
<circle cx="816.5" cy="5.5" r="4.5" fill="#1A2333" fill-opacity="0.3"/>
<circle cx="1824.5" cy="147.5" r="4.5" fill="#989CA3"/>
<circle cx="1100.5" cy="478.5" r="4.5" fill="#989CA3"/>
<circle cx="82.5" cy="324.5" r="4.5" fill="#1A2333" fill-opacity="0.3"/>
<circle cx="816.5" cy="23.5" r="4.5" fill="#1A2333" fill-opacity="0.3"/>
<circle cx="1824.5" cy="165.5" r="4.5" fill="#989CA3"/>
<circle cx="1100.5" cy="496.5" r="4.5" fill="#989CA3"/>
<circle cx="82.5" cy="342.5" r="4.5" fill="#1A2333" fill-opacity="0.3"/>
<circle cx="816.5" cy="41.5" r="4.5" fill="#1A2333" fill-opacity="0.3"/>
<circle cx="1824.5" cy="183.5" r="4.5" fill="#989CA3"/>
<circle cx="1100.5" cy="514.5" r="4.5" fill="#989CA3"/>
<circle cx="82.5" cy="360.5" r="4.5" fill="#1A2333" fill-opacity="0.3"/>
<circle cx="816.5" cy="59.5" r="4.5" fill="#1A2333" fill-opacity="0.3"/>
<circle cx="1824.5" cy="201.5" r="4.5" fill="#989CA3"/>
<circle cx="1100.5" cy="532.5" r="4.5" fill="#989CA3"/>
<circle cx="154.5" cy="306.5" r="4.5" fill="#1A2333" fill-opacity="0.3"/>
<circle cx="888.5" cy="5.5" r="4.5" fill="#1A2333" fill-opacity="0.3"/>
<circle cx="1172.5" cy="478.5" r="4.5" fill="#989CA3"/>
<circle cx="190.5" cy="306.5" r="4.5" fill="#1A2333" fill-opacity="0.3"/>
<circle cx="924.5" cy="5.5" r="4.5" fill="#1A2333" fill-opacity="0.3"/>
<circle cx="1208.5" cy="478.5" r="4.5" fill="#989CA3"/>
<circle cx="154.5" cy="324.5" r="4.5" fill="#1A2333" fill-opacity="0.3"/>
<circle cx="888.5" cy="23.5" r="4.5" fill="#1A2333" fill-opacity="0.3"/>
<circle cx="1172.5" cy="496.5" r="4.5" fill="#989CA3"/>
<circle cx="190.5" cy="324.5" r="4.5" fill="#1A2333" fill-opacity="0.3"/>
<circle cx="924.5" cy="23.5" r="4.5" fill="#1A2333" fill-opacity="0.3"/>
<circle cx="1208.5" cy="496.5" r="4.5" fill="#989CA3"/>
<circle cx="154.5" cy="342.5" r="4.5" fill="#1A2333" fill-opacity="0.3"/>
<circle cx="172.5" cy="360.5" r="4.5" fill="#1A2333" fill-opacity="0.3"/>
<circle cx="888.5" cy="41.5" r="4.5" fill="#1A2333" fill-opacity="0.3"/>
<circle cx="1172.5" cy="514.5" r="4.5" fill="#989CA3"/>
<circle cx="190.5" cy="342.5" r="4.5" fill="#1A2333" fill-opacity="0.3"/>
<circle cx="924.5" cy="41.5" r="4.5" fill="#1A2333" fill-opacity="0.3"/>
<circle cx="1208.5" cy="514.5" r="4.5" fill="#989CA3"/>
<circle cx="154.5" cy="360.5" r="4.5" fill="#1A2333" fill-opacity="0.3"/>
<circle cx="888.5" cy="59.5" r="4.5" fill="#1A2333" fill-opacity="0.3"/>
<circle cx="1172.5" cy="532.5" r="4.5" fill="#989CA3"/>
<circle cx="190.5" cy="360.5" r="4.5" fill="#1A2333" fill-opacity="0.3"/>
<circle cx="924.5" cy="59.5" r="4.5" fill="#1A2333" fill-opacity="0.3"/>
<circle cx="1208.5" cy="532.5" r="4.5" fill="#989CA3"/>
<circle cx="297.5" cy="346.5" r="3.5" fill="#285053" fill-opacity="0.5"/>
<circle cx="661" cy="392" r="4" fill="#49292C" fill-opacity="0.2"/>
<circle cx="91" cy="230" r="4" fill="#49292C" fill-opacity="0.2"/>
<circle cx="488" cy="102" r="4" fill="#49292C" fill-opacity="0.5"/>
<circle cx="1234" cy="429" r="4" fill="#132F4C" fill-opacity="0.5"/>
<circle cx="1409" cy="219" r="4" fill="#132F4C" fill-opacity="0.5"/>
<circle cx="1266" cy="118" r="4" fill="#A84835" fill-opacity="0.4"/>
<circle cx="1703" cy="336" r="4" fill="#49292C"/>
<circle cx="847" cy="433" r="4" fill="#132F4C" fill-opacity="0.5"/>
<circle cx="305" cy="166" r="4" fill="#34262F" fill-opacity="0.5"/>
<circle cx="100.5" cy="306.5" r="4.5" fill="#1A2333" fill-opacity="0.3"/>
<circle cx="834.5" cy="5.5" r="4.5" fill="#1A2333" fill-opacity="0.3"/>
<circle cx="1842.5" cy="147.5" r="4.5" fill="#989CA3"/>
<circle cx="1118.5" cy="478.5" r="4.5" fill="#989CA3"/>
<circle cx="100.5" cy="324.5" r="4.5" fill="#1A2333" fill-opacity="0.3"/>
<circle cx="834.5" cy="23.5" r="4.5" fill="#1A2333" fill-opacity="0.3"/>
<circle cx="1842.5" cy="165.5" r="4.5" fill="#989CA3"/>
<circle cx="1118.5" cy="496.5" r="4.5" fill="#989CA3"/>
<circle cx="100.5" cy="342.5" r="4.5" fill="#1A2333" fill-opacity="0.3"/>
<circle cx="834.5" cy="41.5" r="4.5" fill="#1A2333" fill-opacity="0.3"/>
<circle cx="1842.5" cy="183.5" r="4.5" fill="#989CA3"/>
<circle cx="1118.5" cy="514.5" r="4.5" fill="#989CA3"/>
<circle cx="100.5" cy="360.5" r="4.5" fill="#1A2333" fill-opacity="0.3"/>
<circle cx="834.5" cy="59.5" r="4.5" fill="#1A2333" fill-opacity="0.3"/>
<circle cx="1842.5" cy="201.5" r="4.5" fill="#989CA3"/>
<circle cx="1118.5" cy="532.5" r="4.5" fill="#989CA3"/>
<circle cx="118.5" cy="306.5" r="4.5" fill="#1A2333" fill-opacity="0.3"/>
<circle cx="852.5" cy="5.5" r="4.5" fill="#1A2333" fill-opacity="0.3"/>
<circle cx="1860.5" cy="147.5" r="4.5" fill="#989CA3"/>
<circle cx="1136.5" cy="478.5" r="4.5" fill="#989CA3"/>
<circle cx="118.5" cy="324.5" r="4.5" fill="#1A2333" fill-opacity="0.3"/>
<circle cx="852.5" cy="23.5" r="4.5" fill="#1A2333" fill-opacity="0.3"/>
<circle cx="1860.5" cy="165.5" r="4.5" fill="#989CA3"/>
<circle cx="1136.5" cy="496.5" r="4.5" fill="#989CA3"/>
<circle cx="118.5" cy="342.5" r="4.5" fill="#1A2333" fill-opacity="0.3"/>
<circle cx="852.5" cy="41.5" r="4.5" fill="#1A2333" fill-opacity="0.3"/>
<circle cx="1860.5" cy="183.5" r="4.5" fill="#989CA3"/>
<circle cx="1136.5" cy="514.5" r="4.5" fill="#989CA3"/>
<circle cx="118.5" cy="360.5" r="4.5" fill="#1A2333" fill-opacity="0.3"/>
<circle cx="852.5" cy="59.5" r="4.5" fill="#1A2333" fill-opacity="0.3"/>
<circle cx="1860.5" cy="201.5" r="4.5" fill="#989CA3"/>
<circle cx="1136.5" cy="532.5" r="4.5" fill="#989CA3"/>
<circle cx="136.5" cy="306.5" r="4.5" fill="#1A2333" fill-opacity="0.3"/>
<circle cx="870.5" cy="5.5" r="4.5" fill="#1A2333" fill-opacity="0.3"/>
<circle cx="1878.5" cy="147.5" r="4.5" fill="#989CA3"/>
<circle cx="1154.5" cy="478.5" r="4.5" fill="#989CA3"/>
<circle cx="172.5" cy="306.5" r="4.5" fill="#1A2333" fill-opacity="0.3"/>
<circle cx="906.5" cy="5.5" r="4.5" fill="#1A2333" fill-opacity="0.3"/>
<circle cx="1190.5" cy="478.5" r="4.5" fill="#989CA3"/>
<circle cx="136.5" cy="324.5" r="4.5" fill="#1A2333" fill-opacity="0.3"/>
<circle cx="870.5" cy="23.5" r="4.5" fill="#1A2333" fill-opacity="0.3"/>
<circle cx="1878.5" cy="165.5" r="4.5" fill="#989CA3"/>
<circle cx="1154.5" cy="496.5" r="4.5" fill="#989CA3"/>
<circle cx="172.5" cy="324.5" r="4.5" fill="#1A2333" fill-opacity="0.3"/>
<circle cx="906.5" cy="23.5" r="4.5" fill="#1A2333" fill-opacity="0.3"/>
<circle cx="1190.5" cy="496.5" r="4.5" fill="#989CA3"/>
<circle cx="136.5" cy="342.5" r="4.5" fill="#1A2333" fill-opacity="0.3"/>
<circle cx="870.5" cy="41.5" r="4.5" fill="#1A2333" fill-opacity="0.3"/>
<circle cx="1878.5" cy="183.5" r="4.5" fill="#989CA3"/>
<circle cx="1154.5" cy="514.5" r="4.5" fill="#989CA3"/>
<circle cx="172.5" cy="342.5" r="4.5" fill="#1A2333" fill-opacity="0.3"/>
<circle cx="906.5" cy="41.5" r="4.5" fill="#1A2333" fill-opacity="0.3"/>
<circle cx="1190.5" cy="514.5" r="4.5" fill="#989CA3"/>
<circle cx="136.5" cy="360.5" r="4.5" fill="#1A2333" fill-opacity="0.3"/>
<circle cx="870.5" cy="59.5" r="4.5" fill="#1A2333" fill-opacity="0.3"/>
<circle cx="1878.5" cy="201.5" r="4.5" fill="#989CA3"/>
<circle cx="1154.5" cy="532.5" r="4.5" fill="#989CA3"/>
<circle cx="906.5" cy="59.5" r="4.5" fill="#1A2333" fill-opacity="0.3"/>
<circle cx="1190.5" cy="532.5" r="4.5" fill="#989CA3"/>
<path d="M1484.43 338.292L1473.71 327.275L1470 330.887L1480.72 341.903L1484.43 338.292Z" fill="#1A2333"/>
<path d="M1480.72 341.897L1484.33 345.609L1488.04 341.999L1495.34 334.889L1491.73 331.182L1495.44 327.572L1484.43 338.287L1480.72 341.897V341.897Z" fill="#1A2333"/>
<path d="M1495.34 334.89L1506.06 345.899L1502.45 342.192L1506.16 338.582L1499.05 331.28L1495.44 327.573L1491.73 331.183L1495.34 334.89Z" fill="#1A2333"/>
<path d="M1506.06 345.898L1509.77 342.294L1517.07 335.184L1513.46 331.471L1517.17 327.861L1506.16 338.581L1502.45 342.191L1506.06 345.898Z" fill="#1A2333"/>
<path d="M1517.08 335.184L1524.19 342.486L1527.89 338.877L1517.17 327.862L1513.46 331.472L1517.08 335.184Z" fill="#1A2333"/>
<path d="M1524.19 342.485L1527.8 346.192L1542.52 331.859L1538.91 328.152L1527.89 338.875L1524.19 342.485V342.485Z" fill="#1A2333"/>
<path d="M216.414 20.3396L204.854 8.45898L200.851 12.3535L212.412 24.2341L216.414 20.3396Z" fill="#1A2333" fill-opacity="0.5"/>
<path d="M212.413 24.2272L216.31 28.2312L220.308 24.338L228.182 16.6702L224.289 12.6724L228.287 8.7793L216.411 20.334L212.413 24.2272V24.2272Z" fill="#1A2333" fill-opacity="0.5"/>
<path d="M228.184 16.6705L239.745 28.5431L235.851 24.5454L239.849 20.6522L232.181 12.7774L228.288 8.77961L224.29 12.6728L228.184 16.6705Z" fill="#1A2333" fill-opacity="0.5"/>
<path d="M239.743 28.5417L243.744 24.6548L251.619 16.987L247.723 12.983L251.721 9.08984L239.848 20.6508L235.85 24.544L239.743 28.5417Z" fill="#1A2333" fill-opacity="0.5"/>
<path d="M251.62 16.9873L259.288 24.8622L263.286 20.969L251.722 9.09016L247.724 12.9833L251.62 16.9873Z" fill="#1A2333" fill-opacity="0.5"/>
<path d="M259.288 24.8629L263.181 28.8606L279.057 13.4032L275.164 9.40548L263.285 20.9697L259.288 24.8629V24.8629Z" fill="#1A2333" fill-opacity="0.5"/>
<path d="M672.659 185.623L671 191.605L680.175 194.15L681.834 188.167L672.659 185.623Z" fill="#51309F" fill-opacity="0.3"/>
<path d="M1.46775 428.86L0 434.152L8.11645 436.403L9.5842 431.111L1.46775 428.86Z" fill="#065853" fill-opacity="0.3"/>
<path d="M687.825 189.828L686.166 195.811L695.341 198.355L697 192.372L687.825 189.828Z" fill="#51309F" fill-opacity="0.3"/>
<path d="M14.8838 432.579L13.416 437.871L21.5325 440.122L23.0002 434.829L14.8838 432.579Z" fill="#065853" fill-opacity="0.3"/>
<path d="M679.797 194.16L677 203.34L683.581 205L686.378 195.821L688.203 189.84L691 180.66L684.419 179L681.622 188.172L679.797 194.16Z" fill="#51309F" fill-opacity="0.3"/>
<path d="M8.19751 436.411L6 444.531L11.171 446L13.3685 437.88L14.8025 432.589L17 424.469L11.829 423L9.63149 431.114L8.19751 436.411Z" fill="#065853" fill-opacity="0.3"/>
</svg>
