<svg width="1901" height="537" viewBox="0 0 1901 537" fill="none" xmlns="http://www.w3.org/2000/svg">
<path d="M1020.47 168.704L1029.88 177.727L1016.93 181.136L1020.47 168.704Z" fill="#9E341F" fill-opacity="0.2"/>
<path d="M1024.53 183.297L1015.13 174.273L1028.07 170.866L1024.53 183.297Z" fill="#9E341F" fill-opacity="0.2"/>
<circle cx="1896.5" cy="147.5" r="4.5" fill="#989CA3" fill-opacity="0.4"/>
<circle cx="1896.5" cy="165.5" r="4.5" fill="#989CA3" fill-opacity="0.4"/>
<circle cx="1896.5" cy="183.5" r="4.5" fill="#989CA3" fill-opacity="0.4"/>
<circle cx="1896.5" cy="201.5" r="4.5" fill="#989CA3" fill-opacity="0.4"/>
<path d="M1422.14 54.4063L1435.41 67.1445L1417.13 71.9569L1422.14 54.4063Z" fill="#08457A" fill-opacity="0.2"/>
<path d="M1427.86 75.0084L1414.59 62.2681L1432.87 57.4584L1427.86 75.0084Z" fill="#08457A" fill-opacity="0.2"/>
<path d="M35.4736 60.7038L44.876 69.7267L31.9289 73.1355L35.4736 60.7038Z" fill="#9E341F" fill-opacity="0.2"/>
<path d="M39.5262 75.2972L30.1251 66.2729L43.0728 62.866L39.5262 75.2972Z" fill="#9E341F" fill-opacity="0.2"/>
<path d="M1210.47 267.704L1219.88 276.727L1206.93 280.136L1210.47 267.704Z" fill="#1F6964" fill-opacity="0.2"/>
<path d="M1214.53 282.297L1205.13 273.273L1218.07 269.866L1214.53 282.297Z" fill="#1F6964" fill-opacity="0.2"/>
<path d="M446.205 322.852L456.095 332.342L442.477 335.927L446.205 322.852Z" fill="#E3C954" fill-opacity="0.6"/>
<path d="M679.084 1.56837L687.736 9.87095L675.822 13.0077L679.084 1.56837Z" fill="#B1A2D4" fill-opacity="0.6"/>
<path d="M186.352 142.038L173 150.197L173 134.121L186.352 142.038Z" fill="#9E341F" fill-opacity="0.2"/>
<path d="M1652.35 105.762L1662.07 115.086L1648.69 118.609L1652.35 105.762Z" fill="#1A2333" fill-opacity="0.4"/>
<path d="M1748.96 315.787L1740.81 307.956L1752.04 304.999L1748.96 315.787Z" fill="#065853" fill-opacity="0.5"/>
<path d="M1003.85 460.805L1013.81 470.358L1000.1 473.968L1003.85 460.805Z" fill="#51309F" fill-opacity="0.2"/>
<path d="M1008.15 476.253L998.191 466.698L1011.9 463.09L1008.15 476.253Z" fill="#51309F" fill-opacity="0.2"/>
<path d="M557.351 476.462L570.932 489.495L552.231 494.419L557.351 476.462Z" fill="#08457A" fill-opacity="0.2"/>
<path d="M563.204 497.541L549.624 484.505L568.327 479.584L563.204 497.541Z" fill="#08457A" fill-opacity="0.2"/>
<path d="M1080.83 41.5345L1089.29 49.6546L1077.64 52.7224L1080.83 41.5345Z" fill="#08457A" fill-opacity="0.2"/>
<path d="M1309.13 358.757L1301 350.948L1312.2 348L1309.13 358.757Z" fill="#08457A" fill-opacity="0.2"/>
<path d="M1557.95 433.41L1576.75 451.455L1550.86 458.273L1557.95 433.41Z" fill="#B1A2D4" fill-opacity="0.3"/>
<path d="M1566.05 462.598L1547.25 444.55L1573.15 437.736L1566.05 462.598Z" fill="#B1A2D4" fill-opacity="0.3"/>
<circle cx="82.5" cy="306.5" r="4.5" fill="#1A2333" fill-opacity="0.15"/>
<circle cx="816.5" cy="5.5" r="4.5" fill="#1A2333" fill-opacity="0.15"/>
<circle cx="1824.5" cy="147.5" r="4.5" fill="#989CA3" fill-opacity="0.4"/>
<circle cx="1100.5" cy="478.5" r="4.5" fill="#989CA3" fill-opacity="0.4"/>
<circle cx="82.5" cy="324.5" r="4.5" fill="#1A2333" fill-opacity="0.15"/>
<circle cx="816.5" cy="23.5" r="4.5" fill="#1A2333" fill-opacity="0.15"/>
<circle cx="1824.5" cy="165.5" r="4.5" fill="#989CA3" fill-opacity="0.4"/>
<circle cx="1100.5" cy="496.5" r="4.5" fill="#989CA3" fill-opacity="0.4"/>
<circle cx="82.5" cy="342.5" r="4.5" fill="#1A2333" fill-opacity="0.15"/>
<circle cx="816.5" cy="41.5" r="4.5" fill="#1A2333" fill-opacity="0.15"/>
<circle cx="1824.5" cy="183.5" r="4.5" fill="#989CA3" fill-opacity="0.4"/>
<circle cx="1100.5" cy="514.5" r="4.5" fill="#989CA3" fill-opacity="0.4"/>
<circle cx="82.5" cy="360.5" r="4.5" fill="#1A2333" fill-opacity="0.15"/>
<circle cx="816.5" cy="59.5" r="4.5" fill="#1A2333" fill-opacity="0.15"/>
<circle cx="1824.5" cy="201.5" r="4.5" fill="#989CA3" fill-opacity="0.4"/>
<circle cx="1100.5" cy="532.5" r="4.5" fill="#989CA3" fill-opacity="0.4"/>
<circle cx="154.5" cy="306.5" r="4.5" fill="#1A2333" fill-opacity="0.15"/>
<circle cx="888.5" cy="5.5" r="4.5" fill="#1A2333" fill-opacity="0.15"/>
<circle cx="1172.5" cy="478.5" r="4.5" fill="#989CA3" fill-opacity="0.4"/>
<circle cx="190.5" cy="306.5" r="4.5" fill="#1A2333" fill-opacity="0.15"/>
<circle cx="924.5" cy="5.5" r="4.5" fill="#1A2333" fill-opacity="0.15"/>
<circle cx="1208.5" cy="478.5" r="4.5" fill="#989CA3" fill-opacity="0.4"/>
<circle cx="154.5" cy="324.5" r="4.5" fill="#1A2333" fill-opacity="0.15"/>
<circle cx="888.5" cy="23.5" r="4.5" fill="#1A2333" fill-opacity="0.15"/>
<circle cx="1172.5" cy="496.5" r="4.5" fill="#989CA3" fill-opacity="0.4"/>
<circle cx="190.5" cy="324.5" r="4.5" fill="#1A2333" fill-opacity="0.15"/>
<circle cx="924.5" cy="23.5" r="4.5" fill="#1A2333" fill-opacity="0.15"/>
<circle cx="1208.5" cy="496.5" r="4.5" fill="#989CA3" fill-opacity="0.4"/>
<circle cx="154.5" cy="342.5" r="4.5" fill="#1A2333" fill-opacity="0.15"/>
<circle cx="172.5" cy="360.5" r="4.5" fill="#1A2333" fill-opacity="0.15"/>
<circle cx="888.5" cy="41.5" r="4.5" fill="#1A2333" fill-opacity="0.15"/>
<circle cx="1172.5" cy="514.5" r="4.5" fill="#989CA3" fill-opacity="0.4"/>
<circle cx="190.5" cy="342.5" r="4.5" fill="#1A2333" fill-opacity="0.15"/>
<circle cx="924.5" cy="41.5" r="4.5" fill="#1A2333" fill-opacity="0.15"/>
<circle cx="1208.5" cy="514.5" r="4.5" fill="#989CA3" fill-opacity="0.4"/>
<circle cx="154.5" cy="360.5" r="4.5" fill="#1A2333" fill-opacity="0.15"/>
<circle cx="888.5" cy="59.5" r="4.5" fill="#1A2333" fill-opacity="0.15"/>
<circle cx="1172.5" cy="532.5" r="4.5" fill="#989CA3" fill-opacity="0.4"/>
<circle cx="190.5" cy="360.5" r="4.5" fill="#1A2333" fill-opacity="0.15"/>
<circle cx="924.5" cy="59.5" r="4.5" fill="#1A2333" fill-opacity="0.15"/>
<circle cx="1208.5" cy="532.5" r="4.5" fill="#989CA3" fill-opacity="0.4"/>
<circle cx="297.5" cy="346.5" r="3.5" fill="#285053" fill-opacity="0.5"/>
<circle cx="661" cy="392" r="4" fill="#49292C" fill-opacity="0.2"/>
<circle cx="91" cy="230" r="4" fill="#49292C" fill-opacity="0.2"/>
<circle cx="488" cy="102" r="4" fill="#49292C" fill-opacity="0.5"/>
<circle cx="1234" cy="429" r="4" fill="#132F4C" fill-opacity="0.5"/>
<circle cx="1409" cy="219" r="4" fill="#132F4C" fill-opacity="0.5"/>
<circle cx="1266" cy="118" r="4" fill="#B1A2D4" fill-opacity="0.4"/>
<circle cx="1703" cy="336" r="4" fill="#49292C"/>
<circle cx="847" cy="433" r="4" fill="#132F4C" fill-opacity="0.5"/>
<circle cx="305" cy="166" r="4" fill="#34262F" fill-opacity="0.5"/>
<circle cx="100.5" cy="306.5" r="4.5" fill="#1A2333" fill-opacity="0.15"/>
<circle cx="834.5" cy="5.5" r="4.5" fill="#1A2333" fill-opacity="0.15"/>
<circle cx="1842.5" cy="147.5" r="4.5" fill="#989CA3" fill-opacity="0.4"/>
<circle cx="1118.5" cy="478.5" r="4.5" fill="#989CA3" fill-opacity="0.4"/>
<circle cx="100.5" cy="324.5" r="4.5" fill="#1A2333" fill-opacity="0.15"/>
<circle cx="834.5" cy="23.5" r="4.5" fill="#1A2333" fill-opacity="0.15"/>
<circle cx="1842.5" cy="165.5" r="4.5" fill="#989CA3" fill-opacity="0.4"/>
<circle cx="1118.5" cy="496.5" r="4.5" fill="#989CA3" fill-opacity="0.4"/>
<circle cx="100.5" cy="342.5" r="4.5" fill="#1A2333" fill-opacity="0.15"/>
<circle cx="834.5" cy="41.5" r="4.5" fill="#1A2333" fill-opacity="0.15"/>
<circle cx="1842.5" cy="183.5" r="4.5" fill="#989CA3" fill-opacity="0.4"/>
<circle cx="1118.5" cy="514.5" r="4.5" fill="#989CA3" fill-opacity="0.4"/>
<circle cx="100.5" cy="360.5" r="4.5" fill="#1A2333" fill-opacity="0.15"/>
<circle cx="834.5" cy="59.5" r="4.5" fill="#1A2333" fill-opacity="0.15"/>
<circle cx="1842.5" cy="201.5" r="4.5" fill="#989CA3" fill-opacity="0.4"/>
<circle cx="1118.5" cy="532.5" r="4.5" fill="#989CA3" fill-opacity="0.4"/>
<circle cx="118.5" cy="306.5" r="4.5" fill="#1A2333" fill-opacity="0.15"/>
<circle cx="852.5" cy="5.5" r="4.5" fill="#1A2333" fill-opacity="0.15"/>
<circle cx="1860.5" cy="147.5" r="4.5" fill="#989CA3" fill-opacity="0.4"/>
<circle cx="1136.5" cy="478.5" r="4.5" fill="#989CA3" fill-opacity="0.4"/>
<circle cx="118.5" cy="324.5" r="4.5" fill="#1A2333" fill-opacity="0.15"/>
<circle cx="852.5" cy="23.5" r="4.5" fill="#1A2333" fill-opacity="0.15"/>
<circle cx="1860.5" cy="165.5" r="4.5" fill="#989CA3" fill-opacity="0.4"/>
<circle cx="1136.5" cy="496.5" r="4.5" fill="#989CA3" fill-opacity="0.4"/>
<circle cx="118.5" cy="342.5" r="4.5" fill="#1A2333" fill-opacity="0.15"/>
<circle cx="852.5" cy="41.5" r="4.5" fill="#1A2333" fill-opacity="0.15"/>
<circle cx="1860.5" cy="183.5" r="4.5" fill="#989CA3" fill-opacity="0.4"/>
<circle cx="1136.5" cy="514.5" r="4.5" fill="#989CA3" fill-opacity="0.4"/>
<circle cx="118.5" cy="360.5" r="4.5" fill="#1A2333" fill-opacity="0.15"/>
<circle cx="852.5" cy="59.5" r="4.5" fill="#1A2333" fill-opacity="0.15"/>
<circle cx="1860.5" cy="201.5" r="4.5" fill="#989CA3" fill-opacity="0.4"/>
<circle cx="1136.5" cy="532.5" r="4.5" fill="#989CA3" fill-opacity="0.4"/>
<circle cx="136.5" cy="306.5" r="4.5" fill="#1A2333" fill-opacity="0.15"/>
<circle cx="870.5" cy="5.5" r="4.5" fill="#1A2333" fill-opacity="0.15"/>
<circle cx="1878.5" cy="147.5" r="4.5" fill="#989CA3" fill-opacity="0.4"/>
<circle cx="1154.5" cy="478.5" r="4.5" fill="#989CA3" fill-opacity="0.4"/>
<circle cx="172.5" cy="306.5" r="4.5" fill="#1A2333" fill-opacity="0.15"/>
<circle cx="906.5" cy="5.5" r="4.5" fill="#1A2333" fill-opacity="0.15"/>
<circle cx="1190.5" cy="478.5" r="4.5" fill="#989CA3" fill-opacity="0.4"/>
<circle cx="136.5" cy="324.5" r="4.5" fill="#1A2333" fill-opacity="0.15"/>
<circle cx="870.5" cy="23.5" r="4.5" fill="#1A2333" fill-opacity="0.15"/>
<circle cx="1878.5" cy="165.5" r="4.5" fill="#989CA3" fill-opacity="0.4"/>
<circle cx="1154.5" cy="496.5" r="4.5" fill="#989CA3" fill-opacity="0.4"/>
<circle cx="172.5" cy="324.5" r="4.5" fill="#1A2333" fill-opacity="0.15"/>
<circle cx="906.5" cy="23.5" r="4.5" fill="#1A2333" fill-opacity="0.15"/>
<circle cx="1190.5" cy="496.5" r="4.5" fill="#989CA3" fill-opacity="0.4"/>
<circle cx="136.5" cy="342.5" r="4.5" fill="#1A2333" fill-opacity="0.15"/>
<circle cx="870.5" cy="41.5" r="4.5" fill="#1A2333" fill-opacity="0.15"/>
<circle cx="1878.5" cy="183.5" r="4.5" fill="#989CA3" fill-opacity="0.4"/>
<circle cx="1154.5" cy="514.5" r="4.5" fill="#989CA3" fill-opacity="0.4"/>
<circle cx="172.5" cy="342.5" r="4.5" fill="#1A2333" fill-opacity="0.15"/>
<circle cx="906.5" cy="41.5" r="4.5" fill="#1A2333" fill-opacity="0.15"/>
<circle cx="1190.5" cy="514.5" r="4.5" fill="#989CA3" fill-opacity="0.4"/>
<circle cx="136.5" cy="360.5" r="4.5" fill="#1A2333" fill-opacity="0.15"/>
<circle cx="870.5" cy="59.5" r="4.5" fill="#1A2333" fill-opacity="0.15"/>
<circle cx="1878.5" cy="201.5" r="4.5" fill="#989CA3" fill-opacity="0.4"/>
<circle cx="1154.5" cy="532.5" r="4.5" fill="#989CA3" fill-opacity="0.4"/>
<circle cx="906.5" cy="59.5" r="4.5" fill="#1A2333" fill-opacity="0.15"/>
<circle cx="1190.5" cy="532.5" r="4.5" fill="#989CA3" fill-opacity="0.4"/>
<path d="M1480.93 335.197L1472.81 326.852L1470 329.587L1478.12 337.932L1480.93 335.197Z" fill="#1A2333" fill-opacity="0.3"/>
<path d="M512.931 286.665L504.811 278.32L501.999 281.056L510.12 289.401L512.931 286.665Z" fill="#1A2333" fill-opacity="0.3"/>
<path d="M1478.12 337.929L1480.86 340.741L1483.67 338.007L1489.2 332.621L1486.46 329.813L1489.27 327.078L1480.93 335.194L1478.12 337.929V337.929Z" fill="#1A2333" fill-opacity="0.3"/>
<path d="M510.122 289.398L512.858 292.21L515.667 289.476L521.198 284.09L518.463 281.281L521.271 278.547L512.93 286.663L510.122 289.398V289.398Z" fill="#1A2333" fill-opacity="0.3"/>
<path d="M1489.2 332.62L1497.32 340.96L1494.58 338.152L1497.39 335.417L1492.01 329.886L1489.27 327.078L1486.46 329.812L1489.2 332.62Z" fill="#1A2333" fill-opacity="0.3"/>
<path d="M521.198 284.089L529.318 292.429L526.584 289.62L529.392 286.886L524.006 281.354L521.271 278.546L518.463 281.281L521.198 284.089Z" fill="#1A2333" fill-opacity="0.3"/>
<path d="M1497.32 340.96L1500.13 338.23L1505.66 332.844L1502.92 330.031L1505.73 327.297L1497.39 335.418L1494.58 338.152L1497.32 340.96Z" fill="#1A2333" fill-opacity="0.3"/>
<path d="M529.317 292.429L532.128 289.699L537.659 284.313L534.922 281.5L537.73 278.766L529.391 286.886L526.583 289.621L529.317 292.429Z" fill="#1A2333" fill-opacity="0.3"/>
<path d="M1505.66 332.843L1511.05 338.375L1513.85 335.64L1505.73 327.296L1502.92 330.031L1505.66 332.843Z" fill="#1A2333" fill-opacity="0.3"/>
<path d="M537.661 284.312L543.047 289.844L545.855 287.109L537.732 278.765L534.924 281.5L537.661 284.312Z" fill="#1A2333" fill-opacity="0.3"/>
<path d="M1511.05 338.374L1513.78 341.182L1524.93 330.325L1522.2 327.517L1513.85 335.64L1511.05 338.374V338.374Z" fill="#1A2333" fill-opacity="0.3"/>
<path d="M543.047 289.843L545.781 292.651L556.933 281.794L554.199 278.986L545.855 287.109L543.047 289.843V289.843Z" fill="#1A2333" fill-opacity="0.3"/>
<path d="M225.595 18.4131L215.652 8.19531L212.21 11.5447L222.153 21.7625L225.595 18.4131Z" fill="#1A2333" fill-opacity="0.4"/>
<path d="M222.153 21.7564L225.504 25.2L228.942 21.8517L235.715 15.2571L232.366 11.8189L235.805 8.4707L225.591 18.4082L222.153 21.7564V21.7564Z" fill="#1A2333" fill-opacity="0.4"/>
<path d="M235.717 15.2579L245.66 25.4688L242.311 22.0306L245.75 18.6823L239.155 11.9097L235.807 8.47148L232.369 11.8197L235.717 15.2579Z" fill="#1A2333" fill-opacity="0.4"/>
<path d="M245.658 25.4675L249.099 22.1247L255.872 15.5301L252.521 12.0865L255.959 8.73828L245.748 18.6811L242.31 22.0293L245.658 25.4675Z" fill="#1A2333" fill-opacity="0.4"/>
<path d="M255.872 15.5309L262.467 22.3035L265.905 18.9553L255.959 8.73906L252.521 12.0873L255.872 15.5309Z" fill="#1A2333" fill-opacity="0.4"/>
<path d="M262.467 22.3045L265.815 25.7428L279.469 12.4489L276.121 9.01069L265.905 18.9563L262.467 22.3045V22.3045Z" fill="#1A2333" fill-opacity="0.4"/>
<path d="M672.212 243.839L671 248.211L677.705 250.07L678.917 245.698L672.212 243.839Z" fill="#51309F" fill-opacity="0.3"/>
<path d="M1128.21 369.839L1127 374.211L1133.7 376.07L1134.92 371.698L1128.21 369.839Z" fill="#E0C341" fill-opacity="0.2"/>
<path d="M1.46775 428.86L0 434.152L8.11645 436.403L9.5842 431.111L1.46775 428.86Z" fill="#065853" fill-opacity="0.3"/>
<path d="M683.295 246.913L682.082 251.285L688.787 253.145L689.999 248.772L683.295 246.913Z" fill="#51309F" fill-opacity="0.3"/>
<path d="M1139.29 372.913L1138.08 377.285L1144.79 379.145L1146 374.772L1139.29 372.913Z" fill="#E0C341" fill-opacity="0.2"/>
<path d="M14.8838 432.579L13.416 437.871L21.5325 440.122L23.0002 434.829L14.8838 432.579Z" fill="#065853" fill-opacity="0.3"/>
<path d="M677.198 250.079L675 256.787L680.171 258L682.369 251.292L683.802 246.921L686 240.213L680.829 239L678.631 245.703L677.198 250.079Z" fill="#51309F" fill-opacity="0.3"/>
<path d="M1133.2 376.079L1131 382.787L1136.17 384L1138.37 377.292L1139.8 372.921L1142 366.213L1136.83 365L1134.63 371.703L1133.2 376.079Z" fill="#E0C341" fill-opacity="0.2"/>
<path d="M8.19751 436.411L6 444.531L11.171 446L13.3685 437.88L14.8025 432.589L17 424.469L11.829 423L9.63149 431.114L8.19751 436.411Z" fill="#065853" fill-opacity="0.3"/>
</svg>
