<svg xmlns="http://www.w3.org/2000/svg" width="230" height="69.799" viewBox="0 0 230 69.799">
  <g data-name="Group 1764" transform="translate(-1063 -261)">
    <g transform="translate(1063 261)">
      <path data-name="Path 7345" d="M48.408,86.34c-18.141-3.18-30.981-15.4-32.888-31.29a32.035,32.035,0,0,1,5.7-21.572c4.362-6.234,12.063-11.771,19.972-14.357a38.734,38.734,0,0,1,14.1-2.234,42.578,42.578,0,0,1,24.728,7.167C85.176,27.461,91.506,34.8,91.506,37.367c0,2.272-2.9,3.917-5.766,3.273-1.7-.382-2.317-.936-4.628-4.175C76.5,30,69.569,25.444,60.925,23.206c-2.73-.707-3.942-.814-8.984-.792-5.1.022-6.253.137-9.227.921C30.224,26.628,21.385,35,18.685,46.109a28.137,28.137,0,0,0,.552,14.144c3.551,10.348,11.8,17.577,23.686,20.761,2.425.649,3.755.759,9.194.759,5.521,0,6.754-.1,9.361-.8,8.106-2.151,15.8-7.349,19.737-13.338,3.3-5.015,3.062-4.78,4.789-4.78,2.99,0,5.5,1.657,5.5,3.63,0,2.465-6.422,9.781-11.492,13.091a45.571,45.571,0,0,1-15.242,6.4,66.789,66.789,0,0,1-16.364.365Zm-1.943-8.231A32.787,32.787,0,0,1,30.571,71.8c-6.627-5.159-10.532-13.4-9.939-20.986.479-6.129,2.886-11.083,7.653-15.752,15.461-15.143,43.492-9.4,50.034,10.249a26.511,26.511,0,0,1,.37,12.989C75.106,71.191,61.361,79.64,46.465,78.109Zm9.3-5.171c8.337-2.317,14.556-8.144,16.873-15.814a22.014,22.014,0,0,0-.129-11.118c-2.733-8.651-11.541-15.29-21.337-16.089-14.71-1.2-26.863,7.8-27.726,20.536-.414,6.077,1.738,11.478,6.4,16.062a25.719,25.719,0,0,0,14.258,7.126,36.235,36.235,0,0,0,11.66-.7ZM40.915,69.287c-7.405-1.839-13.3-7.776-14.392-14.491a16.206,16.206,0,0,1,1.036-8.6c1.4-2.707,4.072-3.54,6.4-2,1.42.94,2.273,2.549,2.614,4.939l.247,1.737,1.2-3.127c1.682-4.375,1.968-4.848,3.007-4.968,1.358-.157,1.758.635,2.018,4l.237,3.057L44.647,46.6c1.411-3.344,2.437-4.478,3.7-4.086,1.6.5,1.825,1.225,2.206,7.164.2,3.127.429,5.75.507,5.827a8.169,8.169,0,0,0,1.295-2.16c1.21-2.412,1.913-2.935,3.109-2.306,1.049.552.912,1.248-1,5.076-2.377,4.762-3.7,5.767-5.554,4.2-.825-.7-1.024-1.214-1.253-3.226-.148-1.317-.278-3.873-.288-5.678-.011-1.893-.149-3.143-.327-2.953a52.2,52.2,0,0,0-1.956,5.715c-1.748,5.712-2.275,6.675-3.306,6.038-.62-.382-.7-.866-1.406-8.123l-.286-2.953-1.15,3.648c-1.97,6.245-2.327,7.106-3,7.233-1.408.267-1.658-.493-1.658-5.038,0-4.8-.438-7.183-1.537-8.377-.983-1.068-1.984-.85-2.861.623a12.056,12.056,0,0,0-.724,4.69,11.889,11.889,0,0,0,.957,5.482,18.389,18.389,0,0,0,6.946,7.146c8.743,4.583,19.635,1.478,23.767-6.775A9.957,9.957,0,0,0,62.3,51.92a11.1,11.1,0,0,0-1.259-5.468,18.182,18.182,0,0,0-9.353-8.366,17.8,17.8,0,0,0-16.844,2.489,5.51,5.51,0,0,1-1.829,1.091,2.178,2.178,0,0,1-1.566-1.459c0-.686,2.364-2.567,4.809-3.825a19.167,19.167,0,0,1,10.2-2.487,16.015,16.015,0,0,1,6.551,1.046c7.312,2.509,12.373,7.938,13.471,14.456,1.347,8-4.214,16.364-12.878,19.382-2.847.992-9.654,1.265-12.694.51Z" transform="translate(-15.33 -16.886)" fill="#1a2333"/>
    </g>
    <text transform="translate(1150 305.191)" fill="#1a2333" font-size="35" font-family="JosefinSans-Regular, Josefin Sans"><tspan x="0" y="0">MOOC.fi</tspan></text>
  </g>
</svg>
