<svg xmlns="http://www.w3.org/2000/svg" width="253.058" height="75.81" viewBox="0 0 253.058 75.81">
  <g id="Group_1764" data-name="Group 1764" transform="translate(-1063 -261)">
    <g id="moocfi" transform="translate(1063 261)">
      <path id="Path_7345" data-name="Path 7345" d="M50.663,92.321C31.285,88.868,17.57,75.6,15.533,58.337a35.235,35.235,0,0,1,6.092-23.43c4.659-6.771,12.885-12.784,21.333-15.594a40.753,40.753,0,0,1,15.063-2.427A44.936,44.936,0,0,1,84.435,24.67c5.5,3.7,12.264,11.675,12.264,14.461,0,2.468-3.094,4.254-6.159,3.555-1.82-.415-2.475-1.017-4.943-4.535-4.922-7.023-12.33-11.97-21.562-14.4-2.916-.768-4.211-.884-9.6-.86-5.449.024-6.679.149-9.856,1C31.239,27.467,21.8,36.565,18.914,48.625a31.055,31.055,0,0,0,.59,15.362c3.793,11.239,12.6,19.091,25.3,22.549,2.59.705,4.011.824,9.82.824,5.9,0,7.215-.113,10-.865,8.659-2.336,16.876-7.982,21.082-14.487,3.522-5.447,3.271-5.191,5.115-5.191,3.194,0,5.877,1.8,5.877,3.942,0,2.677-6.86,10.623-12.275,14.218a48.248,48.248,0,0,1-16.281,6.948c-3.589.811-13.851,1.044-17.48.4Zm-2.075-8.94a34.7,34.7,0,0,1-16.978-6.85c-7.079-5.6-11.25-14.558-10.617-22.794.512-6.656,3.083-12.037,8.175-17.109C45.683,20.182,75.624,26.418,82.613,47.761a29.263,29.263,0,0,1,.395,14.108C79.181,75.868,64.5,85.044,48.588,83.382Zm9.939-5.616C67.432,75.249,74.075,68.92,76.55,60.59a24.3,24.3,0,0,0-.137-12.075c-2.919-9.4-12.328-16.607-22.791-17.475-15.713-1.3-28.694,8.474-29.616,22.3-.442,6.6,1.857,12.466,6.836,17.446a27.31,27.31,0,0,0,15.23,7.74,38.081,38.081,0,0,0,12.455-.765ZM42.659,73.8c-7.91-2-14.208-8.445-15.373-15.739a17.873,17.873,0,0,1,1.106-9.342c1.5-2.94,4.35-3.845,6.838-2.171,1.517,1.021,2.427,2.769,2.792,5.364l.264,1.887,1.283-3.4c1.8-4.752,2.1-5.266,3.212-5.4,1.45-.171,1.878.689,2.156,4.339l.253,3.321,1.456-3.509c1.507-3.632,2.6-4.864,3.947-4.438,1.711.543,1.949,1.33,2.357,7.781.214,3.4.458,6.245.542,6.328a8.9,8.9,0,0,0,1.383-2.346c1.292-2.62,2.044-3.187,3.321-2.5,1.12.6.974,1.355-1.066,5.513-2.539,5.173-3.956,6.264-5.932,4.562-.881-.758-1.094-1.319-1.338-3.5-.158-1.431-.3-4.206-.308-6.167-.011-2.057-.159-3.414-.349-3.207a57.338,57.338,0,0,0-2.089,6.207c-1.867,6.2-2.43,7.249-3.532,6.558-.663-.415-.752-.941-1.5-8.822l-.306-3.207-1.229,3.962c-2.1,6.783-2.486,7.718-3.2,7.856-1.5.29-1.771-.535-1.771-5.471,0-5.21-.468-7.8-1.642-9.1-1.051-1.16-2.119-.924-3.056.676a13.289,13.289,0,0,0-.774,5.094,13.1,13.1,0,0,0,1.022,5.954,19.825,19.825,0,0,0,7.419,7.762c9.339,4.978,20.974,1.606,25.387-7.358a10.951,10.951,0,0,0,1.58-6.351A12.213,12.213,0,0,0,64.16,49a19.539,19.539,0,0,0-9.99-9.087,18.759,18.759,0,0,0-17.993,2.7A5.862,5.862,0,0,1,34.224,43.8a2.343,2.343,0,0,1-1.673-1.585c0-.745,2.526-2.788,5.137-4.155a20.2,20.2,0,0,1,10.9-2.7,16.852,16.852,0,0,1,7,1.137C63.4,39.22,68.8,45.116,69.974,52.2c1.439,8.684-4.5,17.773-13.756,21.051-3.041,1.077-10.312,1.374-13.559.554Z" transform="translate(-15.33 -16.886)" fill="#1a2333"/>
    </g>
    <text id="MOOC.fi" transform="translate(1160.058 309)" fill="#1a2333" font-size="38" font-family="JosefinSans-Regular, Josefin Sans"><tspan x="0" y="0">MOOC.fi</tspan></text>
  </g>
</svg>
