<svg width="20" height="20" viewBox="0 0 20 20" fill="none" xmlns="http://www.w3.org/2000/svg">
<path d="M10 20C8.02219 20 6.08879 19.4135 4.4443 18.3147C2.79981 17.2159 1.51809 15.6541 0.761209 13.8268C0.00433284 11.9996 -0.193701 9.98891 0.192152 8.0491C0.578004 6.10929 1.53041 4.32746 2.92894 2.92894C4.32746 1.53041 6.10929 0.578004 8.0491 0.192152C9.98891 -0.193701 11.9996 0.00433284 13.8268 0.761209C15.6541 1.51809 17.2159 2.79981 18.3147 4.4443C19.4135 6.08879 20 8.02219 20 10C19.9971 12.6513 18.9426 15.1931 17.0679 17.0679C15.1931 18.9426 12.6513 19.9971 10 20ZM5.75 9.262C5.65171 9.26137 5.55426 9.28022 5.46329 9.31746C5.37232 9.35471 5.28963 9.40962 5.22 9.479C5.0798 9.61976 5.00108 9.81034 5.00108 10.009C5.00108 10.2077 5.0798 10.3982 5.22 10.539L8.05 13.369C8.19063 13.5095 8.38125 13.5883 8.58 13.5883C8.77876 13.5883 8.96938 13.5095 9.11 13.369L14.78 7.7C14.9202 7.55925 14.9989 7.36867 14.9989 7.17C14.9989 6.97133 14.9202 6.78076 14.78 6.64C14.6387 6.50076 14.4484 6.42271 14.25 6.42271C14.0517 6.42271 13.8613 6.50076 13.72 6.64L8.58 11.78L6.28 9.48C6.21046 9.41043 6.12781 9.35535 6.03684 9.31793C5.94586 9.28051 5.84837 9.2615 5.75 9.262Z" fill="#1F6964"/>
</svg>
