<svg width="146" height="115" viewBox="0 0 146 115" fill="none" xmlns="http://www.w3.org/2000/svg">
<path d="M145.51 104.791H143.492V114.542H145.51V104.791ZM128.031 104.791H126.179V114.542H128.161V108.652L132.02 114.542H133.746V104.793H131.761V110.475L128.031 104.791ZM124.721 104.791H122.702V114.542H124.721V104.791ZM116.034 111.742L114.834 113.231C115.806 114.152 117.095 114.665 118.434 114.665C118.846 114.711 119.262 114.67 119.657 114.544C120.051 114.419 120.415 114.211 120.724 113.935C121.033 113.659 121.28 113.321 121.449 112.943C121.619 112.566 121.707 112.156 121.707 111.742V111.713C121.707 110.195 120.788 109.471 119.09 108.801C117.57 108.173 117.236 107.909 117.236 107.351V107.342C117.236 106.842 117.668 106.492 118.364 106.492C119.139 106.548 119.872 106.868 120.44 107.398L121.574 105.867C120.713 105.087 119.589 104.658 118.427 104.667C118.026 104.626 117.621 104.668 117.238 104.792C116.855 104.917 116.502 105.12 116.202 105.388C115.902 105.657 115.661 105.985 115.495 106.352C115.329 106.72 115.242 107.117 115.239 107.52V107.548C115.239 109.223 116.311 109.876 118.039 110.548C119.433 111.071 119.714 111.385 119.714 111.871V111.885C119.714 112.455 119.241 112.847 118.458 112.847C117.542 112.79 116.68 112.399 116.034 111.747V111.742ZM110.583 104.791H108.561V114.542H114.521V112.69H110.578L110.583 104.791ZM107.389 104.791H101.109V114.542H107.445V112.72H103.114V110.542H106.875V108.724H103.114V106.618H107.39L107.389 104.791ZM94.442 104.791H92.424V114.542H94.441V110.573H97.641V114.542H99.661V104.793H97.642V108.706H94.442V104.791ZM88.497 104.791H82.217V114.542H84.236V110.683H87.984V108.833H84.238V106.642H88.499L88.497 104.791ZM74.661 109.605C74.661 107.681 75.623 106.485 76.989 106.485C78.355 106.485 79.317 107.697 79.317 109.62V109.72C79.317 111.643 78.355 112.84 77.004 112.84C75.653 112.84 74.663 111.627 74.663 109.7L74.661 109.605ZM72.588 109.591V109.758C72.588 112.671 74.397 114.702 76.988 114.702C79.579 114.702 81.403 112.642 81.403 109.73V109.563C81.403 106.651 79.593 104.619 77.003 104.619C74.413 104.619 72.586 106.667 72.586 109.592L72.588 109.591ZM63.998 104.786H61.712L64.888 110.691V114.533H66.906V110.66L70.086 104.789H67.861L65.922 108.619L63.998 104.786ZM61.557 104.786H54.647V106.651H57.099V114.532H59.099V106.649H61.551L61.557 104.786ZM53.957 104.786H51.936V114.534H53.955L53.957 104.786ZM40.242 106.608C41.273 106.608 41.873 107.097 41.873 108.073V108.087C41.8825 108.292 41.8469 108.497 41.7688 108.687C41.6908 108.877 41.572 109.048 41.421 109.187C41.2695 109.327 41.0891 109.432 40.8926 109.494C40.6962 109.556 40.4884 109.575 40.284 109.548H38.796V106.606L40.242 106.608ZM40.437 104.785H36.773V114.534H38.791V111.334H40.061L41.861 114.534H44.171L42.095 110.913C42.6582 110.68 43.135 110.277 43.4593 109.761C43.7836 109.245 43.9393 108.641 43.905 108.032V107.975C43.9248 107.564 43.8623 107.154 43.7214 106.767C43.5804 106.381 43.3637 106.027 43.084 105.725C42.7269 105.402 42.3088 105.153 41.8544 104.992C41.3999 104.832 40.9181 104.764 40.437 104.792V104.785ZM22.553 104.785H20.369L23.658 114.585H25.523L28.812 104.785H26.679L24.618 111.502L22.553 104.785ZM19.748 104.785H17.731V114.534H19.75L19.748 104.785ZM10.537 104.785H8.69V114.534H10.666V108.642L14.525 114.532H16.251V104.783H14.276V110.465L10.537 104.785ZM7.422 110.714V104.794H5.422V110.811C5.422 112.161 4.767 112.831 3.722 112.831C2.677 112.831 2.022 112.149 2.022 110.769V104.794H0V110.76C0 113.391 1.448 114.701 3.691 114.701C5.934 114.701 7.422 113.406 7.422 110.724V110.714ZM35.601 104.794H29.321V114.542H35.661V112.72H31.331V110.542H35.093V108.721H31.327V106.615H35.604L35.601 104.794ZM51.179 111.742V111.713C51.179 110.195 50.261 109.471 48.562 108.801C47.042 108.173 46.708 107.909 46.708 107.351V107.342C46.708 106.842 47.14 106.492 47.837 106.492C48.6121 106.548 49.3446 106.868 49.913 107.398L51.036 105.864C50.1766 105.085 49.056 104.657 47.896 104.664C47.4954 104.623 47.0905 104.666 46.7074 104.79C46.3242 104.914 45.9712 105.117 45.671 105.385C45.3708 105.654 45.13 105.982 44.964 106.349C44.798 106.716 44.7104 107.113 44.707 107.516V107.544C44.707 109.219 45.781 109.872 47.507 110.544C48.9 111.067 49.182 111.381 49.182 111.867V111.881C49.182 112.451 48.708 112.843 47.926 112.843C47.0104 112.786 46.1478 112.395 45.502 111.743L44.302 113.228C45.276 114.151 46.5673 114.664 47.909 114.662C48.3205 114.708 48.737 114.667 49.1314 114.541C49.5259 114.415 49.8893 114.207 50.198 113.931C50.5068 113.655 50.754 113.317 50.9234 112.939C51.0928 112.562 51.1805 112.152 51.181 111.738L51.179 111.742ZM142.779 104.791H140.397L137.207 108.996V104.791H135.193V114.542H137.211V111.673L138.117 110.532L140.555 114.543H142.924L139.512 108.929L142.786 104.794" fill="white"/>
<path d="M67.9961 95.1165H77.5081V85.6055H67.9971V95.1165" fill="white"/>
<path d="M67.9961 9.51102H77.5081V0H67.9971V9.51102" fill="white"/>
<path d="M77.512 52.3115H68.001V42.8005H77.512V52.3115ZM123.484 63.1595C119.821 55.1065 111.603 53.9325 106.458 50.5765C103.995 48.9695 102.998 45.7455 102.605 43.0495C100.181 43.3015 96.145 43.3385 94.216 38.4365C92.7 34.5815 93.328 28.1945 88.25 22.7825C86.3075 20.6405 83.9012 18.9706 81.2149 17.9004C78.5286 16.8302 75.6333 16.388 72.75 16.6075C79.135 20.8745 76.615 27.3075 71.982 27.3075C65.53 27.3075 63.728 19.5385 54.282 19.5385C52.4292 19.5207 50.609 20.0265 49.031 20.9975C54.319 21.6655 55.585 25.9975 57.238 29.9265C57.8574 31.4086 58.827 32.7184 60.0635 33.7437C61.3001 34.769 62.7668 35.4792 64.338 35.8135C63.0763 36.387 61.6991 36.6608 60.314 36.6135C56.144 36.6135 53.239 34.4135 50.251 31.3415C47.623 28.6335 44.691 26.0675 39.775 26.0675C38.0608 26.0277 36.3666 26.4417 34.864 27.2675C37.564 27.6925 41.549 29.3015 41.549 32.1555C41.549 34.5965 38.849 35.5295 36.637 33.1955C35.3876 31.803 33.8674 30.6798 32.1694 29.8944C30.4714 29.109 28.6311 28.6779 26.761 28.6275C25.065 28.5565 23.3948 29.0612 22.022 30.0595C26.711 30.6005 29.488 33.6105 32.39 40.3255C34.028 44.1155 36.362 47.6975 42.237 47.7645C44.911 47.7985 48.707 46.5255 50.937 48.6645C53.046 50.6895 52.337 53.3445 53.304 55.4985C54.518 58.2045 57.034 59.5985 61.956 59.8555C57.874 63.2705 48.115 61.2215 44.791 57.7305C45.227 66.4695 52.118 74.3065 65.803 70.6205C68.181 69.9795 69.877 70.3435 70.792 72.7485C72.048 76.0485 75.024 76.6005 77.836 76.2485C84.267 75.4485 88.084 76.7485 91.785 81.1675C92.594 73.8525 87.363 69.5495 84.078 67.4985C80.948 65.5405 80.643 63.5055 80.604 61.9285C82.7607 64.281 85.7136 65.7495 88.891 66.0495C94.2 66.7965 98.002 68.2765 100.016 71.1225C100.603 63.0785 92.16 61.2615 91.116 57.8785C93.2261 59.4836 95.8558 60.2506 98.498 60.0315C102.189 59.7505 106.677 56.8535 109.987 62.5255C114.212 59.7795 119.748 60.7575 123.465 63.1625" fill="white"/>
</svg>
