<svg width="103" height="81" viewBox="0 0 103 81" fill="none" xmlns="http://www.w3.org/2000/svg">
<path d="M103 73.9957H101.572V80.8812H103V73.9957ZM90.6247 73.9957H89.3142V80.8812H90.7149V76.7221L93.4461 80.8812H94.6682V73.9976H93.2686V78.0103L90.6247 73.9957ZM88.282 73.9957H86.8536V80.8812H88.282V73.9957ZM82.1337 78.9041L81.2856 79.9568C81.9754 80.6082 82.8895 80.9706 83.8394 80.9693C84.1307 81.0018 84.4256 80.9728 84.7049 80.8839C84.9842 80.7951 85.2415 80.6484 85.4602 80.4536C85.6788 80.2588 85.8538 80.0202 85.9737 79.7534C86.0937 79.4865 86.1558 79.1975 86.1562 78.905V78.8849C86.1562 77.8131 85.5057 77.3021 84.3037 76.8293C83.2283 76.3872 82.9913 76.1996 82.9913 75.8063V75.7967C82.9913 75.4417 83.2974 75.1967 83.7904 75.1967C84.3388 75.2365 84.857 75.462 85.2592 75.836L86.0573 74.7546C85.447 74.2041 84.6516 73.9025 83.8288 73.9095C83.5456 73.8802 83.2594 73.9102 82.9884 73.9976C82.7175 74.085 82.4679 74.2278 82.2555 74.417C82.0431 74.6062 81.8726 74.8375 81.755 75.0962C81.6374 75.3549 81.5752 75.6352 81.5725 75.9192V75.9393C81.5725 77.1202 82.3313 77.5825 83.5535 78.0552C84.5406 78.4285 84.7373 78.6447 84.7373 78.9893V78.9988C84.7373 79.4017 84.4025 79.6783 83.8499 79.6783C83.2016 79.6382 82.5908 79.3616 82.1337 78.9012V78.9041ZM78.2753 73.9957H76.8478V80.8812H81.0688V79.574H78.2782L78.2753 73.9957ZM76.0141 73.9957H71.5686V80.8812H76.0535V79.595H72.9836V78.0638H75.6534V76.7662H72.9913V75.2828H76.017L76.0141 73.9957ZM66.8497 73.9957H65.4232V80.8812H66.8507V78.0782H69.1195V80.8812H70.5479V73.9976H69.1195V76.7614H66.8507L66.8497 73.9957ZM62.6421 73.9957H58.1937V80.8812H59.6221V78.1567H62.2737V76.8504H59.6269V75.3048H62.6431L62.6421 73.9957ZM52.8474 77.3987C52.8474 76.0408 53.5285 75.1976 54.4945 75.1976C55.4606 75.1976 56.1417 76.0532 56.1417 77.4112V77.481C56.1417 78.8381 55.4606 79.6821 54.5041 79.6821C53.5477 79.6821 52.8464 78.8256 52.8464 77.4686L52.8474 77.3987ZM51.3796 77.3892V77.5078C51.3796 79.5644 52.6603 80.9989 54.4945 80.9989C56.3288 80.9989 57.6181 79.5414 57.6181 77.4887V77.37C57.6181 75.3144 56.3374 73.8789 54.5032 73.8789C52.6689 73.8789 51.3825 75.324 51.3825 77.3901L51.3796 77.3892ZM45.3003 73.9966H43.6839L45.9316 78.1662V80.8812H47.36V78.1481L49.6068 73.9976H48.0248L46.6549 76.702L45.3003 73.9966ZM43.5736 73.9966H38.681V75.3144H40.4164V80.8812H41.8372V75.3144H43.5726L43.5736 73.9966ZM38.1927 73.9966H36.7633V80.8812H38.1917L38.1927 73.9966ZM28.4872 75.2828C29.2172 75.2828 29.6384 75.6273 29.6384 76.3164V76.3259C29.6456 76.4713 29.6206 76.6165 29.5653 76.7513C29.51 76.886 29.4257 77.0069 29.3183 77.1055C29.2109 77.2041 29.0832 77.278 28.944 77.3219C28.8049 77.3658 28.6578 77.3786 28.5131 77.3595H27.4578V75.2828H28.4872ZM28.6253 73.9957H26.0352V80.8812H27.4636V78.6189H28.3586L29.6326 80.8812H31.2635L29.7976 78.3222C30.1965 78.1577 30.5341 77.8734 30.7638 77.5089C30.9934 77.1443 31.1037 76.7175 31.0793 76.2877V76.2484C31.094 75.9576 31.0502 75.6669 30.9506 75.3932C30.8509 75.1195 30.6973 74.8686 30.4989 74.655C30.2461 74.4267 29.9502 74.2508 29.6285 74.1378C29.3068 74.0248 28.9658 73.9768 28.6253 73.9966V73.9957ZM15.9622 73.9957H14.4177L16.745 80.9186H18.0651L20.3962 73.9957H18.8853L17.4223 78.7347L15.9622 73.9957ZM13.9764 73.9957H12.547V80.8812H13.9755L13.9764 73.9957ZM7.45876 73.9957H6.1512V80.8812H7.5499V76.7221L10.2821 80.8812H11.5033V73.9976H10.1055V78.0103L7.45876 73.9957ZM5.25231 78.1758V73.9957H3.83539V78.2447C3.83539 79.2017 3.37203 79.6706 2.63143 79.6706C1.89083 79.6706 1.42844 79.1921 1.42844 78.215V73.9957H0V78.2064C0 80.0649 1.02456 80.9884 2.61225 80.9884C4.19993 80.9884 5.25423 80.0745 5.25423 78.1758H5.25231ZM25.1986 73.9957H20.755V80.8812H25.2399V79.595H22.17V78.0638H24.8322V76.7662H22.1748V75.2828H25.2025L25.1986 73.9957ZM36.2251 78.9041V78.884C36.2251 77.8122 35.5757 77.3011 34.3727 76.8284C33.2992 76.3834 33.0593 76.1977 33.0593 75.8044V75.7948C33.0593 75.4398 33.3654 75.1948 33.8585 75.1948C34.4068 75.2346 34.925 75.4601 35.3272 75.834L36.1292 74.7565C35.5192 74.206 34.7241 73.9044 33.9016 73.9114C33.6183 73.8821 33.332 73.9121 33.061 73.9995C32.79 74.0869 32.5402 74.2297 32.3276 74.4188C32.1151 74.608 31.9445 74.8393 31.8266 75.098C31.7088 75.3567 31.6464 75.637 31.6434 75.9211V75.9412C31.6434 77.1222 32.4032 77.5844 33.6244 78.0571C34.6106 78.4304 34.8082 78.6467 34.8082 78.9912V79.0007C34.8082 79.4036 34.4724 79.6802 33.9199 79.6802C33.2716 79.64 32.6607 79.3635 32.2036 78.9031L31.3565 79.9558C32.0463 80.6072 32.9604 80.9697 33.9103 80.9683C34.2015 81.0006 34.4963 80.9713 34.7754 80.8822C35.0546 80.7932 35.3117 80.6465 35.5302 80.4516C35.7486 80.2567 35.9234 80.0181 36.0431 79.7513C36.1629 79.4845 36.2249 79.1955 36.2251 78.9031V78.9041ZM101.061 73.9957H99.3747L97.1164 76.9623V73.9957H95.688V80.8812H97.1164V78.8553L97.7573 78.0495L99.4841 80.8812H101.161L98.7454 76.9164L101.063 73.9966" fill="#4B4B4B" fill-opacity="0.6"/>
<path d="M48.1309 67.1595H54.8634V60.4434H48.1309V67.1595Z" fill="#4B4B4B" fill-opacity="0.6"/>
<path d="M48.1309 6.71619H54.8634V0H48.1309V6.71619Z" fill="#4B4B4B" fill-opacity="0.6"/>
<path d="M54.8637 36.939H48.1321V30.2229H54.8646L54.8637 36.939ZM87.405 44.595C84.8148 38.9085 78.9955 38.0788 75.353 35.7103C73.6089 34.5762 72.9028 32.2986 72.6266 30.3961C70.9103 30.5741 68.0534 30.5999 66.6883 27.1423C65.6158 24.4206 66.06 19.9103 62.4673 16.088C61.0928 14.5752 59.3899 13.3957 57.4887 12.6398C55.5875 11.8838 53.5382 11.5713 51.4974 11.7261C56.0149 14.7397 54.2334 19.2863 50.9535 19.2863C46.3861 19.2863 45.1102 13.7999 38.4256 13.7999C37.1143 13.7871 35.8261 14.1441 34.7092 14.8296C38.4506 15.3014 39.3485 18.3628 40.5189 21.1343C40.9574 22.181 41.6438 23.1061 42.5193 23.8301C43.3949 24.5542 44.4333 25.0556 45.5457 25.2915C44.6522 25.6958 43.6771 25.8884 42.6965 25.8542C39.7447 25.8542 37.6879 24.3048 35.5735 22.1315C33.7134 20.2175 31.6403 18.4078 28.1579 18.4078C26.9446 18.3792 25.7452 18.671 24.6813 19.2538C26.5914 19.5543 29.4127 20.6893 29.4127 22.7057C29.4127 24.4283 27.5008 25.0886 25.9361 23.4406C25.0517 22.4575 23.9757 21.6644 22.7738 21.1099C21.5719 20.5554 20.2693 20.2511 18.9455 20.2156C17.744 20.1646 16.5606 20.5208 15.5879 21.2262C18.9072 21.609 20.8728 23.7335 22.9267 28.4744C24.0866 31.154 25.7385 33.6805 29.8972 33.7274C31.79 33.7513 34.477 32.8527 36.0551 34.3628C37.5478 35.7926 37.0471 37.6673 37.7301 39.188C38.5935 41.102 40.3702 42.0829 43.8535 42.2647C40.964 44.6763 34.0559 43.2294 31.7046 40.7651C32.0135 46.9358 36.8926 52.4701 46.5741 49.8671C48.2578 49.4144 49.4579 49.6709 50.1064 51.3696C50.9957 53.7027 53.1024 54.0894 55.0949 53.8424C59.6469 53.2797 62.3483 54.1946 64.9683 57.3163C65.5439 52.1485 61.838 49.1149 59.5126 47.6641C57.2975 46.2812 57.0807 44.8448 57.0538 43.7308C58.5805 45.3922 60.6709 46.4292 62.9201 46.641C66.6778 47.1683 69.3697 48.2144 70.7952 50.224C71.2116 44.5443 65.2311 43.261 64.5011 40.8723C65.9947 42.0059 67.8562 42.5476 69.7265 42.3929C72.3388 42.1949 75.516 40.1497 77.8587 44.1538C80.8499 42.2149 84.7659 42.9097 87.3992 44.6036" fill="#4B4B4B" fill-opacity="0.6"/>
</svg>
