<svg xmlns="http://www.w3.org/2000/svg" width="36.499" height="35.561" viewBox="0 0 36.499 35.561">
  <g id="g138743" transform="translate(380.934 -85.065)">
    <ellipse id="ellipse138605" class="bg" cx="17.15" cy="17.295" rx="17.15" ry="17.295" transform="translate(-379.917 85.745)" fill="#d1d1d1"/>
    <path id="path138618" d="M-358.843,107.836l1.163,3.052,1.453.872,1.453-1.163-.291-2.907Z" fill="#d67874" fill-rule="evenodd"/>
    <path id="path826" d="M-364.947,120.534c-4.968-.519-10.7-3.88-13.311-7.811a17.222,17.222,0,0,1-2.369-5.523,18.822,18.822,0,0,1-.122-6.02,20.433,20.433,0,0,1,3.74-8.736,23.518,23.518,0,0,1,3.783-3.781,18.952,18.952,0,0,1,8.71-3.47c1.464-.191,2.01-.173,2.3.073a1.32,1.32,0,0,0,.8.255,19.142,19.142,0,0,1,7.463,2.034,13.488,13.488,0,0,1,3.337,2.338,17.606,17.606,0,0,1,5.924,10.464,17.169,17.169,0,0,1-10.484,18.891,23.038,23.038,0,0,1-9.773,1.285Zm4.26-1.324a17.967,17.967,0,0,0,7.792-2.62,15.863,15.863,0,0,0,6.639-9.556,20.106,20.106,0,0,0,.034-7.17A16.987,16.987,0,0,0-355.05,88.67a17.87,17.87,0,0,0-9.989-1.442c-.888.118-1.207.073-1.288-.182-.049-.154-.1-.17-.414-.127a15.758,15.758,0,0,0-3.132,1.178,18.113,18.113,0,0,0-9.623,13.631,14.137,14.137,0,0,0,.116,5.2c.994,4.764,4.61,8.856,9.714,10.995a17.158,17.158,0,0,0,8.979,1.285Zm3.457-7.334a3.853,3.853,0,0,1-1.711-2.634l-.135-.607-6.277-.05c-4.448-.035-6.356-.078-6.548-.146a.576.576,0,0,1-.433-.6c0-.444-.206-.43,6.375-.433,6.95,0,8.293-.077,12.1-.667,1.565-.243,2.106-.271,2.287-.121a.919.919,0,0,1,.064.807c-.1.155-.47.267-1.332.4-1.2.189-1.255.219-1.257.732a6.072,6.072,0,0,1-.358,2.26,2.066,2.066,0,0,1-2.774,1.059Zm1.238-1.159a2.2,2.2,0,0,0,.571-2.142l-.1-.307-.883.057c-.486.031-1.019.08-1.184.109l-.3.052.143.548c.387,1.484,1,2.073,1.755,1.684Zm-16.158-7.377c-.415-.291-.229-.653,1.246-2.425a6.9,6.9,0,0,0,.643-.843,5.9,5.9,0,0,0-.778-.74c-1.077-.926-1.321-1.216-1.255-1.49.1-.432.541-.551,1-.271a13.142,13.142,0,0,1,1.03.829,8.357,8.357,0,0,0,.835.675,5.289,5.289,0,0,0,.646-.618A7.98,7.98,0,0,1-368,97.71a.539.539,0,0,1,.8.49c0,.281-.154.528-.777,1.242-.345.4-.388.482-.3.593a12.706,12.706,0,0,0,1.054.8c1,.711,1.18.9,1.18,1.19,0,.254-.464.631-.693.563a20.949,20.949,0,0,1-2.233-1.467,1.083,1.083,0,0,0-.336-.215c-.2.291-1.854,2.18-2.044,2.34a.593.593,0,0,1-.809.09Zm15.022-.531a5.353,5.353,0,0,1-.829-.8c-1.153-1.284-1.171-1.3-1.305-1.25a5.807,5.807,0,0,0-.772.806,5.478,5.478,0,0,1-.883.881c-.213.11-.26.109-.438-.007-.467-.306-.329-.718.663-1.974a8.486,8.486,0,0,0,.626-.851,3.3,3.3,0,0,0-.4-.525c-.7-.809-1.007-1.261-1.007-1.461,0-.255.434-.624.663-.564a4.517,4.517,0,0,1,1.209,1.18,1.579,1.579,0,0,0,.377.394c.029-.009.376-.4.772-.861a9.131,9.131,0,0,1,.919-.974.612.612,0,0,1,.792.043c.3.3.113.669-.992,1.976a4.227,4.227,0,0,0-.59.806,6.987,6.987,0,0,0,.811,1.042c1.4,1.617,1.431,1.678.955,2.052a.437.437,0,0,1-.57.088Z"/>
  </g>
</svg>
